<svg width="65" height="81" viewBox="0 0 65 81" xmlns="http://www.w3.org/2000/svg"><title>2DA42040-2564-4B40-BB67-6742EEAA597C</title><g fill="#FFF" fill-rule="evenodd"><path d="M41.093 28.306c.366-3.576 4.756-6.185 4.884-7.344.148-1.318-.98-2.789-2.55-2.752-1.37.033-5.611 5.03-7.398 4.529-1.784-.499-1.02-6.613-1.87-7.613-.471-.555-1.053-.818-2.119-.838-1.068.02-1.65.283-2.121.838-.85 1-.086 7.114-1.87 7.613-1.787.501-6.027-4.496-7.397-4.529-1.57-.037-2.699 1.434-2.551 2.752.13 1.16 4.518 3.768 4.883 7.344.366 3.577-7.337 19.35-7.337 45.59 0 2.57 10.201 4.769 16.393 4.769 6.19 0 16.393-2.199 16.393-4.769 0-26.24-7.705-42.013-7.34-45.59"/><path d="M32.04 80.686c-8.56 0-16.605-3.267-22.656-9.2C3.333 65.554 0 57.665 0 49.275c0-8.39 3.333-16.28 9.384-22.212a1.18 1.18 0 0 1 1.641 0 1.12 1.12 0 0 1 0 1.609 28.768 28.768 0 0 0 0 41.206c5.613 5.504 13.076 8.534 21.015 8.534 7.938 0 15.4-3.03 21.014-8.534a28.768 28.768 0 0 0 0-41.206 1.12 1.12 0 0 1 0-1.61 1.177 1.177 0 0 1 1.639 0c6.053 5.933 9.384 13.823 9.384 22.213s-3.33 16.279-9.384 22.211c-6.051 5.933-14.096 9.2-22.653 9.2"/><path d="M33.548 12.342s-6.423.808-9.87-2.576C20.231 6.38 21.066.084 21.066.084s6.423-.808 9.87 2.576c3.446 3.387 2.61 9.682 2.61 9.682" opacity=".5"/><path d="M43.014.103s.824 6.298-2.628 9.678c-3.452 3.377-9.875 2.559-9.875 2.559s-.824-6.298 2.628-9.678C36.593-.715 43.014.103 43.014.103"/><path d="M18.123 16.874s-2.588 3.64-5.993 3.801c-3.406.16-6.338-3.22-6.338-3.22s2.588-3.639 5.994-3.8c3.405-.16 6.337 3.22 6.337 3.22" opacity=".5"/><path d="M16.104 6.325s3.712 2.537 3.877 5.876c.163 3.339-3.285 6.213-3.285 6.213s-3.711-2.537-3.876-5.876c-.163-3.339 3.284-6.213 3.284-6.213"/><path d="M47.602 18.562s-3.712-2.538-3.877-5.877c-.163-3.338 3.284-6.213 3.284-6.213s3.712 2.538 3.877 5.877c.163 3.338-3.284 6.213-3.284 6.213" opacity=".5"/><path d="M58.362 16.582s-2.588 3.639-5.993 3.8c-3.406.16-6.338-3.22-6.338-3.22s2.588-3.638 5.994-3.8c3.405-.16 6.337 3.22 6.337 3.22"/></g></svg>