<svg id="Layer_1" data-name="Layer 1" xmlns="http://www.w3.org/2000/svg" viewBox="0 0 119.97 95.45"><defs><style>.cls-1{fill:#d3af7a;}.cls-2{fill:#4d5ca7;}.cls-3{fill:#4f5ea7;}.cls-4{fill:#fcfdfd;}.cls-5{fill:#bdbf03;}</style></defs><path class="cls-1" d="M296.91,864.5a9.36,9.36,0,0,0,2.85.69c10.48,2.59,17.63,8.95,21.56,19a1.42,1.42,0,0,1,0,.43c-.57-.29-.78-.83-1.12-1.24A12.52,12.52,0,0,0,306.57,879c-3.25.83-6.45,1.84-9.7,2.66a13.73,13.73,0,0,1-9.16-.37,8,8,0,0,1-5.13-6.94,8.19,8.19,0,0,1,3.79-7.68,12.11,12.11,0,0,1,4.63-1.88c.23,0,.48,0,.63-.27Z" transform="translate(-232.83 -864.5)"/><path class="cls-2" d="M292.11,959.94a5.08,5.08,0,0,1-2.05-2.06c-2.84-4.77-5.73-9.51-8.61-14.25a4.57,4.57,0,0,0-1.09-1.33v1.25c0,5,0,10,0,15,0,.89-.22,1.16-1.13,1.14-2.29,0-2.29,0-2.29-2.24q0-9.34,0-18.69a2.36,2.36,0,0,1,2.94-2.54,2.8,2.8,0,0,1,1.74,1.54q4.61,7.63,9.25,15.26l.69,1.08v-1.57c0-5,0-10,0-15,0-.86.09-1.26,1.14-1.2,2.28.13,2.28.06,2.28,2.33,0,6-.05,11.9,0,17.85a3.22,3.22,0,0,1-1.95,3.43Z" transform="translate(-232.83 -864.5)"/><path class="cls-3" d="M311.06,959.94c-.39-.42-.95-.32-1.44-.44a11.87,11.87,0,0,1-8.86-13.58c1-6,6.41-10.17,12.84-9.73a11.85,11.85,0,0,1,.72,23.5c-.22,0-.49,0-.62.25Zm1.36-3.32a8.66,8.66,0,1,0-8.35-8.64A8.42,8.42,0,0,0,312.42,956.62Z" transform="translate(-232.83 -864.5)"/><path class="cls-3" d="M232.85,952.75a5.91,5.91,0,0,0,.84,0c1.54-.2,2.46.07,3.11,1.86,1,2.83,5.56,3.18,7.44.79a3.47,3.47,0,0,0-1.42-5.47c-1.39-.6-2.86-1-4.29-1.51-3.65-1.3-5.09-3.33-4.72-6.64.34-3,2.77-5.3,6.16-5.75a7.15,7.15,0,0,1,7.88,5.48c.12.63,0,.92-.66.86a4.87,4.87,0,0,0-1.08,0c-1,.14-1.49-.15-1.89-1.2-.95-2.48-4.69-2.95-6.41-.92a3,3,0,0,0,1.33,4.79c1.55.64,3.16,1.11,4.72,1.73,3.19,1.26,4.61,3.18,4.56,6a7.17,7.17,0,0,1-4.92,6.7c-.35.13-.81,0-1.05.44h-3.84c-.19-.44-.65-.38-1-.53a7.47,7.47,0,0,1-4.26-4.08c-.14-.32-.12-.72-.5-.9Z" transform="translate(-232.83 -864.5)"/><path class="cls-2" d="M352.81,959.7c-.2,0-.4-.05-.6-.05-2.8,0-2.8,0-2.8-2.79,0-6.43,0-12.86,0-19.29,0-1,.29-1.34,1.27-1.22.71.09,1.43.06,2.15.09Z" transform="translate(-232.83 -864.5)"/><path class="cls-4" d="M232.85,954.43c.38.18.36.58.5.9a7.47,7.47,0,0,0,4.26,4.08c.35.15.81.09,1,.53-1.72,0-3.44,0-5.16,0-.52,0-.63-.1-.61-.62C232.88,957.7,232.85,956.06,232.85,954.43Z" transform="translate(-232.83 -864.5)"/><path class="cls-2" d="M274.81,917.77a13.8,13.8,0,0,1,3.29.47c9.54,1.09,16.2-2.4,20.74-10.88,1.71-3.21,3-6.6,4.55-9.89a28.09,28.09,0,0,1,4.18-6.82c3.74-4.27,8.56-5.24,13.93-4.58.78.1.66.75.75,1.19,2,9.17.42,17.65-5.3,25.15a29.72,29.72,0,0,1-41.29,6C275.41,918.22,275.17,918,274.81,917.77Z" transform="translate(-232.83 -864.5)"/><path class="cls-5" d="M263.73,890.85a24.24,24.24,0,0,0,7,6.3,47.55,47.55,0,0,0,7.95,3.29,29.14,29.14,0,0,1,2.77,1.12,7.51,7.51,0,0,1,4.16,9.16,8,8,0,0,1-8.94,5.24,11.61,11.61,0,0,1-7.52-4.5c-4.28-5.42-5.85-11.69-5.65-18.49,0-.6.08-1.2.13-1.8A2.93,2.93,0,0,1,263.73,890.85Z" transform="translate(-232.83 -864.5)"/><path class="cls-3" d="M261.63,953.05c-1.2,0-2.4,0-3.6,0a1,1,0,0,0-1.21.84c-.54,1.58-1.19,3.13-1.7,4.72a1.33,1.33,0,0,1-1.54,1.08c-2.46,0-2.46,0-1.58-2.32q3.63-9.57,7.24-19.13c.44-1.17,1-2.08,2.44-2.06s2,.94,2.4,2.11q3.82,10.18,7.72,20.34c.33.85.26,1.07-.69,1.06-2.49,0-2.49,0-3.38-2.36-.43-1.16-.88-2.31-1.26-3.49a1,1,0,0,0-1.13-.78C264.1,953.08,262.86,953.05,261.63,953.05Zm0-12.38c-1.15,3.16-2.17,6-3.21,8.8-.17.46,0,.56.41.56h5.62c.43,0,.56-.15.4-.59C263.83,946.64,262.8,943.82,261.65,940.67Z" transform="translate(-232.83 -864.5)"/><path class="cls-3" d="M343,936.41c.55.85.16,1.78.22,2.67-2.81,0-5.62,0-8.44,0-.39,0-.9-.23-1.14.33-.36.32-.22.75-.23,1.13,0,1.8,0,3.59,0,5.39,0,.82.17,1.1,1,1.08,2.6,0,5.2,0,7.79,0,.85,0,1.07.25,1.06,1.08,0,2.08,0,2.08-2.07,2.08-2.27,0-4.55,0-6.83,0-.81,0-1,.25-1,1,0,2.47,0,5,0,7.43,0,.79-.16,1.11-1,1.1-2.38,0-2.38,0-2.38-2.38q0-9.16,0-18.33c0-1.67.62-2.38,2.17-2.55.22.32.56.27.87.27h9.08C342.43,936.68,342.76,936.73,343,936.41Z" transform="translate(-232.83 -864.5)"/><path class="cls-2" d="M333.62,939.42c.24-.56.75-.33,1.14-.33,2.82,0,5.63,0,8.44,0l-.05.25a.28.28,0,0,0-.15.08C339.87,939.55,336.75,939.53,333.62,939.42Z" transform="translate(-232.83 -864.5)"/><path class="cls-2" d="M343,936.41c-.22.32-.55.27-.87.27H333c-.31,0-.65.05-.87-.27Z" transform="translate(-232.83 -864.5)"/><path class="cls-3" d="M343,939.41a.28.28,0,0,1,.15-.08C343.14,939.42,343.12,939.49,343,939.41Z" transform="translate(-232.83 -864.5)"/><path class="cls-4" d="M312.42,956.62a8.66,8.66,0,0,1,0-17.31,8.66,8.66,0,0,1,0,17.31Z" transform="translate(-232.83 -864.5)"/><path class="cls-4" d="M261.65,940.67c1.15,3.15,2.18,6,3.22,8.78.16.44,0,.59-.4.59h-5.62c-.41,0-.58-.1-.41-.56C259.48,946.65,260.5,943.83,261.65,940.67Z" transform="translate(-232.83 -864.5)"/></svg>