<?xml version="1.0" encoding="utf-8"?>
<!-- Generator: Adobe Illustrator 24.1.0, SVG Export Plug-In . SVG Version: 6.00 Build 0)  -->
<svg version="1.1" id="Layer_1" xmlns="http://www.w3.org/2000/svg" xmlns:xlink="http://www.w3.org/1999/xlink" x="0px" y="0px"
	 viewBox="0 0 180.5 180.5" style="enable-background:new 0 0 180.5 180.5;" xml:space="preserve">
<style type="text/css">
	.st0{fill:#FFFFFF;}
	.st1{fill:#D3AF7A;}
	.st2{fill:#4D5CA7;}
	.st3{fill:#4F5EA7;}
	.st4{fill:#FCFDFD;}
	.st5{fill:#BDBF03;}
	.st6{fill:#04538B;}
	.st7{fill:#CE0D14;}
	.st8{fill:#A0B13E;}
	.st9{fill:#06528E;}
	.st10{fill:#9D2126;}
	.st11{fill:#08538F;}
</style>
<rect class="st0" width="180.5" height="180.5"/>
<g id="Layer_2">
	<g>
		<path class="st8" d="M41.9,99.7c-1.2,3.7-1.5,7.5-1.6,11.3c-0.1,3.3,0,6.6,0,10.4c-1.7-2.2-3.9-3.6-3.8-6.3
			c0.3-6.4-0.7-12.5-4.2-18C26.6,87.9,18,83.6,7.2,83.3c0-1,0-2,0-3c0.5-0.7,1.2-0.7,2-0.7c8.3,0.3,15.3,3.4,21.3,9.1
			c1.1,1,1.5,0.9,1.9-0.4c0.2-0.8,0.9-1.4,0.7-2.3c1.1-0.9,1.4-2.2,1.9-3.4c0.7-1,1.3-2.1,2-3.1c1.1,0.7,2,1.6,2.7,2.6
			c-0.6,1.2-1.5,2.2-1.8,3.5c-0.9,1.1-1.6,2.3-1.8,3.8c-0.7,0.6-0.8,1.4-1.1,2.2c-0.3,0.7-0.9,1.4-0.4,2.2c1.1,1.7,2,3.5,3,5.4
			c0.6-1.7,1.1-3.3,1.6-4.8C40.5,96.1,41.3,97.9,41.9,99.7z"/>
		<path class="st9" d="M173.2,112c-2.4,3.1-5.6,4.1-9.5,3c-2.4-0.7-3.5-2.1-3.6-4.5c-0.1-3.5,0.7-5.1,3.2-6c1.6-0.6,3.2-1.1,4.8-1.7
			c1.4-0.5,1.8-1.4,1.7-2.8c-0.1-1.4-1.1-2-2.3-2.2c-2.2-0.4-2.9,0.1-4.2,2.1c-0.7,1-1.8,0.4-2.7,0.4c-0.9,0-0.5-0.9-0.5-1.4
			c0.1-1.7,1.2-2.8,2.7-3.4c2.4-0.9,4.8-0.9,7.3-0.1c1.4,0.4,2.1,1.7,3,2.7C173.2,102.7,173.2,107.4,173.2,112z M169.9,105.4
			c-1.4,0.5-2.7,1-4,1.4c-0.2,0.1-0.3,0.1-0.5,0.2c-1.7,0.7-2.3,1.9-1.9,3.5c0.4,1.5,1.3,2,3.7,1.9c1.8-0.1,2.6-0.8,2.7-2.5
			C170,108.5,169.9,107,169.9,105.4z"/>
		<path class="st10" d="M105.2,102.5c-1.5,0.5-3.1,1-4.7,1.6c-1,0.4-1.6,1.1-1.5,2.3c0,2.5,0,4.9,0,7.4c0,1-0.2,1.4-1.3,1.3
			c-0.5-0.1-1,0-1.5,0c-0.7,0.1-1-0.2-1-0.9c0-7.5,0-15.1,0-22.6c0-1.7,0.8-2.8,2.4-3.4c2.8-1.2,5.6-1.3,8.5-0.2
			c1.7,0.7,2.5,2,2.5,3.9c0,7.3,0,14.6,0,21.9c0,1.4-0.6,1.4-1.6,1.3c-0.9-0.1-1.9,0.3-1.8-1.3c0.1-3.2,0-6.4,0-9.6
			C105.4,103.6,105.5,103.1,105.2,102.5z M99,96.4c0,1.3,0,2.6,0,3.9c0,0.5,0,0.9,0.7,0.7c1.5-0.6,3.1-1.1,4.6-1.7
			c0.8-0.3,1.1-1.1,1.1-1.9c0-1.6,0-3.2,0-4.8c0-1.8-0.9-2.5-3-2.5c-2.3,0-3.2,0.7-3.3,2.5C98.9,93.9,99,95.1,99,96.4z"/>
		<path class="st9" d="M56.4,86.1c0.8,1,1.2,2.2,1.9,3.6c2.6-3.8,5.6-7,9.4-9.8c0.3,2.6,0.1,4.7-1.8,6.6c-7,7-10.7,15.5-10.5,25.4
			c0.1,3.1-1.7,4.2-3.9,5.8c0.1-6.3,0.2-12.4-1.8-18.3c-0.4-2-1.2-3.8-2.1-5.6c-0.6-1.4-1.3-2.8-2.2-4.1c0.4-1.5,1.2-2.7,2-3.9
			c0.7,1.1,1.5,2.3,2.2,3.4c0.7,1.4,1.4,2.9,2,4.3c0.6,1.7,1.2,3.4,1.8,5.1c1.9-2.9,2.8-5.9,0.5-9C54.7,88.4,55.5,87.2,56.4,86.1z"
			/>
		<path class="st11" d="M76.8,105.1c0,1.6,0,3.3,0,4.9c0,2.9-1.2,4.3-4,5c-2.1,0.5-4.1,0.5-6.2-0.3c-2.1-0.8-2.8-2.1-2.9-4.6
			c-0.1-2.4,0.3-4.5,2.9-5.5c1.7-0.6,3.4-1.2,5.1-1.8c1.3-0.4,1.9-1.3,1.8-2.6c-0.1-1.4-1-2-2.2-2.3c-2.1-0.5-3.1,0.1-4.2,2
			c-0.7,1.1-1.9,0.5-2.8,0.5c-0.8,0-0.5-0.8-0.5-1.3c0.1-1.5,0.8-2.7,2.2-3.4c2.7-1.3,5.4-1.3,8.1-0.2c1.9,0.8,2.6,2.4,2.7,4.3
			C76.9,101.6,76.8,103.4,76.8,105.1z M73.5,105.5c-1.6,0.6-3.1,1-4.6,1.6c-1.4,0.6-2.1,1.6-1.8,3.1c0.3,1.6,1.4,2.1,2.9,2.1
			c1.5,0,2.9,0,3.4-1.9C73.7,108.9,73.5,107.2,73.5,105.5z"/>
		<path class="st10" d="M47.7,93.8c0.9,1.8,1.7,3.7,2.1,5.6c-1.4,3.7-1.8,7.5-1.9,11.4c-0.1,2.6,0,5.3,0,7.9c0,1-2.7,2.7-3.5,2.3
			c-0.5-0.3-0.3-0.8-0.3-1.2c-0.1-3.8,0.2-7.7-0.2-11.5c-0.3-3-0.8-5.9-2-8.6c-0.6-1.9-1.4-3.7-2.5-5.3c-0.8-1.8-2-3.4-3.2-4.9
			c0.2-1.4,0.8-2.7,1.8-3.8c1.1,1.3,2.1,2.6,3.2,3.9c0.8,1.3,1.6,2.6,2.4,4c0.7,1.7,1.4,3.4,2.2,5.3C46.4,97,47,95.4,47.7,93.8z"/>
		<path class="st9" d="M39.8,82.2c-0.8-1-1.7-1.9-2.7-2.6c-5.9-5.6-13-8.9-20.9-10.4c-1.4-0.3-2.8-0.4-4.4-0.7
			c0.5-0.7,0.9-1.3,1.3-1.9c0.7-1.3,1.6-1.6,3.1-1.3c7.8,1.5,14.9,4.5,21.1,9.4c0.6,0.5,1.3,1,2,1.5c0.9,0.9,1.8,1.7,2.8,2.6
			c1,1.2,2.1,2.4,3.1,3.6c-0.6,1.2-1.3,2.4-2.1,3.5C41.9,84.6,41,83.2,39.8,82.2z"/>
		<path class="st11" d="M143.5,104.9c0-1.6,0-3.3,0-4.9c0-2.7,1.2-4.2,3.8-4.8c1.9-0.5,3.8-0.4,5.7,0.1c2,0.5,3.4,2.1,3.4,3.9
			c0,0.5,0.3,1.3-0.6,1.2c-0.9-0.1-2,0.7-2.6-0.6c-0.9-1.8-2.2-2.5-4.4-2c-1.8,0.4-2,1.7-2,3.3c0,2.8,0,5.6,0,8.4
			c0,1.5,0.5,2.6,2.1,2.8c2.4,0.4,3.7-0.1,4.2-1.8c0.5-1.7,1.8-0.8,2.7-0.8c1.1-0.1,0.6,1,0.6,1.5c0,1.7-1.1,2.8-2.6,3.4
			c-2.4,1-4.9,1-7.4,0.1c-1.9-0.7-2.9-2.1-2.9-4.2C143.6,108.7,143.6,106.8,143.5,104.9z"/>
		<path class="st9" d="M114.8,106.2c0-2.3,0-4.6,0-6.9c0-1-0.1-1.7-1.3-1.4c-1.2,0.2-1.2-0.5-1.2-1.4c0-0.9,0.1-1.5,1.2-1.3
			c1.1,0.2,1.2-0.3,1.2-1.3c0-5.3,1.4-6.6,6.8-6.6c0.6,0,1.7-0.6,1.6,0.5c-0.1,0.9,0,2.3-1.8,2.3c-3.1,0.1-3.9,1.3-3.4,4.4
			c0.2,1.2,1.1,0.6,1.7,0.6c1.2-0.1,1.6,0.2,1.6,1.5c0,1.1-0.4,1.4-1.4,1.2c-1.6-0.3-2,0.4-2,2c0.1,4.6,0,9.2,0.1,13.8
			c0,1.6-0.9,1.3-1.8,1.3c-1,0.1-1.6,0-1.6-1.3C114.9,111.2,114.8,108.7,114.8,106.2z"/>
		<path class="st10" d="M35,82.6c-0.5,1.2-0.8,2.5-1.9,3.4c-6.6-6.2-14.3-9.6-23.4-10.1c-1.1-0.1-1.3-0.3-0.9-1.3
			c1.2-3.1,0.7-2.6,3.5-2.3C21,73.3,28.6,76.8,35,82.6z"/>
		<path class="st11" d="M41.4,73.2c-6.9-5.8-14.7-9.7-23.6-11.4c1.3-2.3,3.6-3.2,6-2.4c7.5,2.3,14.1,5.9,20.1,11
			C43.2,71.4,42.3,72.3,41.4,73.2z"/>
		<path class="st10" d="M51.8,93.5c-0.7-1.4-1.4-2.9-2-4.3c0.7-1.2,1.4-2.4,2.2-3.6c0.8-1.1,1.6-2.2,2.4-3.3
			c3.1-3.5,6.4-6.8,10.2-9.4c1.2-0.8,1.7-1,2.2,0.6c0.4,1.5,0.4,2.3-1,3.3c-3.6,2.5-6.8,5.6-9.2,9.2c-1,1.1-1.8,2.3-2.4,3.6
			C53,90.8,52.7,92.3,51.8,93.5z"/>
		<path class="st9" d="M83.8,101.3c0,4.2-0.1,8.3,0,12.5c0,1.5-0.8,1.2-1.7,1.2c-0.8,0-1.7,0.4-1.7-1.1c0.1-8.4,0.1-16.8,0-25.2
			c0-1.7,1.1-1,1.9-1.1c0.9-0.1,1.5,0,1.5,1.2C83.7,92.9,83.8,97.1,83.8,101.3z"/>
		<path class="st9" d="M91.7,101.1c0,4.2-0.1,8.3,0,12.5c0,1.5-0.7,1.4-1.7,1.4c-1,0-1.7,0.1-1.7-1.4c0.1-8.3,0.1-16.6,0-24.9
			c0-1.6,0.9-1.2,1.8-1.3c0.9,0,1.6-0.1,1.6,1.3C91.7,92.9,91.7,97,91.7,101.1z"/>
		<path class="st11" d="M125.3,106.6c0-2.3,0-4.5,0-6.8c0-2.6,1.3-4.2,3.9-4.7c1.1-0.2,2.2-0.2,3.3-0.3c0.4,0,1.4-0.4,1.3,0.5
			c-0.1,0.8,0.1,2.1-1.2,2.4c-0.4,0.1-0.9,0-1.3,0.1c-1.9,0.2-2.7,0.9-2.7,2.8c0,4.3-0.1,8.7,0,13c0,1.5-0.8,1.3-1.7,1.4
			c-0.9,0-1.7,0.1-1.6-1.3C125.4,111.3,125.3,109,125.3,106.6z"/>
		<path class="st11" d="M136.6,105.1c0-2.9,0.1-5.8,0-8.7c-0.1-1.4,0.8-1.2,1.6-1.1c0.8,0,1.7-0.4,1.7,1.2c-0.1,5.8-0.1,11.7,0,17.5
			c0,1.6-1,1.1-1.7,1.1c-0.8,0-1.6,0.2-1.6-1.2C136.7,110.9,136.6,108,136.6,105.1z"/>
		<path class="st8" d="M49.8,76.1c3.2-3.6,6.8-6.9,10.8-9.6c0.4-0.3,0.9-1,1.5-0.4c0.7,0.7,1.5,1.4,1.9,2.4c0.1,0.3-0.4,0.5-0.6,0.7
			c-4.2,2.7-7.8,6.2-11.2,9.9C51.4,78.1,50.6,77.1,49.8,76.1z"/>
		<path class="st8" d="M41.4,73.2c1-0.9,1.8-1.8,2.5-2.9c0.5-0.5,1-1,1.5-1.5c0.9-0.8,2-1.2,3.2-0.9c0.7,0.1,1.5,0.4,1.8,1
			c0.2,0.6-0.6,0.9-1,1.3c-0.8,0.9-1.7,1.8-2.6,2.8c-1,0.8-1.9,1.7-2.5,2.9c-1,0.7-1.5,1.9-2.3,2.8c-0.9-0.9-1.8-1.7-2.8-2.6
			C39.9,75.1,40.6,74.1,41.4,73.2z"/>
		<path class="st9" d="M44.3,75.9c0.6-1.2,1.5-2.1,2.5-2.9c1,1,2,2.1,3,3.1c0.8,1,1.6,2,2.4,3c0.7,1.1,1.4,2.2,2.1,3.2
			c-0.8,1.1-1.6,2.2-2.4,3.3c-0.7-1.1-1.5-2.2-2.2-3.3c-0.7-1.1-1.4-2.2-2.4-3.1C46.5,78,45.4,77,44.3,75.9z"/>
		<path class="st11" d="M136.6,89.1c-0.3-1.2,0.2-1.6,1.6-1.7c2.1-0.2,1.5,1.2,1.7,2.3c0.2,1.4-0.4,1.7-1.7,1.7
			C136.2,91.6,136.7,90.3,136.6,89.1z"/>
		<path class="st8" d="M41.2,89.6c0.6-1.3,1.2-2.5,1.8-3.8c0.8-1.1,1.5-2.2,2.1-3.5c0.7-1,1.5-2,2.2-3c1,0.9,1.7,2,2.4,3.1
			c-0.7,1.2-1.4,2.3-2.1,3.5c-0.8,1.2-1.7,2.4-2,3.9c-0.9,1.1-1.1,2.7-1.9,3.8C42.8,92.3,42,90.9,41.2,89.6z"/>
	</g>
</g>
</svg>
