<svg xmlns="http://www.w3.org/2000/svg" viewBox="0 0 1807.95 1218.68"><defs><style>.cls-1{fill:#df163d;}.cls-2{fill:#221e1f;}.cls-3{fill:#fefefe;}</style></defs><g id="Layer_2" data-name="Layer 2"><g id="Layer_1-2" data-name="Layer 1"><path class="cls-1" d="M506.11,122.68c-4.7,1.8-6.9-2.6-9.6-4.6-4.2-3-7.8-6.6-12.1-9.7s-8.6-5.7-12.8-8.7c-5.2-3.6-10.2-8.6-17.5-8-.8.1-1.7-.2-2.5-.1-9.7,1.1-18.8-2.7-27.9-4.7a34,34,0,0,1-18.6-11.8c-2.7-3.4-5.3-8.2-4.9-13.6.4-4.6-1.4-10.4.8-13.7,2.8-4.4,1.4-8.5,2.4-12.6a24.87,24.87,0,0,0,.2-5.5c-.2-3.9-1.2-6.7-4.2-10.3-5.7-6.7-12.2-6.3-19.3-6.6-8.5-.3-17.6-1-25.3,1.6-6.5,2.2-14.2-.1-19.7,5.4a1,1,0,0,1-.9.3c-6.1-1.1-10.8,4.2-16.7,3.9-4.2-.2-7.1,2.8-10.5,4.4-5.6,2.7-10.7,6.9-17.3,6.4-3.5-.2-4,3.2-6.6,4.3a82.61,82.61,0,0,0-15.4,8.4c-3.2,2.1-7,5.4-11.5,5.2-3.2-.1-5.1,2.1-7.4,3.5-6.4,4-14,5.1-20.6,8-12.9,5.9-25.9,6.5-39.4,5.2a59.9,59.9,0,0,0-17.9.9c-5.6,1.1-11.8,6.7-12.9,12.4-.5,2.5-2.4,3.7-3.7,5.6-4.1,6-6.8,12.7-10.4,18.9-3.8,6.5-4.9,13.9-7.8,20.6-2,4.8-1.4,10.1-3.5,14.2-3.2,6-2.4,12.7-5.2,18.5-.9,2-.9,4.5-1.4,6.7a69.53,69.53,0,0,1-7.8,20.6c-2.1,3.6-4.6,7-6.3,10.7a11.15,11.15,0,0,1-5.4,5.2c-4.4,1.8-8.4,4.9-13.3,5.3a16.32,16.32,0,0,0-12.9,7.4c-1.9,3-4.9,3.5-7.1,5.2-4.4,3.2-3.7,9-7.6,12.2s-4.2,9.3-9.6,11.3a1.13,1.13,0,0,0-.5.8c.5,5.1-2,9.3-4.1,13.7-3.2,6.8-4.2,14.3-5.7,21.5-2,9.3-4,19.3,1.6,28.4a6.64,6.64,0,0,1,.3,1.5c4.3,14.5,5.9,29.4,3.5,44.2-1.6,9.7-2.9,19.4-5.5,29-1.8,6.5-2.9,14.2,1.6,21.1,1.6,2.4,1.8,5.5,3.1,8.3a66,66,0,0,0,9,14.2c2.7,3.2,5.4,7,9.6,9.4,3,1.7,5.4,4.9,7.3,7.9,2.4,4,4.6,8,9.5,9.2,2.7.7,1.2,3.8,3.4,5,4.1,2.2,7.4,5.7,10.7,9.1,4.1,4.3,8,9,12.9,12,5.2,3.1,8.8,8.5,15,9.7,1.7.3,2.4,1.6,3.7,2.4,8.8,5.4,18.2,8.8,28.8,8.5,9.5-.3,19,.2,28.5.1,8.6-.1,16.3-3.5,24.2-6.3,4.9-1.7,8.9-5.9,14.7-5.1,2.8.4,4.1-2.3,6-3.7,5.6-3.9,12.9-4.4,17.9-9.5,1.6-1.6,5.1-1.9,7.6-2.6,5.6-1.5,10.6-4.4,16.3-5.6,7.6-1.7,15-3.8,22.9-3.1a31.68,31.68,0,0,1,20.1,9.3c1.9,1.9,3.7,4.5,6.8,5.4,3.9,1.1,4.3,5.7,7.4,8,6.1,4.6,12.3,9.1,17.6,14.6,5.8,6,17.2,7.2,24.9,2.7.3-.2.6-.5.8-.5,8.3-.1,16-6,24.4-3.4,7.9,2.4,15.4,5.2,21.3,12.2,2.6,3.2,3.4,9.2,9.3,9.4.1,4,3.3,6.7,4.5,10.3,1.9,6,3.1,12.4,6.5,17.9a1.69,1.69,0,0,1,.3,1c-.8,8.1,3.9,15.2,3.9,23.1.1,21.8-1,43.7.7,65.5,1,12.6,1.9,25.4,4.1,37.8.6,3.4,1.5,7.9,4.6,11,.8.8,1.1,2.4,1.3,3.7a53.56,53.56,0,0,0,11.8,26.6,7.45,7.45,0,0,1,2,4.5c.5,5.8,3.1,10.7,7,15a3,3,0,0,1,.4,1.9c.1,5.9,4,10.1,6.6,14.9,1.5,2.7,2.1,5.9,3.3,8.7,1.5,3.5,2.9,8.1,4.7,11,3.8,6.1.9,13.6,5.7,19,.4.5.2,1.6.2,2.4.4,9.5,1.1,19,.1,28.5a41.24,41.24,0,0,1-5.5,17.4c-1.7,2.9-2.5,6.7-3.3,9.9-2.2,8.1-6.6,15.2-9.2,23.2-1.5,4.6-1.3,9.6-3.3,13.7-4.6,9.7-3.6,19.8-2.2,29.4,1,6.9,1.3,14.3,3.6,20.8,1.4,3.9,1.1,8.1,2.7,11.3,4.8,9.3,2.1,19.5,4.4,29,4,16.4,1.3,33.2,3.7,49.4,1.4,9.5,1.3,19.1,3.5,28.3,1,4.3,1.7,9.3,5,13.1,1,1.2.7,3.5.8,5.3.1,7.2,4.1,13.2,6,19.7,1.5,5.3,4.1,10.2,5.2,15.6,1.1,5.2,4.8,9.9,6.1,15.2a78.09,78.09,0,0,0,4.5,12c3,7,5.7,14,9.4,20.7,1.8,3.2,4.9,6.4,5,10.6a2.1,2.1,0,0,0,1.8,2.4c2.5.7,4,3.1,4.8,5.3,2.4,6.4,6.6,10.6,12.9,12.7,1.8.6,1.8,2.4,3.3,3.3,9.6,5.7,19.9,6.7,30.8,7.1,8.1.3,16-1.7,22.8-4.2,8.8-3.3,18.1-7.4,25.6-13.8a177.43,177.43,0,0,0,17.8-16.8c4.7-5.3,9.3-10.7,14-15.9,1.6-1.8,2.5-4.6,3.5-6.7,4.2-8.5,11.6-14.6,15.7-23.3a233.55,233.55,0,0,1,11.1-21c3.2-5.4,5.9-11.1,9.1-16.4,2.6-4.5,4.7-9.5,7.9-13.6,3-3.8,5.3-8,9-11.6,4.5-4.4,9-9.2,13.4-13.9,3.5-3.8,8.5-5.5,12-9.3,2.3-2.5,5-4.8,7.2-7.4a8.51,8.51,0,0,0,1.8-6.9,13.5,13.5,0,0,1-.6-3.4c.9-7.3-2.5-14.1-4.8-20.3-4.1-10.8-1.6-21.3-2.4-31.9,4.3-3.8,2.8-9.7,5.6-14.5,3.9-6.5,9-11.2,14.1-16.2,2.1-2.1,2.1-6.3,5.6-7.7.6-.2,1-1.1,1.5-1.1,8.3.3,13-7.9,20.9-8.6,1.6-4.4,7.7-2,9.3-6.3a1.49,1.49,0,0,1,.9-.4c6.2,2.3,6.5-4.6,9.9-6.3a36.87,36.87,0,0,0,10.3-8.5c3-3.2,5.4-7,8.5-10,1.8-1.7,2.1-3.6,2.6-5.6.2-.7.6-1.2,1.3-1.2s1,.7,1.2,1.4c.8,2.7-3.6,13.1-5.3,15.4-4.1,5.4-10,8.7-14.7,13.4-3.4,3.4-7.9,6.8-12.4,7.8-5.7,1.2-9.2,5.3-12.5,8.4-3.9,3.7-8.7,5.8-12.4,9.6-6.3,6.5-12.3,12.9-17.5,20.4-2.8,4.1-3,7.6-3.1,11.6-.2,9.5-1,19.2.6,28.4,1.1,6.3,2,13.2,5.2,19.1,3.6,6.6,0,17.5-6.1,21.4-9,5.8-19.3,10.3-24.8,20-3.3,5.8-8,10.4-10.9,16.6-2,4.4-5.3,8.7-8.6,12.7-2,2.5-2.8,6-4.4,8.9-1.9,3.4-4.1,6.5-6.2,9.8s-2.4,7.3-4.9,10.5c-4.2,5.2-5.1,12.4-10.1,17.2-.6.6-.5,1.9-.6,2.8-.9,7.8-5,14.2-9.1,20.7-3.3,5.3-7.9,10.1-8.8,16.6-.3,2.4-2.9,4-3.7,4.4-3.4,1.8-3.5,4.8-4.4,7.7-1,3.2-4.3,4.2-6.5,6.2-4.8,4.2-10,8.9-15.9,10.7-5,1.5-9.4,4.7-15,5.2-5.2.5-10.1,3.7-15.1,5.7-.6.2-1.1.8-1.7.9-9.2,1.5-18.3,3.9-27.7,5.1a175.24,175.24,0,0,1-22.9,1.8c-5.3,0-17.5-4.2-23.9-5.9-4.3-1.1-7.6-3.2-11.4-5.1-6.8-3.5-10.7-9.3-13.9-15.7a80.67,80.67,0,0,1-6.3-16.8c-.7-2.6-1.7-7.1-4.9-9.3a1.8,1.8,0,0,1-.9-1.6c-.4-6.7-3.7-12.3-6.7-18.1a3.64,3.64,0,0,1-.2-1.5c.9-8.2-3.8-15.2-5.2-23-1.4-7.5-4.8-14.5-6.7-22.1a179.76,179.76,0,0,0-6.9-21.9c-1.9-4.9-1.4-10.2-3.5-14.5-3.5-7.1-1.4-15.2-4.2-21.7-2.2-5.1-.9-11.3-5.3-15.7-1-1-.6-3.5-.5-5.3.2-6.2-2.6-11.2-5.6-16.2-2.2-3.7-2.1-8.3-5-11.9a41.06,41.06,0,0,1-6.1-12.2c-2.1-6.8-8.2-11.3-8.8-18.8-.4-5.7-5.6-9.6-7.9-14.7-2.1-4.5-4.1-9.1-6.2-13.5-5.7-11.4-2.8-23.2-3.5-34.9-.5-7.4,4.3-13.1,5.8-19.8,1-4.7,4.1-8.5,6.2-12.6,3-6,6.3-12,11.5-16.7a18.4,18.4,0,0,0,4.4-6.3c2.9-7,5.3-14,4.8-21.9-.5-8.3.5-16.9-1.2-24.9-1-4.5-3.1-9.5-4.8-14.1-2-5.3-6.5-9.4-7.3-15-.6-3.9-3.5-6.4-5.1-9.6a146.26,146.26,0,0,0-16.7-26.8c-3.2-4-4.6-9.6-8.1-13.7-2.8-3.4-6.2-6.5-8.2-10.3s-5.2-6.6-6-11c-.5-3-2.8-5.1-4.2-7.7-3.2-6.2-4.5-13-7.1-19.3a35.86,35.86,0,0,1-2.5-17,63.08,63.08,0,0,1,6.2-23.7.75.75,0,0,0,.1-.5c.1-13.6,7.3-26.3,4.9-40.3-1.4-8.5-9.2-17.1-17.8-18.7-4-.7-7.5-3.1-11.4-4.3a62.37,62.37,0,0,0-10.4-2.3c-6.5-1-12.3-4.2-18.4-6.4-5.7-2.1-6.4-7.7-10.6-10-4.5-2.4-5.9-6.4-8.4-10.3-1.7-2.8-7.1-5.2-11.8-5.5-7.1-.4-14.3-.8-21.3.9-.4.1-5.3,4.9-5.8,5-2.9.5-5.1,2.7-7.5,3.5a49.49,49.49,0,0,0-14.5,8.5c-5.2,4.2-12.3,4.7-16.6,9.8-.1.1-.3.1-.5.2-7.8.7-15.4,6.7-23,3.3-5.5-2.5-12-.9-16.8-5.2a5.26,5.26,0,0,0-2.8-1c-13.8-1.2-28-2.7-41.2.8a82.88,82.88,0,0,1-29.6,2.1,36.39,36.39,0,0,1-21-9.3c-5.1-4.6-9.7-9.8-14.7-14.4-3.9-3.6-6.1-8.2-9.6-11.9a122,122,0,0,1-9.1-10.1c-3-4-8.4-6.6-8.7-12.4-.1-2.5-2.8-2.5-4.2-3.9-8.2-9.1-14.8-19.4-22.2-29-2.2-2.8-5.3-5.7-5.4-9.9-.1-2.3-2.6-2.2-3.7-4a100.23,100.23,0,0,0-12-17.2c-2.8-3.1-2-7.8-5.3-11.1a28.54,28.54,0,0,1-5.2-6.2c-.6-1.1-3.1-2.7-.4-4.4,1-.6-.2,0-.1-.2-1.6-.2-1.4-1.6-1.6-2.7-1.7-10.8-2.2-21.7.4-32.3,1.6-6.4,5.2-12.4,8.4-18.3,3.3-6.1,5.8-12.2,5.6-19.4-.3-11,1.4-22.3-1.3-32.9-2.4-9.4-2.7-18.6-2.4-28,.3-7.7,3.7-14.9,4.4-22.8.2-2.9,1.1-7.2,2.8-9.8,5-7.4,3.6-17.1,10-24.1,3.8-4.2,4.5-11,8.1-15.4a89.51,89.51,0,0,0,9.3-13.4c2.5-4.5,7.8-6.3,9.2-11.7.5-2.1,4.3-4.3,6.9-4.9,9-1.9,16.2-7.3,24-11.3,4.4-2.3,7.5-6.4,12.3-8.2,2.5-.9,3.3-4.7,4.5-6.9,1.7-3,3.3-6.7,4.9-9.7,2.7-5,2.2-10.8,5.1-15.6a6.59,6.59,0,0,0,1-3.8c-.4-6.7,2.9-12.6,4.9-18.4,2.9-8.1,4.7-17.6,11.7-23.5,4.7-3.9,5.9-10.5,11.6-13.2a2,2,0,0,0,1-1c2.4-8,10.4-11.5,14.8-18,2.3-3.5,7-6.2,12.4-6.4,13.3-.5,26.9-.9,39.9,1.2,7.5,1.2,14.8,3,22.2,2.1,6.2-.8,12.6-2.1,18.4-4.9,1.3-.6,2.9-.6,4.3-1.1,2-.7,4.9.3,5.8-2.9.1-.4,1.2-.8,1.7-.7,6.5,2.3,10.8-2.8,16-4.7,6.5-2.3,13.1-4.7,19.3-7.6,4.8-2.3,9.5-4.7,14.5-6.8,6.7-2.8,13.8-4.1,20.5-6.9,8.4-3.6,17.5-4.6,26.1-7.3,8.4-2.6,16.3-2.5,24.3-1.6a122.41,122.41,0,0,1,16.9,3.1c3.5.9,6.4,4.6,9.2,7.4a12.66,12.66,0,0,1,3.9,10.3c-.3,5.5,1.3,11.6-.6,16.3-2.6,6.7-2.8,13.4-3.2,20.2-.2,3.3.1,6.7.1,10s2.1,5.2,4.3,6.9c3.8,3,7.5,6.2,12.8,6a74.31,74.31,0,0,1,12.5.4c7.3,1.1,14.2,4.1,21.7,3.9,2.3,0,1.2,3.1,3.9,4s5.3,2.4,8.2,3a3.62,3.62,0,0,1,2.9,1.7c2.9,6,8.6,8.8,13.7,12.5,3.7,2.7,6.4,6.5,11.4,7.3.5.1.7,2,1.1,3.1-1,.3-2.6-.4-2.7,1.3s1.5,1.2,2.5,1.5c2,.6,3-.5,3.6-2.3.7.3,1.4.6,1.4,1.6C508.31,120.58,506,121.08,506.11,122.68Z"/><path class="cls-2" d="M1019,269.78c1.2,1.3,2.3,2.6,3.5,3.9-.4,3.3,3.4,3.6,4.4,6.1.4.9,2.4,0,1.9-1.9.4-.6.9-1.2,1.3-1.8,3.3-2.3,6.5-4.6,5.6-9.4a19.2,19.2,0,0,0,1.4-1.5c2.2.6.9-1.8,1.8-2.3,2.6-5.3,8.7-6.8,12.3-11.1.2-.3,1.2.1,1.8.2.1,0,.2.2.3.3-1-.8.2-.9.4-1.2,3.5-5.7,9.6-6,15.2-7.2,4.9,0,4.9,0,4.8-3,1.6-.2,3.3-.3,4.9-.5,2.3-.5,5.1,1.2,6.8-1.7,1.6-2.2,4-1,6-1.3,11.4-1.7,22.2,2.8,33.3,3.5-.5,2.8.2,3.8,3,2.2,5.6.8,10.6,3.3,15.7,5.4,0,.6-.2,1.6.1,1.8a115.32,115.32,0,0,1,13.3,8.5c6.7,2.5,9,9.7,14.3,13.7,4.2,3.1,5.7,8.6,9.9,12,1.8,1.4,2.1,5.1,2.8,7.4,1.6,5,5.4,9.4,5.1,15,.1,2.2.1,4.5.2,6.8,0,2,.9,2.6,2.8,1.8.4,5,.9,9.9,1.3,14.9,0,1.7-.2,3.5-.1,5.2s1.1,1.8,2.3.7c.1,8.5.4,17,.4,25.5q.15,73.2.1,146.3c0,6.4,0,6.4-6.5,6.4-5.3,0-10.7-.5-16,0-6.4.6-11.4-2.9-17-4.6-1.1-3-3.8-3.7-6.5-4.3a20.4,20.4,0,0,1-7.5-10.3c.7-2.8-3.3-2.6-3.2-5-5-12.9-3.5-26.4-3.6-39.7-.3-36.1.9-72.3-.7-108.3-.4-8.5-3.8-16.7-9-24.3-2.6-3.8-5.7-7.4-8.4-11.2-1.9-2.7-6.1-4-8.9-5.9-8.3-5.6-17-3.2-25.4-2.8-8.6.3-15.6,5.1-20.1,12.8-2.5,4.2-5.2,8.4-7.4,12.7-2.3,4.5-1.8,9.7-2.2,14.6-.1,1,.1,2-.8,2.8-3.4-.1-1.8,2.6-1.8,3.8-.1,56,0,112,0,167.9-1,2.5-3.5,1.7-5.1,1.7-7,.1-14.1.5-21.1-.4-.1-4.4-3.6-1.6-5.3-2.5-1.7-.5-3.7.1-5.1-1.4.6-2.2-.5-2.5-2.3-2.3-4.7-2.3-10.2-3.6-11.4-10-.3-1.9-2.4-2.3-3.4-3.8-2.3-3.3-3-6.6-3.4-10.3a164.75,164.75,0,0,1-1-19.9c0-33.6.2-67.2-.1-100.7-.1-10.5-3.2-20.9-3.4-31.5-.1-2.6-2.3-6-3.8-8.7A79.12,79.12,0,0,1,982,315c1.1-2.2,0-2.5-1.9-2.1-.5-.8-1-1.7-1.5-2.5.4-1.5,0-2-1.5-1.6-.6-.4-1.1-.9-1.7-1.3.6-2.5-.5-3-2.7-2.3-9.7-8.4-21.4-8.8-33-7-5,.8-10.7,2.5-14.2,7.3-2.6-1-3.6-.3-2.7,2.5-4.8,4.4-7.7,10.7-9.4,16.3-3.5,10.9-5.8,22.1-5.7,34.1.6,50.4.2,100.9.3,151.3,0,4-1.3,5.1-5,5-5.8-.2-11.7-.7-17.5-.1s-10.4-2.8-15.3-4.5c-2.9-1-6-5.6-9-8.3-4.1-3.8-5.2-9.2-9.2-12.6a2.11,2.11,0,0,1-.5-1.3c.3-8.2-4-15.4-3.9-23.8.5-35,.2-69.9.2-104.9,0-3.2.2-6.3.4-9.4,2,1.5,2.1,0,2.2-1.4.2-6.2.4-12.4.6-18.7.1-1.3.3-2.6.4-3.9,2.6.8,2.6-1.1,2.7-2.7.2-3.3.3-6.5.5-9.8.2-1.9.4-3.8.5-5.7.6.7,1.8,1.1,1.9.1.2-2.1,2-3.9,1.1-6.1.1-1.5-.2-3.1,1.1-4.3,2.4.8,2.3-.7,2.1-2.3,1.2-7.2,6.3-12.3,10.2-17.9a9.81,9.81,0,0,0,2-4.1c.1-.9.5-2.4,1.1-2.6,4.8-1.4,7-5.9,10.1-9,3.4-3.3,7.4-5.6,10.9-8.7,5.4-4.6,12.2-6.2,18.6-8.7,6.6-2.6,13-3,19.6-3.6a2.49,2.49,0,0,0,2.7-.5c.4-1.6,1.7-1.9,3.1-2,8.9-.4,17.9-.8,26.8.2-1.3,1.3-.7,2,.8,2.2,2.5.4,5,1.3,7.5.3,1.6.1,3.2-.2,4.7.8-.2,5.3,3.8,2,5.8,2.9,4.8.3,8.3,3.4,12,5.9,1.8,1.3,4,1.6,5.7,3.4,2.4,2.4,5.4,4.2,8.2,6.3-.6,2.4.5,2.9,2.5,2.3a2.18,2.18,0,0,1,1,2.1C1014.91,267.08,1017.51,268.08,1019,269.78Z"/><path class="cls-2" d="M1416.71,341.88c.1-1.7.3-3.5.4-5.2,1,.3,2.5.3,2.3-.8-.9-7.4,5.5-13.1,4.5-20.5,1.1-7.2,4.6-13.4,8.2-19.5,2.3-3.9,6.1-6.6,6.8-11.8.4-3,4.2-5.8,7.3-7.9,3.4.1,3.8-3.5,5.3-5.2,1.2-1.4,5.2-1,4-4.4,4.4-5.1,10.4-8.3,15.8-12.1,2.1-1.5,3.8-3.8,6.8-3.4,1.8.4,3.1.2,1.9-2.2,1.5-.7,2.9-1.4,4.4-2.1.5,1.2,1.3,1.3,2.5.6-.9-.3-1.6-.5-2.4-.8.2-.2.4-.7.7-.7,5.9-.8,11-3.9,16.7-5.3a117.38,117.38,0,0,1,34.4-3c1.7.1,3.7-.8,4.9,1.3,1.1,2.9,3.5,1.1,5.3,1.3,7.3-.6,13,5.3,20.3,4.8-1.4,2.5.2,2.4,1.9,2.2,1.7.5,3.5,1,5.2,1.6-.6.6-.9,1.3-.2,2s1.4.4,2-.2a23.89,23.89,0,0,1,9.2,6.4c1.9,2.2,6.8.6,6.3,5.3.1,4,3.4,3.1,5.7,3.6l1.5,3.9c-.3,3,3.8,3.2,3.8,6,2.9-.2,4.3,2.1,5.3,4.1,2,3.6,3.5,7.5,5.2,11.3-.8,2.1-.4,3.3,2.2,2.6,1.3,1.5.8,3.4,1.3,5.1.7,1.7-1.7,4.9,2.5,4.8.3,1.7.5,3.3.7,5a36.48,36.48,0,0,0,.1,4.7c.2,2,1.3,2.4,2.9,1a416.53,416.53,0,0,1,.4,51.2c-.1,3.1-2.7,3.7-3.9,5.5a58.22,58.22,0,0,0-4.7,8.8c-2.8,7-10.7,6.5-14.3,11.7-.6.8-.8,2.3-2.3,2.3a5.47,5.47,0,0,0-5.5,1.2,6.57,6.57,0,0,1-4.9,2.5c-5.7.3-10.4,4.2-16.1,5-.7.1-1,.8-.3,1.4-4.2.4-8.3.9-12.5,1.3-3-1.2-6.1-.3-9.2-.4-1.7-.1-2.5.8-1.2,2.4-17.6,1-35.2.8-52.9.8-4.8,0-9.6-.1-14.5.1-2.1.1-5.2-1.7-6.3,1s-.3,5.6,1.1,8.5c2.6,5.3,5.9,10.4,6.5,16.5,1.6,2.4,2.1,5.8,5.7,6.4,1.3,1.3,2.5,2.6,3.8,3.9-.8,2.6.3,3.1,2.6,2.3.9,2.2,2.3,3.8,4.8,4.2-.9,2.7-.1,3.7,2.7,2.4,4.1,2.4,9,3.2,12.6,6.6.3.3.9.3,1.4.4,12.3,2.8,24.9,6.2,37.1,3.3,7.1-1.7,14.6-.5,20.9-3.1,7.1-2.9,14.9-3.6,21.6-8.7,3.7-2.8,7.9-6.1,12.3-8.4,1.5-.8,2.7-2.3,4-3.5.7-.7.8-2.5,2.4-1.6a3.23,3.23,0,0,1,1.9,2.8c-.1,10.6,1.8,21.7-.9,31.8-2.1,8.1-4.6,17-10.5,23.5a73.73,73.73,0,0,1-25.3,17.7c-2.6,1.1-6.5-.4-8.8,1.1-7.5,4.6-15.7,2.9-23.6,3.7-9.8,0-19.7,0-29.5-.1-11.2.4-21.4-3.1-31.3-7.8-.6-2.4-.9-2.6-4.6-3.1a13.52,13.52,0,0,1-11.3-6.4c-2.1-1-2.6-4.4-5.7-3.9-4.7-3.7-10.3-7.2-14.1-11.2-4.5-4.7-11.3-9-12.3-16.6-.3-2.3-2.5-1.3-3.7-3-2.8-4.3-2.9-10.4-8.2-13.1-.3-.1-.7-.4-.7-.6.5-6.5-5.5-11.1-5.3-17.4.1-5.2-3.5-9.1-4.3-14.2-.4-2.7-2.2-5.7-2.3-8.8-1-18.8-.8-37.6-.2-56.4a10.1,10.1,0,0,1,.7-2.3c1,.6,1.7.1,1.7-.8C1415.81,349.38,1417.21,345.68,1416.71,341.88ZM1490,309c-1.5-.4-1.9.2-1.5,1.6-3.1,5.4-7,10.3-8.7,16.4-1.9-.4-2.9-.1-1.8,2.1-.4,3.4-3.3,5.9-3.5,9.4-.3,5.7-.5,11.3-.8,17-.3,4.2,1,6.2,5.8,5.8,15.8-1.4,31.7.9,47.7-1.9,10-1.7,20.1-3.6,30.1-5.3,4.2-.7,12-8.3,11.8-13.7-.2-6.5.4-12.7-2.4-19.3-1.8-4.2-3.3-8.6-5.6-12.8-2.9-5.4-8.5-6.8-13.1-9.5-4.8-2.9-10.1-5.2-16.2-4.5-3.9.5-8,0-12,.1-7.6.1-14.6,2.1-19.8,7.9-1.4,1.5-3,2.1-4.6,3.1-2.3-.8-4.3-1.1-3.5,2.5A18.58,18.58,0,0,1,1490,309Z"/><path class="cls-2" d="M791.91,468c-1.9,4.4-5.3,8.4-6.8,12.5-2.2,6.1-7.2,9.2-10.5,13.9-2.8,4-7.3,6.3-10.9,9.6-4.8,4.3-11.2,5.3-16.7,8.2-3.6,1.9-7.9,1.2-10.6,3-8.7,5.8-18.1,2.7-27.1,3.3-9.4.6-19.1,1-28.4-.5a168.25,168.25,0,0,1-21.7-5.5c-6.8-2.2-12-7.8-19.1-8.8-2.5-.3-1.8-2.4-2.7-3.5-4.5-5-11.4-7.5-15-13.1-3.4-5.4-9.6-9.6-9.3-17.1a35.75,35.75,0,0,1-4.2-12.8c-.2-1.4.6-3.8-2.4-2.4-1.2-14.6-1.7-29.3.2-43.8.9-6.9,5.2-13.6,9-19.7,1.8-2.8,1.4-7,5.1-8.6,2.5.7,3.7.3,2.4-2.5a19.2,19.2,0,0,0,1.4-1.5q5.4,0,5.7-5.4c3.3-.2,4.8-3.3,7-4.9,5-3.7,11.1-5,16.1-8.9a25.11,25.11,0,0,1,17.8-5.1c1.1,0,2.9,1.1,2.6-1.5,7.9-2.2,15.8-4.8,24.1-4.8,12.8,0,25.6-.2,38.5-.2,7.7,0,8.6-.1,7.5-7.3-1.8-11.4-2.6-23.3-10.4-32.8.2-4.3-2.7-2.4-4.6-2.2-2-4.3-6.3-6-10-7.1-11.9-3.7-24.4-5.2-36.5-3-7.8,1.4-15.7,1.5-23.3,3.7-11.4,3.2-21.3,9.4-30,17.4-3.2,3-8,4.4-9.7,9.2-.2.5-2.8.4-4.3.3s-1.6-1.5-1.6-2.6c.1-9.5-1.6-19.3.8-28.3,2-7.7,4.4-15.5,9.1-22.6,3.2-4.8,6.2-9.9,11.2-12,5.3-2.2,6.7-8.1,11.7-10,.6-.2,1.1-.6,1.8-.8,6.4-1.7,11.8-6.5,19-5.3,2.8-.6,6.9,1.8,7.9-3.3a324.89,324.89,0,0,1,55.8.5c3.3.3,6.9,2.5,10.2,4,2.2,1,4.2,2.3,6.7,2.4,3.4.1,5.9,2,8.3,4.2,0,2.8,3.6,5.6,8.3,6.3a91.34,91.34,0,0,1,16.9,19.2c4.3,6.5,9.2,12.7,11.8,20,1.3,3.6,3.5,7.4,2.2,11.6.1,1.4-.9,3.6,2.1,2.7,0,11.9,4.7,23.1,4.6,35.1-.4,28.3-.1,56.5-.1,84.8,0,8.2-4.6,15.7-3.9,24-2.7,0-3.1.8-2.7,5.2L794,466C791.11,464.58,791.21,466,791.91,468Zm-97.5-3.7a182.71,182.71,0,0,0,22.2-.1c5.1,1.4,8.1-4.1,12.8-3.9,0-.6.1-1.2.1-1.9a6.35,6.35,0,0,1,2.3-3.1c3.9-2.6,7.6-7,8.3-10.4,1.4-7.3,5.5-14.1,4.5-22.1-.8-6-.2-12.3-.1-18.5,0-6.8-.5-7.5-7.2-7.4-13.1.2-26.3.5-39.4.7-1.7,0-3.3-.1-4.9,0s-2.2.8-.9,2.2c-2.7.5-5.5,1.1-8.2,1.6-3.9-.8-11.5,4.3-13.2,8.8-2.1,6.6-5.2,12.8-4.7,20.1.6,9.1,1.6,17.5,8.7,24.4,2,1.9,4.5-.9,5.2,1.9,1.1,4.9,5.2,4.1,8.6,4.8C688.71,466.38,692.21,463.78,694.41,464.28Z"/><path class="cls-2" d="M1787,322.08c-3.6,2.5-7.4,4.7-10.6,7.6a12.61,12.61,0,0,1-8.7,3.6l-31,.3c-4.6,0-6.9,2.2-6.9,6.7q0,83.85.1,167.8c0,6.5.1,6.5-6.4,6.5-5.3,0-10.7-.4-16,.1a29.84,29.84,0,0,1-18-4.6c.6-2-.4-2.5-2.2-2.2-6.3-.9-8.2-2.6-8.5-8.6-.1-2.3-2.3-2.2-3.2-3.8a57.07,57.07,0,0,1-6.6-27.3q.45-111.75,0-223.4c0-8.6,3.1-16.4,4.4-24.6,1.1-6.6,4.5-13.1,6.7-19.7.7.6,1.9.9,2,0,.3-4.5,4.7-6.9,5.4-11.2.6-3.9,3.4-6.3,5.3-9.3,2.3-3.7,5.2-6.6,7.9-9.7,4.2-4.8,10.1-7.5,15.4-10.7,4.1-2.5,8.6-5.1,13.9-4.4,2.5.8,3.8-.9,5.1-2.6,7.4-.4,14.2-3.9,21.8-4.2,9.4-.4,18.6.6,26.9,4.2,4.5,2,9.8,3.9,13.4,8.9,3.8,5.3,5.8,10.8,8.3,16.6,4.4,10.5,1.3,21.1,2.3,31.6.3,2.9-5.1,4.8-7.3,2.2-1.9-2.2-3.8-2.3-5.9-2.4a200,200,0,0,0-37.9-.2c-6.2.6-11.6,4.3-16.2,8.7-4.9,4.8-6.4,10.9-8.5,17.3-4.2,12.6-1.1,25.1-2.4,37.5-.3,3.2,1.7,3.9,4,4.4-1,4,2.3,2.2,3.5,2.2,18.5.1,36.9.1,55.4,0,1.3,0,2.7.4,3.8-.7,1,12.4,3.7,25-5.1,36-1,1.3-1.3,3.3-1.9,4.9C1786.51,318.28,1785.91,319.38,1787,322.08Z"/><path class="cls-2" d="M1368.21,301.88l-19.5-.3c-9.9-.1-17.3,4.9-23.7,11.8-8.4,9.1-11.5,20-11.5,32.1q-.15,67.5-.3,134.9c0,9.5-.1,19,.1,28.5.1,4.5-1.7,6.1-6.1,5.8-6.8-.3-13.8.6-20.4-.5-7.1-1.2-14.6-2.7-19.9-8.6-.1-1.7-.9-2.2-2.4-1.3-1.1-3.1-4.1-4.7-5.7-7.6a71.23,71.23,0,0,1-3.1-7.6c1-2.4.7-3.7-2.3-2.7-.9-3.6-.6-7.3-.6-10.9,0-48.6.1-97.3,0-145.9,0-8.9,3.6-16.8,6.2-25,0-.1.3-.3.3-.4-1.2-6.8,4.2-11.4,5.7-17.4,1.3-5.2,4.3-9.8,8.2-14,2.9-3.2,5.5-6.9,8.3-10.3s6.8-4.7,10.1-7.1a119.17,119.17,0,0,1,15.7-9.5c2.5-1.3,5.1-1.4,7.7-1.5a72.52,72.52,0,0,0,16-2.8c6.3-1.6,13.5-2.1,20,.9,1.3.6,2.9,1.5,4.2,1.3,6.3-.9,11.2,2.9,16.7,4.7,3.3,1.1,5.7,4.6,8.2,7.1,4.8,4.8,6.9,11.4,8.1,18.1.3,11.4-.5,22.9.6,34.3a5,5,0,0,1-5,0c.2-5.3-3.7-2.5-6-3-1.7-.3-3.4-.5-5-.8C1373.31,299.68,1369.91,302.48,1368.21,301.88Z"/><path class="cls-1" d="M1097.31,669v-82.5c0-5.2,2.5-7.5,7.5-7.8,7.8-.4,12.4,3.9,17.4,9.4,4.3,4.8,3.1,9.8,3.3,14.7.4,10.3.1,20.6.2,31,0,2-.9,4.5,2.4,5.1,3,.6,2.9-1.6,4.2-3.3,2.2-3,4.3-6,8.6-7.8a33.28,33.28,0,0,1,14.1-2.6c2.6.1,11.6,4.3,14.3,5.1,8.8,2.8,12.8,10.7,18.7,16.6,2.2,2.2,3.4,6.6,3.9,9.8,1.2,8,4.4,15.5,4.3,23.8-.4,29.5-.2,59,0,88.4,0,4-.9,5.9-5.2,5.5-2.3-.2-4.7.2-7-.1-5.9-.7-9.7-3.6-13.2-9s-2.7-10.8-2.8-16.2c-.3-19.3-.1-38.6-.1-58,0-10.8-2.2-20.5-10-28.8-7-7.4-18.9-7.6-24.1.9a45.3,45.3,0,0,0-5.9,17c-3.9,27.8-.9,55.7-1.8,83.5-.4,10.7-.1,10.6-10.8,10.6-6.1,0-9.6-2.8-12.6-8-4.2-7.3-5.6-14.8-5.5-23.1C1097.51,718.68,1097.31,693.88,1097.31,669Z"/><path class="cls-1" d="M602.11,671.08v-83.4c0-2.9-.9-7.5,1.5-8.2a21,21,0,0,1,13.1.3c6.9,2.6,10,8.8,13.6,14.4.7,1.1.4,2.9.4,4.4.1,11.8.1,23.6.3,35.5,0,1.6-.5,3.8,1.1,4.6,2.4,1.1,1.4-2,2.6-2.6,4.5-2.4,7.5-6.5,11.2-9.9,1.1-1,2.4-1,3.7-1.1,5.8-.5,11.8-.9,17.3,1.2,4.2,1.6,9.2,2.3,12.4,5.7,2.2,2.3,2.8,5.9,5.4,8.3,4.2,3.8,5.5,9.2,7.7,14.3,5.3,12,6.4,24.4,6.3,37.3-.3,25.5-.2,51,0,76.4,0,5.1-1.6,7-6.5,6.3a7.52,7.52,0,0,0-1.5,0c-10.3-.1-14.8-5.2-18.2-15.2-3.1-8.8-1.8-17.4-2-26.1-.5-16.6-.2-33.3-.3-50,0-5.1-.2-9.9-3.5-14.6s-7.1-8.8-12.2-11.5c-3.8-2-12.9,1.8-16.2,4.6-7.5,6.5-7.5,14.9-7.5,23.5-.1,27.8-.2,55.6,0,83.4,0,4.7-1.8,5.8-5.7,5.6-2.5-.1-5.1-.5-7.5.1-3.9,1.1-4.4-3.6-7.3-3.6-3.8-.1-3.2-3.5-4.7-5.4-5.9-7.1-3.2-15.1-3.4-22.6C601.81,719.08,602.11,695.08,602.11,671.08Z"/><path class="cls-1" d="M1353.11,704c0,11.2,1,22.4-.3,33.4-1.1,8.5-2.8,17.3-9.2,24.5-3.3,3.7-7.1,6.4-10.6,9.5-11.9,10.4-25.1,5.6-37.9,5.6-3.9,0-7.4-2-10.2-5.4-1.7-2.1-5.1-1.7-7.5-4.4-4.5-5.3-8.4-10.2-11-17.1-3.5-9.2-2.3-18.2-2.5-27.2-.2-7.7,3.3-14.5,8-20.6,2.2-2.8,4.3-5.7,6.5-8.6.2-.2.4-.7.6-.7,5.3.7,9.1-3.3,13.5-4.9,9.7-3.5,19.3-2.2,29-3,4.8-.4,4.5-4.8,4.2-7.6-.7-6.2-3.4-11.2-8.7-15.7-6.2-5.3-12.8-5.8-19.4-4.3-7.2,1.6-14.7,3.2-21.3,7-2.1,1.2-3.6,3.5-5.1,5.5-.7,1-1.2,2.1-2.6,1.6-1.1-.3-1.3-1.4-1.3-2.5.1-5.7.1-11.3.3-17,.1-3,3.9-4.2,4.2-7.1.5-4.4,3.7-6.8,6.1-10s6.1-4.3,8.9-5.8a41.68,41.68,0,0,1,31.7-3c4.9,1.5,11.1,1.4,14.7,6.4,2.6,3.6,6,6.6,8.6,10.2,3.9,5.4,5.9,11.8,8.3,18.1,5.1,13.5,2.2,27.1,3.3,40.5a20.85,20.85,0,0,1,0,2.5A.37.37,0,0,1,1353.11,704Zm-40,8.9c-6.7-.1-14.2,1-19.4,8.2-2.1,2.9-3.1,14.4-.5,16.6,4.5,3.8,7.8,8.8,15.3,8.8,10.2,0,15-3.2,16.3-14,.3-2.6,0-5.3.4-8C1326.71,713.68,1325.61,712.48,1313.11,712.88Z"/><path class="cls-1" d="M771.81,717.58c-5.5,0-11,.1-16.5,0-2.4-.1-4.1.7-4.1,3.1.1,4.2.2,8.5,2.3,12.3,2.6,4.7,6.7,7.2,11.6,9.9,10.2,5.6,20.7,3.4,30.6,1.8a32,32,0,0,0,16.2-8.5,2.32,2.32,0,0,1,2.7-.5,2,2,0,0,1,.8,2.6c-2,6.4-1.2,13.3-3.2,19.5a26.37,26.37,0,0,1-8.6,12.9c-11.8,9-25.5,7.9-38.8,6.5-2.9-.3-7.2-3.6-10.4-4.9-5.2-2.2-8.3-6.4-12.9-8.9-3.6-1.9-6.7-5-7.3-9.6-.6-4-3.8-6.7-5.2-10.4-1.7-4.7-4.5-8.9-5.9-14-3.9-14-3.6-28.1-2.4-42.1.5-5.6,1.2-11.9,5.2-16.8a2.39,2.39,0,0,0,.5-1.4c-.8-5.8,3.7-10.1,4.4-15.6.6-4.6,5.3-7.2,8-10.7s6.5-5.8,9.5-8.9c7-7.1,28.9-12.6,37.6-7.6,7.1,4,14.2,8.4,19.7,15.1,3.3,3.9,6.9,7.7,8.5,12.2,2.1,5.9,4.9,11.7,5.1,18.2.1,4.8.1,9.7.2,14.5.2,10.1-5.3,17.6-11.6,24.8-1.4,1.5-2.8.3-4,.8-5,2.1-10.1,4.5-15.5,5.2s-11,.2-16.5.2Zm-8.8-25.4c6.5,1.9,12.9-3.1,20.2-3.5,5.3-.2,7.9-3.4,8.1-8.8.1-4.1-.3-8.3-.4-12.4-.1-3-1.7-4.9-4-6.9-5.4-4.7-11.7-4.3-17.9-4-8.2.4-11.1,3.5-14.2,11-1.4,3.5-2.2,7.3-4.1,10.5a13.63,13.63,0,0,0-1.7,10.8c1.2,4.1,5.5,3.4,9,3.4C759.21,692.18,760.51,692.18,763,692.18Z"/><path class="cls-1" d="M926.21,705.28c0,5.3-.6,12.5.2,19.6,1,9.1-3,17.1-4.7,25.6a14.86,14.86,0,0,1-4.6,7.6c-3.6,3.2-5.2,8-8.9,11.1-2.5,2.1-5.6,3.2-8.4,5-9.6,6-20.5,3.8-30.7,2.5-3.4-.5-8.8-.7-11.6-5.3-1.1-1.8-4.6-1.1-6.8-3.6-3.7-4-6.6-8.4-9.7-12.7-7.2-10-8.4-22-6.2-33.5,2-10.4,6.8-20.7,15.1-27.7,3.2-2.7,8.1-4.3,12.8-5.7,10.6-3.2,21.3-2.8,32-2.9,2.1,0,3-.9,3.2-2.9.6-5.3.7-10.8-1.2-15.8-1.2-3-3.2-5.9-7.5-6.5-5.2-.7-9.7-3.9-15.5-3.3a51.67,51.67,0,0,0-24.4,8.7c-.4.3-.7.9-1.1,1-2.3.7-4.9,2.4-6.8,1.8-2.6-.8-1.6-4.1-1.3-6.2.9-5.4-.3-11,2-16.2.3-.6,0-1.6.4-1.9,7.6-6.4,12.9-15.6,24.7-16.3,3.3-.2,7.3-2.4,11.1-2.3,10,.2,18.4,4.3,27.3,8.8,6.4,3.3,7.7,9.4,12.5,13.1,1.7,1.3,2.9,6.3,4.1,9.8C927.41,672.18,926,687.88,926.21,705.28Zm-38.7,5.4c-5.4-2-10.5,4-16.8,3.3a2.13,2.13,0,0,0-1.2.7c-5.5,5.1-8.6,11-7.3,18.9.7,3.9,3,6.3,5.7,8.5,5.7,4.8,12.6,4.2,19.3,3.5a12.41,12.41,0,0,0,10.4-10.7c.4-4.1.1-8.4,1.2-12.3,2-7-1.1-11.9-8.4-11.9Z"/><path class="cls-1" d="M1789.81,705.58c0,4.7-.5,9.4.1,14,2,14.7-4.5,27.1-10.8,39.4-1.8,3.6-3.3,8.1-7.3,10.5-.4.2-.8.9-1,.9-4.8-1.3-6.5,6-11.4,4.3-6,5.6-13.3,2.5-20.1,2.9s-12.4-3.3-18.5-5.7c-9.8-3.8-12.6-13.2-19.2-19.3a1.38,1.38,0,0,1-.3-.4c-4.1-10.7-5.6-22-3-32.9a43.59,43.59,0,0,1,11.9-20.9c9.1-9,19.3-11.9,31-12.8,5.5-.4,11-.2,16.5-.2,2.6,0,4-.6,3.9-3.6-.4-6.3,1-13-4-18.3-2.8-2.9-4.9-6.5-9.8-6.3-5.5.2-11,0-16.5-.3-4.9-.3-8.7,2.3-12.4,4.6-4.3,2.7-8.7,5.2-12.5,8.9-2.8,2.8-5,1.4-5.1-2.7-.1-3.7-.5-7.5.3-11a57.86,57.86,0,0,1,5.4-13.4c1.5-2.8,4.6-4.3,5.3-8.3.4-2.4,5-3.9,7.1-4.3,4.8-.8,8-4.7,12.9-5.1,6.7-.7,13.5-1,19.8.6,5,1.3,9.4,4.6,14,7.2,5,2.8,8,7.7,11.9,11.5,3.4,3.4,3.5,7.2,5.6,10.4,3.5,5.4,1.1,12,4,16.4,3.6,5.4,1.7,10.5,2.1,15.7C1790.21,693.18,1789.81,699.38,1789.81,705.58Zm-28.4,19h0v-10.5c0-2.5-1.2-3.5-3.7-3.4-3.8.1-7.7-.2-11.5.1-6.5.5-12.7,1.9-16.2,8.1-1.1,2-4.2,1.8-4.1,5,.2,6.1-1.5,12.6,4,17.3,2.4,2,4.4,5,8.4,4.6,3.5-.3,7,.2,10.5,0,5.9-.3,12.3-7,12.6-12.9C1761.51,730.18,1761.41,727.38,1761.41,724.58Z"/><path class="cls-1" d="M1682.21,729.58c1.3,9.5,2,18.9-.3,27.8-1.4,5.5-6.3,9.4-10.5,13.2-8.2,7.3-18.2,8.1-28.3,6.7-4.8-.7-9.8-1.8-13.8-5.7-1.9-1.9-5.1-1.8-7.7-3.9-4.7-3.8-8.6-8.3-12.8-12.4s-6.4-9.9-9.6-14.9a5.56,5.56,0,0,1-.9-1.7c-2.9-10-5-20.1-4.7-30.7.3-9.3-.7-18.8,1.4-27.9,1.9-8.1,3.2-16.6,7.8-23.9,2-3.1,6-4.1,7.5-7.6,3.1-7.4,11.2-9.6,15.8-15.3,1-1.2,2.5-.8,3.6-1.3,8-3.8,16.4-4.1,25.1-4,9.5,0,15.6,5.7,21.3,11.9,8.6,9.4,7.1,21.2,6.6,32.6-.1,1.8-1.5,2.7-2.5,1.1-4.4-7.6-12.4-10.2-19.7-12.3-5.3-1.5-12.2-3.4-17.7,1.9-1,1-3.1,1-4.7,1.3a5.75,5.75,0,0,0-4,2.7c-3.5,5-6.8,10.1-10.3,15.1a8,8,0,0,0-.8,3.3c-.9,8.8-1.3,17.7,0,26.4a52.6,52.6,0,0,0,4.3,13.8c1.8,3.8,2.4,8.5,6.5,11.1.4.2.5,1.3,1.3,1.3,7.1-.5,12.6,5,19.9,4.6,6-.3,10.6-3.6,16.1-4.9C1674.61,737.28,1678.11,732.88,1682.21,729.58Zm-85.4-.7a2.65,2.65,0,0,0-.5.6,1.85,1.85,0,0,0,.7.2c.1,0,.3-.3.3-.3A1.21,1.21,0,0,1,1596.81,728.88Z"/><path class="cls-1" d="M1374.41,690.58c0-21.3-.8-42.7.4-63.9a51.65,51.65,0,0,1,5.3-20.8c1.8-3.4,5-6.5,5-11.2a4.75,4.75,0,0,1,5.1-5c2.2.1,2.3-2,3.4-3,5.7-5.6,12.2-9.2,20.6-8.4a32.76,32.76,0,0,0,7,0c9.5-1.1,18.1,7.2,17.2,16.6-.4,4.3.1,8.7,0,13,0,3.2-1.2,4.3-4.7,3.4-7-1.8-14.3-1.3-21.3.1a9.39,9.39,0,0,0-5.9,5.3c-2.1,6.1-4.7,12.1-4,19,1.1,11.6-2.4,10.7,11.1,10.8,5.3.1,10.7.2,16,0,3.3-.1,4.8.9,5,4.4.3,4.5.9,9.5-1,13.3-2.3,4.7-4.7,9.9-11.3,11.5-4.7,1.1-9.2,2.8-14,2.5-5.2-.3-5.7,2.6-5.7,6.7q.15,33,.1,65.9c0,6.7-.1,13.3,0,20,0,3-1,4.3-4.1,4a16.76,16.76,0,0,0-5,0c-6.6,1-10.6-2.5-13.9-7.5-3.7-5.5-5.8-11.1-5.6-18.1.5-19.7.2-39.2.3-58.6Z"/><path class="cls-1" d="M1015.21,679.58c0-18.5-.1-37,.1-55.4,0-5.3,3-9.5,5.8-13.9,2.5-4,4.4-8.3,8.1-11.5,2.2-1.9,11.1-3.6,13.1-1.8,1.2,1,.8,2.5.8,3.8.1,7,0,14,.1,21,.1,6.6.2,6.7,6.6,6.7h25.5c6.4,0,6.6.3,6.6,6.8,0,6.3.6,12.9-3.2,18.4-2.4,3.5-6,6.5-10.3,6.8a200,200,0,0,1-20.5.2c-3-.1-4.2,1.3-4.5,3.9-.1,1-.2,2-.2,3,0,19.1-.3,38.3.4,57.4a22.8,22.8,0,0,0,7.9,16.5c1,.9,2.8.9,4.2,1,6.6.3,13.3.5,19.9-.8,3.2-.7,4.3.7,4.2,3.7-.2,5.3.2,10.7-.7,15.9-1,6.2-6,9.8-10.9,13a20.55,20.55,0,0,1-16.8,2.7c-4.2-1.1-8.5-2.1-12.3-5-2.4-1.9-6.3-2.1-8.8-4.8-3.9-4.2-7-8.6-8.7-14.2a83.52,83.52,0,0,0-4.5-10.7,17.56,17.56,0,0,1-1.9-7.2Z"/><path class="cls-1" d="M947.91,665c0-28.7.1-52.3-.1-76,0-4.3.7-8,4.5-10.1s12.9.6,15,3.9c2,3,3.2,6.3,7.2,7.5,1.7.5,1.3,3.2,1.3,5,.2,11.8.3,23.6.3,35.5.1,34,.1,67.9.2,101.9,0,5.4,5.6,11.9,11,12.9,2.7.5,5.2,2.1,8.4.5s5.4.5,5.5,4.1c.2,5.8.6,11.7-1.1,17.3-1.2,3.8-3.6,6.6-7.9,7-6.6.5-13.6,1.6-19.8-.4-5.4-1.7-10.8-4-14.7-9.5-4.8-6.8-5.8-13.9-7.3-21.6C944.81,715.38,950.21,687.58,947.91,665Z"/><path class="cls-1" d="M1456.91,648.28a3.18,3.18,0,0,1,1.5,2.7c.2-1.2,0-3.2.9-4,3.4-3,4.4-7.8,7.7-10.6,2-1.7,4.6-2.5,6.9-4,8.2-5.5,17.9-5.3,27-3.3,2.9.7,6.7,3.8,9.3,7.9,4,6.3,2.9,12.5,3.5,18.8.4,5.2-1.4,6.7-6.4,5.6-5.6-1.3-11.2-.7-16.8-.4-3.2.2-4.2,2.6-6.2,4.6-4.2,4.2-1.4,10.6-5.9,14.3-.8.7-.5,2.8-.5,4.3-.1,27.5-.1,54.9-.2,82.4,0,2.7,1.2,5.8-1.4,7.9-1.9,1.5-11.5-1-13.7-2.2-3.4-1.9-5.5-4.4-7.8-7.5a11,11,0,0,1-2.6-7.4c-.1-31.3-.6-62.6.3-93.9C1452.31,657.58,1455.51,653.38,1456.91,648.28Z"/><path class="cls-1" d="M1533.81,690.88c0-17.7.1-35.3-.1-53,0-4.2.9-6,5.7-6.2,6.8-.3,11.2,3,15.6,7.4,3.7,3.7,4.4,8.2,5.1,13,3.6,25.6,1.1,51.4,1.6,77.1.1,4.7.4,7.9,3.8,11.3,3.1,3,6.5,2.8,9.9,2.9,7.8.3,7.9,0,8.2,8.8.2,5.6.6,11.2-3.1,16.2-2.4,3.2-4.3,6.3-9,6.4-5,.1-10-.3-15-.1s-7.9-2.7-11.3-5.3c-5.2-4-5-10.7-7.9-15.9-6.3-11.5-2.7-24.1-3.4-36.2C1533.41,708.58,1533.81,699.78,1533.81,690.88Z"/><path class="cls-1" d="M867.31,1039.38c.3.7.7,1.3,1.1,2.1a1.9,1.9,0,0,0,.3-.9c.2-5.2.4-10.3.5-15.5s5.2-9.2,4.1-14.9c-.1-.6.8-1.2,1.5-.9.5.2,1.2.9,1.2,1.3-.7,5.3,1.9,11.2-2.3,16-1.1,1.2-.6,2.9-.6,4.3-.2,8.7-.2,17.3-.4,26-.1,3.5.4,7.3-3,9.9-.6.5-.2,2.2-.3,3.4-.9,8.1-3.6,14.3-12.2,18-4.1,1.7-7.8,3-11.8,2.4-5.9-.9-11-4.1-15.5-7.9s-6.5-9.3-9.7-14c-.8-1.1-.7-2.9-.7-4.4-.4-10.8-.8-21.5-.8-32.3,0-1.9.6-5.1,3.9-5.2,3.5-.2,3.8-2.7,3.8-5.2-.1-6.3-.5-12.6-.6-18.9,0-3.8.5-6.6,5-8.9a17.38,17.38,0,0,1,9.4-2.1c12.1.8,13.9-4.3,18-13.3,3.4-7.5,6.8-14.7,14.1-19.9,3.3-2.3,6.1-2.2,9.3-2.7a1.54,1.54,0,0,1,1.9,1.2,3,3,0,0,1-.4,1.7c-3.2-.2-3.2,4.6-6.6,4.1a1.9,1.9,0,0,0-1.6,1c-3.2,8.7-10.8,15.1-12.8,24.4a3.4,3.4,0,0,1-2.7,3,7.19,7.19,0,0,0-4,2.8c-2.2,3.6-5.6,4.2-9.4,4.4a12.8,12.8,0,0,0-11.8,12.5c0,2.3.2,4.7.1,7-.3,5.1,1.3,10.8-5.2,14.1-1.9,1-3.2,4.1-2.7,7.3.7,4.2-.2,8.7.7,12.9,1.7,7.7,3.3,15.6,7.5,22.5,2.8,4.7,18.8,8.2,22.2,4.3,4.7-5.4,11.4-9.8,9.8-19.1-1.1-6.6-.2-13.6-.2-20.3C866.71,1039.48,867,1039.48,867.31,1039.38Z"/><path class="cls-1" d="M1562.71,598.68c2.3,8.4-5.8,11.9-8.5,17.9-.8,1.8-5.7,2.8-7.8,1.5-4.5-2.6-9.9-2.8-13.1-9.4-3.2-6.8-2.8-12.8-2-19.2,1-8.1,8.6-14.8,16.2-13.8,4.6.6,9.2,2.1,12.1,7.8C1562.31,588.78,1562.21,593.68,1562.71,598.68Z"/><path class="cls-2" d="M1051.21,512.78c0-56-.1-112,0-167.9,0-1.2-1.6-3.9,1.8-3.8,1.3,1,.7,2.4.7,3.7V509a13.29,13.29,0,0,1-.2,4C1052.81,514.88,1051.91,514,1051.21,512.78Z"/><path class="cls-2" d="M1796.51,278.58c-1.1,1.1-2.5.7-3.8.7-18.5,0-36.9.1-55.4,0-1.2,0-4.4,1.9-3.5-2.2,13.1-1,26.3-.2,39.4-.4,6.7-.1,13.3-.1,20,0C1794.41,276.78,1797,275.28,1796.51,278.58Z"/><path class="cls-2" d="M1389,308.08c-1.1-11.4-.3-22.9-.6-34.3,3-.7,2.8,1.7,2.8,3.3.2,9.6.3,19.3.4,28.9C1391.71,307.88,1391.11,308.88,1389,308.08Z"/><path class="cls-2" d="M1571,404.08c-.7-.6-.5-1.3.3-1.4,5.6-.8,10.3-4.7,16.1-5a6.57,6.57,0,0,0,4.9-2.5,5.47,5.47,0,0,1,5.5-1.2l2.2,1.9C1590,398.18,1581.91,406.18,1571,404.08Z"/><path class="cls-2" d="M1517.31,518.78c9.8,0,19.7,0,29.5.1,1.5,1.5,1,2.3-1,2.3H1519C1517.71,521.18,1515.31,521.48,1517.31,518.78Z"/><path class="cls-2" d="M1423.91,315.38c1,7.4-5.4,13.1-4.5,20.5.1,1.1-1.3,1.1-2.3.8-.7-7.5,4.4-13.6,4.7-20.8C1421.81,314.48,1423,314.68,1423.91,315.38Z"/><path class="cls-2" d="M1157.11,259a103.28,103.28,0,0,0-13.3-8.5c-.3-.2-.1-1.2-.1-1.8,4-.9,5.5,4.2,9.2,3.9.1,3,3,2.6,4.6,3.7C1159.91,257.88,1159,258.38,1157.11,259Z"/><path class="cls-2" d="M851.41,329.58c-.2,6.2-.4,12.4-.6,18.7-.1,1.4-.1,2.9-2.2,1.4-.8-5.8,0-11.5.5-17.3A3.37,3.37,0,0,1,851.41,329.58Z"/><path class="cls-2" d="M855,313.18c-.1,3.3-.2,6.5-.5,9.8-.1,1.6-.1,3.5-2.7,2.7-.9-3.8.2-7.4.5-11.1C852.51,312.78,853.41,312.38,855,313.18Z"/><path class="cls-2" d="M606.41,454.68c3-1.4,2.3,1.1,2.4,2.4a35.75,35.75,0,0,0,4.2,12.8,11.06,11.06,0,0,0-1.3.4C610,465,605,461,606.41,454.68Z"/><path class="cls-2" d="M1687.71,189.38c-.7,4.2-5,6.7-5.4,11.2-.1.9-1.3.6-2,0-.8-4.6,4.9-6.8,4.3-11.5A3.54,3.54,0,0,1,1687.71,189.38Z"/><path class="cls-2" d="M1416.71,341.88c.6,3.8-.9,7.5-.9,11.3,0,.9-.7,1.5-1.7.8-1.6-3.8,0-7.5.4-11.3A1.33,1.33,0,0,1,1416.71,341.88Z"/><path class="cls-2" d="M1455.41,266.58c1.2,3.4-2.8,3-4,4.4-1.5,1.7-1.9,5.3-5.3,5.2-1.5-3.7,4-3.4,3.7-6.4C1453,270.88,1451.61,264.18,1455.41,266.58Z"/><path class="cls-2" d="M1192.21,315.68c-1.9.9-2.8.2-2.8-1.8-.1-2.3-.1-4.5-.2-6.8,2.5-1.2,2.4,1.3,2.6,2.3C1192.21,311.38,1192.91,313.58,1192.21,315.68Z"/><path class="cls-2" d="M764.41,258.38c-4.7-.8-8.3-3.5-8.3-6.3,3,1.6,6.1,3.1,9,4.8C765.71,257.18,765,258,764.41,258.38Z"/><path class="cls-2" d="M1035.71,266.78c.8,4.8-2.3,7.1-5.6,9.4A16.3,16.3,0,0,1,1035.71,266.78Z"/><path class="cls-2" d="M975.21,240.58c-2.5,1-5,.1-7.5-.3-1.5-.2-2.1-.9-.8-2.2C969.81,238.38,973.51,236.18,975.21,240.58Z"/><path class="cls-2" d="M675,241c-1,5.1-5.1,2.6-7.9,3.3C668,238.78,672.31,241.78,675,241Z"/><path class="cls-2" d="M1548.11,407.38c-1.3-1.7-.5-2.5,1.2-2.4,3.1.1,6.2-.8,9.2.4,1.3,1.6.2,2-1.1,2Q1552.76,407.53,1548.11,407.38Z"/><path class="cls-2" d="M1019,269.78c-1.6-1.7-4.2-2.6-4-5.6,1.7.3,6,3.5,6,4.5C1021.11,270.38,1019.91,269.78,1019,269.78Z"/><path class="cls-2" d="M1622.51,314.48c-1.6,1.4-2.6,1-2.9-1a37.26,37.26,0,0,1-.1-4.7C1624.41,308.68,1621.91,312.38,1622.51,314.48Z"/><path class="cls-2" d="M1487.91,440.58c-3.6-.6-4.1-4-5.7-6.4,3.3.9,4.6,4.2,7,6.1C1488.71,440.38,1488.31,440.48,1487.91,440.58Z"/><path class="cls-2" d="M630.21,373.18q-.3,5.4-5.7,5.4C625.51,375.88,627.31,373.78,630.21,373.18Z"/><path class="cls-2" d="M1028.81,277.88c.4,1.9-1.6,2.8-1.9,1.9-1-2.5-4.8-2.8-4.4-6.1,1.3-1,2.7-.9,2.8.8C1025.41,277,1027.71,276.68,1028.81,277.88Z"/><path class="cls-2" d="M985.71,244.28c-2-.9-6,2.4-5.8-2.9C982.21,241.38,985.41,239.78,985.71,244.28Z"/><path class="cls-2" d="M1378.11,305.08c2.2.5,6.2-2.3,6,3C1381.81,307.48,1378.11,309.88,1378.11,305.08Z"/><path class="cls-2" d="M858.51,301.58c.9,2.2-.9,4-1.1,6.1-.1,1-1.3.6-1.9-.1C855.61,305.08,854.31,302,858.51,301.58Z"/><path class="cls-2" d="M1150.11,505.68c2.7.6,5.4,1.3,6.5,4.3C1153.31,510.38,1152,507.48,1150.11,505.68Z"/><path class="cls-2" d="M1074,241.08c.1,3,.1,3-4.8,3C1069.11,241.18,1069.11,241.18,1074,241.08Z"/><path class="cls-2" d="M1596.91,266c-2.4-.5-5.6.4-5.7-3.6C1593.91,262.28,1596.41,262.48,1596.91,266Z"/><path class="cls-2" d="M1139.41,490.48c-.1,2.4,3.9,2.2,3.2,5-3.6,1.2-2.7-3.8-5.4-3.9C1137.41,490,1138.71,490.78,1139.41,490.48Z"/><path class="cls-2" d="M795.11,460.88c-.4-4.4,0-5.2,2.7-5.2C797.31,457.68,799.61,461.08,795.11,460.88Z"/><path class="cls-2" d="M1618.81,303.78c-4.2.1-1.9-3.1-2.5-4.8C1620.71,298.68,1618.51,301.88,1618.81,303.78Z"/><path class="cls-2" d="M1085.71,238.88c-1.7,2.9-4.5,1.2-6.8,1.7C1080.21,236.28,1083,237.68,1085.71,238.88Z"/><path class="cls-2" d="M1195.71,336.48c-1.2,1.1-2.1.9-2.3-.7a45.13,45.13,0,0,1,.1-5.2c1.1-1.3,2-1.2,2.2.5A48.64,48.64,0,0,1,1195.71,336.48Z"/><path class="cls-2" d="M1464.41,497.58c3.1-.5,3.6,2.9,5.7,3.9C1466.31,503,1465.71,499.78,1464.41,497.58Z"/><path class="cls-2" d="M1019.71,511.68c1.7.9,5.2-1.9,5.3,2.5C1023.11,513.48,1019.61,516.38,1019.71,511.68Z"/><path class="cls-2" d="M1735.31,152.58c-1.3,1.7-2.6,3.4-5.1,2.6C1729.81,150.18,1733,152.28,1735.31,152.58Z"/><path class="cls-2" d="M1481.41,507.88c3.8.5,4,.7,4.6,3.1C1484,510.58,1480.61,512.28,1481.41,507.88Z"/><path class="cls-2" d="M1602.21,275.88c0-2.8-4.1-3-3.8-6C1601.31,270.18,1602.11,271.48,1602.21,275.88Z"/><path class="cls-2" d="M728.81,305.38c2-.1,4.8-2.1,4.6,2.2C730.91,308.88,729.61,307.68,728.81,305.38Z"/><path class="cls-2" d="M1546.61,240.28c-1.8-.2-4.2,1.6-5.3-1.3,1.5-2,3.6-1.1,5.4-.8C1548,238.38,1547.51,239.58,1546.61,240.28Z"/><path class="cls-2" d="M1368.21,301.88c1.7.6,5.2-2.3,4.9,2.4C1371.31,303.78,1367.91,306.38,1368.21,301.88Z"/><path class="cls-2" d="M623.11,380c1.3,2.8.1,3.3-2.4,2.5C620.41,380.68,620.71,379.38,623.11,380Z"/><path class="cls-2" d="M1494.21,446.78c-2.2.8-3.4.3-2.6-2.3C1493.91,443.68,1494.61,444.58,1494.21,446.78Z"/><path class="cls-2" d="M1787,322.08c-1.1-2.8-.5-3.9,2.5-2.6C1789.91,321.68,1789.11,322.48,1787,322.08Z"/><path class="cls-2" d="M1014,262.08c-2.1.5-3.2,0-2.5-2.3C1014.21,258.58,1014.91,259.48,1014,262.08Z"/><path class="cls-2" d="M972.81,305.28c2.2-.7,3.3-.2,2.7,2.3C973,308.68,972.11,307.88,972.81,305.28Z"/><path class="cls-1" d="M886.91,989.48c0,1.1-.3,2-1.6,2-1.6,0-1.9-1-1.8-2.3a1.64,1.64,0,0,1,1.9-1.7C886.71,987.48,886.91,988.38,886.91,989.48Z"/><path class="cls-2" d="M1615,293.88c-2.6.7-2.9-.5-2.2-2.6C1615.41,290.68,1615.71,291.88,1615,293.88Z"/><path class="cls-2" d="M1012.21,508c1.8-.3,3,.1,2.3,2.3a1.63,1.63,0,1,1-2.3-2.3Z"/><path class="cls-2" d="M1501.61,453.48c-2.8,1.2-3.5.3-2.7-2.4C1501,450.68,1502.31,451,1501.61,453.48Z"/><path class="cls-2" d="M1687.31,508c1.7-.2,2.7.2,2.2,2.2a1.25,1.25,0,0,1-2,.4A2,2,0,0,1,1687.31,508Z"/><path class="cls-2" d="M1128,243.28c-2.7,1.7-3.5.6-3-2.2C1126.61,241.08,1128.71,240.28,1128,243.28Z"/><path class="cls-2" d="M923,308.08c-1-2.8,0-3.5,2.7-2.5C926.31,308,925.11,308.48,923,308.08Z"/><path class="cls-2" d="M861.71,295c.2,1.6.3,3.1-2.1,2.3a1.49,1.49,0,0,1-.4-2.1C859.91,294.18,860.81,294.28,861.71,295Z"/><path class="cls-2" d="M1253.71,486.38c3-.9,3.3.4,2.3,2.7C1253.61,489.58,1253.21,488.28,1253.71,486.38Z"/><path class="cls-2" d="M1264.71,504.38c1.5-.9,2.3-.4,2.4,1.3-.3.8-.9,1.5-1.8.9A1.86,1.86,0,0,1,1264.71,504.38Z"/><path class="cls-2" d="M791.91,468c-.7-2-.8-3.4,2-2.3C794,467.18,794.61,469,791.91,468Z"/><path class="cls-2" d="M1479.91,248.88c1.2,2.4-.1,2.5-1.9,2.2C1476.61,248.48,1478,248.48,1479.91,248.88Z"/><path class="cls-2" d="M1568.81,247.18c-1.7.2-3.3.3-1.9-2.2C1569,244.48,1569.91,245,1568.81,247.18Z"/><path class="cls-2" d="M673.81,352.78c.3,2.5-1.5,1.4-2.6,1.5-.7-.6-1.1-1.4-.3-2A1.77,1.77,0,0,1,673.81,352.78Z"/><path class="cls-2" d="M937,239.88a2.66,2.66,0,0,1-2.7.5c-.7-.7-1.4-1.6,0-2.1S937,238,937,239.88Z"/><path class="cls-2" d="M797.31,311.78c-3,.9-2-1.3-2.1-2.7C797.61,308.68,797.81,310,797.31,311.78Z"/><path class="cls-2" d="M1039,263c-.9.5.4,2.8-1.8,2.3C1037.11,264,1037.21,262.78,1039,263Z"/><path class="cls-2" d="M980.21,313c1.9-.4,3-.1,1.9,2.1C980,315.78,979.11,315.28,980.21,313Z"/><path class="cls-2" d="M1575.81,250.58c-.6.6-1.3.9-2,.2s-.4-1.4.2-2C1575.71,248.28,1576.61,248.58,1575.81,250.58Z"/><path class="cls-2" d="M977.21,308.88c1.5-.4,2,.1,1.5,1.6-.5.8-1.3,1.1-2,.4S976.41,309.38,977.21,308.88Z"/><path class="cls-2" d="M1484.51,246.68c.7.2,1.5.5,2.4.8-1.2.7-2.1.6-2.5-.6A.35.35,0,0,1,1484.51,246.68Z"/><path class="cls-1" d="M881.41,994.38c.3.3.9.6,1.2,1.1.4.7-.2,1.3-.8,1.5-.8.3-1.1-.5-1.3-1C880.11,995.28,880.21,994.68,881.41,994.38Z"/><path class="cls-2" d="M1604,392.48l.2.2-.2-.1Z"/><path class="cls-2" d="M1604,392.58l-.1-.2.1.1Z"/><path class="cls-1" d="M491.51,1034.68l.1.4h-.3Z"/><path class="cls-2" d="M1495.41,305.48c.3,2.9-2.1,2.1-3.5,2.5C1491.11,304.38,1493.11,304.68,1495.41,305.48Z"/><path class="cls-2" d="M1479.81,327.08c1.3,2.4.1,2.6-1.8,2.1C1476.81,327,1477.91,326.58,1479.81,327.08Z"/><path class="cls-2" d="M1490,309c.8.5,1.1,1.3.5,2s-1.4.5-2-.3C1488,309.18,1488.41,308.58,1490,309Z"/><path class="cls-2" d="M683.81,401.68c.5.8.4,1.9-.3,2.2a21,21,0,0,0-10.8,7.2c-.5.6-1.5.4-2.1-.5C672.21,406,679.81,400.88,683.81,401.68Z"/><path class="cls-2" d="M716.71,464.28c-.1-.6-.2-1.2-.3-1.9,4.9.3,8.2-4.8,13.2-3.8,0,.6-.1,1.2-.1,1.9C724.81,460.08,721.81,465.68,716.71,464.28Z"/><path class="cls-2" d="M688.31,461.68c2.1.9,5.8-2.3,6.1,2.6C692.21,463.78,688.71,466.38,688.31,461.68Z"/><path class="cls-2" d="M697.81,397.78c1.3,1.1,1.2,2.1-.5,2.3s-3.6.8-5.3,0c-1.3-1.4-.6-2.1.9-2.2A40.08,40.08,0,0,1,697.81,397.78Z"/><path class="cls-3" d="M1313.11,712.88c12.4-.4,13.5.8,12.1,11.7-.3,2.6-.1,5.3-.4,8-1.3,10.8-6.1,14-16.3,14-7.5,0-10.8-5-15.3-8.8-2.6-2.2-1.5-13.7.5-16.6C1299,713.88,1306.51,712.78,1313.11,712.88Z"/><path class="cls-3" d="M763,692.18h-5.1c-3.5,0-7.8.7-9-3.4a13.69,13.69,0,0,1,1.7-10.8c1.9-3.2,2.6-7,4.1-10.5,3.1-7.6,6-10.7,14.2-11,6.2-.3,12.5-.7,17.9,4,2.3,2,3.9,3.9,4,6.9.2,4.1.5,8.3.4,12.4-.1,5.4-2.7,8.6-8.1,8.8C775.91,689.08,769.51,694.08,763,692.18Z"/><path class="cls-3" d="M887.51,710.68h3.1c7.3,0,10.4,4.9,8.4,11.9-1.1,3.9-.8,8.2-1.2,12.3-.5,5.2-5.1,10.2-10.4,10.7-6.7.7-13.6,1.4-19.3-3.5-2.7-2.3-5.1-4.6-5.7-8.5-1.4-7.9,1.8-13.8,7.3-18.9.3-.3.8-.8,1.2-.7C877,714.78,882.11,708.68,887.51,710.68Z"/><path class="cls-3" d="M1596.81,728.88a2.09,2.09,0,0,1,.4.6.45.45,0,0,1-.3.3c-.2,0-.5-.2-.7-.2C1596.41,729.38,1596.61,729.08,1596.81,728.88Z"/></g></g></svg>