<svg width="348" height="215" viewBox="0 0 348 215" xmlns="http://www.w3.org/2000/svg" xmlns:xlink="http://www.w3.org/1999/xlink"><title>BD2CE119-743B-471C-A02C-CB9EFE19FC00</title><defs><ellipse id="a" cx="27.427" cy="27.358" rx="27.427" ry="27.358"/><filter x="-63.8%" y="-45.7%" width="227.6%" height="227.9%" filterUnits="objectBoundingBox" id="b"><feOffset dy="10" in="SourceAlpha" result="shadowOffsetOuter1"/><feGaussianBlur stdDeviation="10" in="shadowOffsetOuter1" result="shadowBlurOuter1"/><feColorMatrix values="0 0 0 0 0 0 0 0 0 0 0 0 0 0 0 0 0 0 0.1 0" in="shadowBlurOuter1"/></filter></defs><g transform="translate(19 10)" fill="none" fill-rule="evenodd"><mask id="c" fill="#fff"><use xlink:href="#a"/></mask><use fill="#000" filter="url(#b)" xlink:href="#a"/><use fill="#F6B46A" xlink:href="#a"/><g mask="url(#c)" fill="#FFF"><path d="M33.855 30.61c.269-2.677 3.5-4.63 3.594-5.498.109-.986-.721-2.087-1.877-2.06-1.009.025-4.13 3.765-5.444 3.39-1.313-.373-.75-4.95-1.377-5.698-.346-.416-.774-.613-1.56-.627-.785.014-1.213.211-1.56.627-.626.748-.064 5.325-1.377 5.698-1.314.375-4.435-3.365-5.444-3.39-1.155-.027-1.986 1.074-1.877 2.06.096.868 3.325 2.82 3.594 5.498.27 2.677-5.4 14.485-5.4 34.127 0 1.924 7.508 3.57 12.065 3.57 4.555 0 12.065-1.646 12.065-3.57 0-19.642-5.671-31.45-5.402-34.127m-5.553-11.95s-4.728.604-7.265-1.929c-2.535-2.533-1.921-7.247-1.921-7.247s4.727-.605 7.264 1.928c2.536 2.535 1.922 7.248 1.922 7.248"/><path d="M35.268 9.498s.607 4.714-1.934 7.244c-2.54 2.529-7.268 1.916-7.268 1.916s-.606-4.714 1.935-7.244c2.542-2.529 7.267-1.916 7.267-1.916" opacity=".5"/><path d="M16.95 22.052s-1.905 2.724-4.412 2.846c-2.506.12-4.664-2.41-4.664-2.41s1.905-2.725 4.412-2.846c2.506-.12 4.664 2.41 4.664 2.41"/><path d="M15.463 14.155s2.732 1.9 2.854 4.4c.12 2.499-2.418 4.65-2.418 4.65s-2.731-1.9-2.853-4.399c-.12-2.499 2.417-4.65 2.417-4.65" opacity=".5"/><path d="M38.645 23.315s-2.732-1.899-2.853-4.398c-.12-2.5 2.417-4.651 2.417-4.651s2.732 1.9 2.853 4.398c.12 2.5-2.417 4.651-2.417 4.651"/><path d="M46.564 21.833s-1.905 2.724-4.411 2.846c-2.506.12-4.664-2.41-4.664-2.41s1.905-2.725 4.411-2.846c2.506-.12 4.664 2.41 4.664 2.41" opacity=".5"/></g></g></svg>