<svg id="Layer_1" data-name="Layer 1" xmlns="http://www.w3.org/2000/svg" viewBox="0 0 180.5 180.5"><defs><style>.cls-1{fill:#fff;}.cls-2{fill:#d3294f;}</style></defs><rect class="cls-1" width="180.5" height="180.5"/><g id="Layer_2" data-name="Layer 2"><path class="cls-2" d="M93.41,48.63c-.46-2.16.61-4.85-2.68-5.06-2-.13-2.31.41-3,5-.64,0-1.3.09-2,.09-7.09,0-14.17,0-21.26,0-2.45,0-2.8.55-1.77,2.7C66.33,59,70,66.61,73.58,74.3A32.37,32.37,0,0,1,75,79.69c-3,.77-4.66,2.17-4.63,5.08h-18c-.18-2.72-1.6-4.3-4.68-5,.4-1.88.5-3.85,1.25-5.52,3.45-7.66,7.11-15.23,10.61-22.86a11,11,0,0,0,.29-2.86C60,48,60,47.25,60.4,47a2.54,2.54,0,0,1,1.71-.17,27.19,27.19,0,0,0,3.17.6c6.25.06,12.5,0,18.76,0h2.2c1-4.1,2-5.29,4.44-5.21s3.42,1.26,4.07,5.09c.68,0,1.41.11,2.14.11,5.7,0,11.4.06,17.09,0,1.47,0,2.93-.51,4.41-.68a2.28,2.28,0,0,1,1.68.38c.33.34.28,1.1.31,1.68.06.87-.24,1.87.09,2.59,3.63,7.8,7.41,15.54,11,23.35a14.21,14.21,0,0,1,.77,4.21,1.32,1.32,0,0,1-.59,1.11c-2.39.69-3.46,2.38-3.71,4.86-5.73,0-11.34,0-17,0-.35,0-1-.45-1-.74-.25-2.58-2-3.65-4.66-4.4a30.55,30.55,0,0,1,1.33-5.33c3.48-7.72,7.12-15.37,10.71-23,1.11-2.38.91-2.69-1.8-2.69H93.41Zm25.47,1.79c-4.15,8.91-8,17.24-12,25.77h24.27ZM73.46,76.25c-4.09-8.59-8.06-16.93-12.28-25.81L49.11,76.25Z"/><path class="cls-2" d="M102.93,103.14H78.28c0-3.71-.1-7.31.09-10.89,0-.66,1.27-1.23,1.89-1.9s1.65-1.41,1.81-2.24c.58-3.15,1.48-6.06,4.26-8.18-3.9-3.29-3.89-7.41-2.88-11.71.56-2.36,1.21-4.71,2-7,1.47-4.62.41-7.2-4-9.25-1.49-.69-3.08-1.19-5.16-2,4.35.25,7.76,1.3,10.48,4.09a6,6,0,0,1,1.55,6.15c-.79,2.88-1.53,5.77-2.38,8.63-1,3.3-.45,6.22,2.13,8.58,1.17,1.07.92,1.84.24,3.17A22.56,22.56,0,0,0,86,87.17,47.48,47.48,0,0,0,86,94.35h9.21c-.09-5.12,1-10.21-2.62-14.55a1.93,1.93,0,0,1,.26-1.88C96,75,96.27,71.5,95,67.61c-.74-2.24-1.31-4.54-1.9-6.82-1-3.61-.2-5.72,2.79-8a13.51,13.51,0,0,1,8.22-2.58c-1.53.61-3.09,1.12-4.57,1.83-4.23,2-5.15,4.51-3.84,9a76.4,76.4,0,0,1,2.39,10.32c.47,3.2-.21,6.26-3.38,8.47,3.06,2.25,3.84,5.44,4.49,8.75A3.07,3.07,0,0,0,101,90.32a2.66,2.66,0,0,1,2,2.63C103,96.28,102.93,99.61,102.93,103.14Z"/><path class="cls-2" d="M28.58,136.61V124.19c0-4.27,0-4.27,4.31-4.25,1.24,0,2.49,0,3.73.1,4.68.4,7.23,3.22,7.26,7.95s-2.65,8.19-7.2,8.58C34.14,136.78,31.57,136.61,28.58,136.61Zm3.7-8.41h0c0,1.46-.07,2.93.05,4.38a1.71,1.71,0,0,0,.94,1.24c3.6.83,6.19-1,6.71-4.66.55-3.89-1.28-6.21-5.1-6.47-2.51-.17-2.6-.09-2.61,2.39C32.27,126.12,32.28,127.16,32.28,128.2Z"/><path class="cls-2" d="M162.26,120.11h12v2.53c-1.95,0-3.88.14-5.79,0-2.11-.19-3,.52-2.61,2.65a13.93,13.93,0,0,1,.08,1.53h7.85v2.85c-2,0-4,.12-5.94,0-1.8-.13-2,.74-2,2.23s.27,2.18,1.93,2.08c2.21-.13,4.42,0,6.8,0v2.65H162.26Z"/><path class="cls-2" d="M47.39,136.49V120c3.8,0,7.52-.07,11.23.09.46,0,.86,1.27,1.28,2l-.45.63c-1.69,0-3.39,0-5.09,0-3.78,0-3.78,0-3.17,4.16h7.63v2.84c-2.07,0-4.13.09-6.17,0s-1.65,1.1-1.72,2.29.18,2.1,1.78,2c2.27-.11,4.54,0,6.93,0v2.61Z"/><path class="cls-2" d="M17.56,122.66H9.38v4.09H16.9v2.88c-1.95,0-3.94.06-5.92,0-1.37-.05-1.85.47-1.78,1.82.09,1.64,0,3.3,0,5.08H5.7V120c3.76,0,7.47-.07,11.18.09.45,0,.85,1.28,1.27,2Z"/><path class="cls-2" d="M150.4,136.57h-3.48v-8.33c0-2.15.08-4.3,0-6.45-.08-1.5.51-1.91,1.92-1.87,2.77.07,5.54.1,8.31,0,2-.08,2.41.79,1.79,2.73h-8.16v4.21c1.93,0,3.91,0,5.89,0,1,0,1.77,0,1.78,1.37s-.66,1.42-1.7,1.44c-2,0-4.59-.49-5.74.55-1,.9-.34,3.64-.42,5.57A7.76,7.76,0,0,1,150.4,136.57Z"/><path class="cls-2" d="M116,120.21c-2.28,5.29-7.41,9.57-5.25,16.32H106.6c1.76-6.67-3.16-11-5.52-16.24,3.3-.81,3.6-.68,5,2l2.57,4.81,2.43-4.75C112.49,119.65,112.63,119.58,116,120.21Z"/><path class="cls-2" d="M136,133.59v2.91H123.74V120.1l3.42-.18v13.67Z"/><path class="cls-2" d="M63.22,136.53v-16.4H66.8v13.45h8.69v2.95Z"/><path class="cls-2" d="M100,122.65H94.37v13.87l-3.75.17V126.42c0-3.73,0-3.71-3.72-3.79-.87,0-2.21.4-2-1.23.07-.53.77-1.37,1.2-1.38,4.22-.11,8.46-.1,12.69,0C100.57,120,99.88,121.32,100,122.65Z"/><path class="cls-2" d="M24.56,136.56H21.05V120.34c3.05-1,3.51-.67,3.51,2.45Z"/><path class="cls-2" d="M142.6,136.55h-3.34V120.08h3.34Z"/><path class="cls-2" d="M78.68,136.72V121.14c0-1.44,1.13-1.3,1.94-1.14.63.12,1.67.71,1.68,1.12.12,4.78.24,9.58,0,14.35C82.18,137.76,80.16,136.2,78.68,136.72Z"/></g></svg>