<?xml version="1.0" encoding="utf-8"?>
<!-- Generator: Adobe Illustrator 24.1.0, SVG Export Plug-In . SVG Version: 6.00 Build 0)  -->
<svg version="1.1"
	 id="svg3318" xmlns:cc="http://creativecommons.org/ns#" xmlns:dc="http://purl.org/dc/elements/1.1/" xmlns:inkscape="http://www.inkscape.org/namespaces/inkscape" xmlns:rdf="http://www.w3.org/1999/02/22-rdf-syntax-ns#" xmlns:sodipodi="http://sodipodi.sourceforge.net/DTD/sodipodi-0.dtd" xmlns:svg="http://www.w3.org/2000/svg"
	 xmlns="http://www.w3.org/2000/svg" xmlns:xlink="http://www.w3.org/1999/xlink" x="0px" y="0px" viewBox="0 0 100 75.3"
	 style="enable-background:new 0 0 100 75.3;" xml:space="preserve">
<style type="text/css">
	.st0{fill:#FCD0AF;}
	.st1{fill:#3E474F;}
</style>
<defs>
	
		<inkscape:perspective  id="perspective3326" inkscape:persp3d-origin="372.04724 : 350.78739 : 1" inkscape:vp_x="0 : 526.18109 : 1" inkscape:vp_y="0 : 1000 : 0" inkscape:vp_z="744.09448 : 526.18109 : 1" sodipodi:type="inkscape:persp3d">
		</inkscape:perspective>
	
		<inkscape:perspective  id="perspective3372" inkscape:persp3d-origin="372.04724 : 350.78739 : 1" inkscape:vp_x="0 : 526.18109 : 1" inkscape:vp_y="0 : 1000 : 0" inkscape:vp_z="744.09448 : 526.18109 : 1" sodipodi:type="inkscape:persp3d">
		</inkscape:perspective>
</defs>
<sodipodi:namedview  bordercolor="#666666" borderopacity="1.0" fit-margin-bottom="0.2" fit-margin-left="0.2" fit-margin-right="0.2" fit-margin-top="0.2" gridtolerance="10000" guidetolerance="10" id="base" inkscape:current-layer="layer1" inkscape:cx="62.862455" inkscape:cy="25.267774" inkscape:document-units="px" inkscape:pageopacity="0.0" inkscape:pageshadow="2" inkscape:window-height="1028" inkscape:window-maximized="1" inkscape:window-width="1920" inkscape:window-x="-8" inkscape:window-y="-8" inkscape:zoom="4.235" objecttolerance="10" pagecolor="#ffffff" showgrid="false">
	<inkscape:grid  empspacing="5" enabled="true" id="grid3378" snapvisiblegridlinesonly="true" type="xygrid" visible="true">
		</inkscape:grid>
</sodipodi:namedview>
<rect class="st0" width="100" height="75.3"/>
<g>
	<path class="st1" d="M76.1,35.5c0,0.6,0,1.2,0,1.8c0,0.8,0,1.7,0,2.5c0,0.2,0,0.4,0,0.6c0,0.2,0.2,0.3,0.4,0.4c0.1,0,0.2,0,0.4,0.1
		c0.1,0,0.1,0,0.2,0c0,0.1,0,0.1,0,0.2c-0.8,0-1.6,0-2.5,0c0-0.1,0-0.1,0-0.2c0.1,0,0.1,0,0.2,0c0.1,0,0.3,0,0.4-0.1
		c0.2-0.1,0.3-0.2,0.3-0.4c0-0.2,0-0.4,0-0.6c0-1.4,0-2.8,0-4.2c0-0.1,0-0.2,0-0.3c0,0,0-0.1,0-0.1c0-0.4-0.2-0.6-0.6-0.6
		c-0.1,0-0.2,0-0.3,0c0,0,0-0.1,0-0.1c0,0,1.5-0.1,2,0c0.9,1.7,1.7,3.4,2.6,5.2c0.9-1.8,1.7-3.5,2.5-5.2c0.7,0,1.3,0,2,0
		c0,0,0,0.1,0,0.1c0,0,0,0-0.1,0c-0.1,0-0.3,0-0.4,0c-0.3,0-0.5,0.2-0.5,0.5c0,0.2,0,0.3,0,0.5c0,1.4,0,2.8,0,4.2c0,0.2,0,0.4,0,0.6
		c0,0.2,0.2,0.3,0.4,0.4c0.1,0,0.2,0,0.4,0.1c0.1,0,0.1,0,0.2,0c0,0.1,0,0.1,0,0.2c-1,0-2,0-3,0c0,0,0-0.1,0-0.1c0,0,0,0,0.1,0
		c0.1,0,0.3,0,0.4,0c0.2,0,0.5-0.1,0.5-0.5c0-0.2,0-0.3,0-0.5c0-1.4,0-2.8,0-4.2c0,0,0-0.1,0-0.1c-0.5,0.9-0.9,1.8-1.4,2.7
		c-0.5,0.9-0.9,1.8-1.4,2.8c-0.1,0-0.1,0-0.2,0C77.9,39.2,77,37.3,76.1,35.5C76.1,35.5,76.1,35.5,76.1,35.5z"/>
	<path class="st1" d="M19.6,39.3c0-0.1,0-0.1,0-0.2c0-1.2,0-2.4,0-3.6c0-0.2,0-0.4,0-0.6c0-0.2-0.2-0.3-0.4-0.4c-0.1,0-0.2,0-0.4,0
		c-0.1,0-0.1,0-0.2,0c0-0.1,0-0.1,0-0.2c0.8,0,1.6,0,2.5,0c0,0.1,0,0.1,0,0.2c-0.1,0-0.1,0-0.2,0c-0.1,0-0.3,0-0.4,0
		c-0.2,0.1-0.4,0.2-0.4,0.4c0,0.2,0,0.3,0,0.5c0,1.8,0,3.6,0,5.4c0,0.1,0,0.2,0,0.2c-0.1,0.1-0.2,0-0.3-0.1c-1-1.2-2-2.3-3-3.4
		c-0.5-0.6-1-1.1-1.5-1.7c0,0-0.1-0.1-0.1-0.1c0,0.1,0,0.1,0,0.2c0,1.3,0,2.6,0,3.9c0,0.2,0,0.4,0,0.5c0,0.2,0.1,0.3,0.3,0.4
		c0.1,0,0.3,0.1,0.4,0.1c0.1,0,0.2,0,0.3,0c0,0.1,0,0.1,0,0.1c-0.1,0-2.3,0-2.5,0c0,0,0-0.1,0-0.1c0,0,0,0,0,0c0.1,0,0.3,0,0.4,0
		c0.3,0,0.5-0.2,0.5-0.5c0-0.2,0-0.3,0-0.5c0-1.5,0-3,0-4.4c0-0.1,0-0.2-0.1-0.3c-0.2-0.2-0.5-0.4-0.8-0.5c-0.1,0-0.2,0-0.3-0.1
		c-0.1,0-0.1,0-0.2,0c0-0.1,0-0.1,0-0.2c0.1,0,0.1,0,0.2,0c0.5,0,1.1,0,1.6,0c0.1,0,0.2,0,0.3,0.1c1.4,1.6,2.7,3.1,4.1,4.7
		C19.5,39.2,19.5,39.3,19.6,39.3C19.5,39.3,19.6,39.3,19.6,39.3z"/>
	<path class="st1" d="M30.7,35.8c0,0.1,0,0.1,0,0.2c0,1.3,0,2.6,0,3.8c0,0.2,0,0.3,0,0.5c0,0.3,0.2,0.4,0.4,0.5c0.1,0,0.2,0,0.3,0
		c0.1,0,0.1,0,0.2,0c0,0.1,0,0.1,0,0.2c-0.8,0-1.6,0-2.5,0c0-0.1,0-0.1,0-0.2c0.1,0,0.1,0,0.2,0c0.1,0,0.2,0,0.3,0
		c0.3-0.1,0.4-0.2,0.4-0.5c0-0.1,0-0.3,0-0.4c0-1.5,0-3,0-4.5c0-0.1,0-0.2-0.1-0.3c-0.2-0.3-0.5-0.5-0.9-0.6c-0.1,0-0.2,0-0.4,0
		c0-0.1,0-0.1,0-0.2c0,0,0.1,0,0.1,0c0.5,0,1.1,0,1.6,0c0.1,0,0.2,0,0.2,0.1c1,1.2,2,2.3,3,3.5c0.4,0.4,0.7,0.9,1.1,1.3
		c0,0,0.1,0.1,0.1,0.1c0-0.1,0-0.1,0-0.1c0-1.2,0-2.5,0-3.7c0-0.2,0-0.3,0-0.5c0-0.2-0.2-0.3-0.4-0.4c-0.1,0-0.2,0-0.4,0
		c-0.1,0-0.1,0-0.2,0c0,0,0-0.1,0-0.1c0,0,0-0.1,0-0.1c0.8,0,1.6,0,2.5,0c0,0.1,0,0.1,0,0.2c-0.1,0-0.1,0-0.2,0c-0.1,0-0.3,0-0.4,0
		c-0.2,0.1-0.4,0.2-0.4,0.4c0,0.2,0,0.4,0,0.6c0,1.8,0,3.6,0,5.3c0,0.1,0,0.1,0,0.2c-0.1,0.1-0.2,0-0.3-0.1c-1.5-1.7-3-3.4-4.4-5.1
		C30.8,35.9,30.8,35.8,30.7,35.8C30.7,35.8,30.7,35.8,30.7,35.8z"/>
	<path class="st1" d="M89.7,41c-1.8,0-3.7,0-5.5,0c0-0.1,0-0.1,0-0.1c0,0,0,0,0.1,0c0.1,0,0.3,0,0.4,0c0.1,0,0.2-0.1,0.3-0.1
		c0.1-0.1,0.2-0.2,0.2-0.3c0-0.1,0-0.3,0-0.4c0-1.5,0-3,0-4.5c0-0.2,0-0.3,0-0.5c0-0.2-0.1-0.3-0.3-0.4c-0.1,0-0.3,0-0.4-0.1
		c-0.1,0-0.1,0-0.2,0c0-0.1,0-0.1,0-0.2c1.8,0,3.6,0,5.5,0c0,0.5,0.1,0.9,0.1,1.4c-0.1,0-0.1,0-0.2,0c0-0.1-0.1-0.3-0.1-0.4
		c-0.1-0.4-0.4-0.6-0.8-0.6c-0.2,0-0.3,0-0.5,0c-0.6,0-1.2,0-1.8,0c0,0-0.1,0-0.1,0c0,0.9,0,1.7,0,2.6c0,0,0.1,0,0.1,0
		c0.5,0,1,0,1.5,0c0.2,0,0.3,0,0.5-0.1c0.2,0,0.4-0.2,0.5-0.4c0.1-0.2,0.1-0.3,0.1-0.5c0,0,0.1,0,0.2,0c0,0.8,0,1.5,0,2.3
		c-0.1,0-0.1,0-0.2,0c0-0.1-0.1-0.3-0.1-0.4c-0.1-0.3-0.3-0.5-0.6-0.5c-0.1,0-0.2,0-0.4,0c-0.5,0-1,0-1.6,0c0,0-0.1,0-0.1,0
		c0,0,0,0.1,0,0.1c0,0.7,0,1.5,0,2.2c0,0.1,0,0.2,0,0.3c0,0.1,0.1,0.2,0.2,0.3c0.1,0,0.2,0,0.2,0c0.5,0,1,0,1.5,0c0.2,0,0.3,0,0.5,0
		c0.3,0,0.6-0.2,0.8-0.4c0.2-0.2,0.3-0.4,0.5-0.7c0-0.1,0.1-0.1,0.1-0.2c0.1,0,0.1,0,0.2,0C90.1,39.9,89.9,40.5,89.7,41z"/>
	<path class="st1" d="M95.3,34.2C95.4,34.2,95.4,34.2,95.3,34.2c0.1,0,0.1,0,0.2,0c0,0.8,0,1.5,0,2.3c-0.1,0-0.1,0-0.2,0
		c0-0.1,0-0.1,0-0.2c0-0.2-0.1-0.3-0.1-0.5c-0.2-0.7-0.8-1.1-1.5-1.2c-0.3,0-0.5,0-0.8,0c-0.3,0.1-0.5,0.2-0.6,0.4
		c-0.3,0.3-0.2,0.8,0,1.1c0.1,0.1,0.3,0.3,0.5,0.4c0.4,0.2,0.8,0.4,1.2,0.7c0.4,0.2,0.8,0.4,1.1,0.6c0.2,0.1,0.5,0.3,0.6,0.6
		c0.5,0.7,0.4,1.5-0.2,2.1c-0.4,0.4-0.8,0.6-1.4,0.6c-0.5,0.1-1,0-1.5-0.2c-0.2-0.1-0.4-0.1-0.7-0.2c-0.3-0.1-0.4,0-0.4,0.3
		c0,0,0,0,0,0.1c-0.1,0-0.1,0-0.2,0c0-0.8,0-1.5,0-2.3c0.1,0,0.1,0,0.2,0c0,0,0,0.1,0,0.1c0,0.1,0.1,0.3,0.1,0.4
		c0.2,0.7,0.6,1.1,1.2,1.3c0.4,0.1,0.9,0.2,1.3,0.1c0.2,0,0.3-0.1,0.5-0.2c0.5-0.4,0.5-1,0.1-1.4c-0.1-0.2-0.3-0.3-0.5-0.4
		c-0.4-0.2-0.7-0.4-1.1-0.6c-0.3-0.2-0.6-0.3-0.9-0.5c-0.3-0.2-0.5-0.4-0.7-0.6c-0.5-0.6-0.5-1.4,0-2c0.4-0.4,0.8-0.7,1.4-0.7
		c0.5-0.1,1,0,1.4,0.2c0.1,0,0.3,0.1,0.4,0.1C95.1,34.6,95.2,34.6,95.3,34.2C95.3,34.3,95.3,34.2,95.3,34.2z"/>
	<path class="st1" d="M28.8,40.8c0,0.1,0,0.1,0,0.2c-0.9,0-1.9,0-2.8,0c0-0.1,0-0.1,0-0.2c0.1,0,0.2,0,0.3,0c0.1,0,0.2,0,0.2-0.1
		c0.2-0.1,0.2-0.2,0.2-0.4c0-0.1,0-0.2-0.1-0.3c-0.2-0.4-0.4-0.9-0.6-1.3c-0.9,0-1.8,0-2.8,0c0,0,0,0,0,0.1
		c-0.2,0.4-0.3,0.7-0.5,1.1c0,0.1-0.1,0.2-0.1,0.3c-0.1,0.3,0,0.4,0.3,0.5c0.1,0,0.2,0,0.3,0.1c0.1,0,0.2,0,0.3,0c0,0.1,0,0.1,0,0.1
		c-0.1,0-2,0.1-2.2,0c0,0,0-0.1,0-0.1c0.1,0,0.2,0,0.3-0.1c0.2,0,0.4-0.1,0.5-0.3c0.1-0.2,0.3-0.5,0.4-0.7c0.8-1.8,1.7-3.6,2.5-5.4
		c0.1-0.2,0.1-0.2,0.3-0.1c0,0.1,0.1,0.2,0.1,0.2c0.8,1.7,1.6,3.5,2.3,5.2c0.1,0.2,0.2,0.4,0.3,0.6c0.2,0.3,0.4,0.5,0.8,0.5
		C28.7,40.8,28.8,40.8,28.8,40.8z M26,38.4c-0.4-0.9-0.8-1.8-1.2-2.7c-0.1,0.2-1.2,2.6-1.2,2.7C24.4,38.4,25.2,38.4,26,38.4z"/>
	<path class="st1" d="M55.2,40.8c0,0,0,0.1,0,0.1c-0.9,0-1.9,0-2.8,0c0,0,0,0,0-0.1c0,0,0-0.1,0-0.1c0.1,0,0.2,0,0.3,0
		c0.1,0,0.1,0,0.2-0.1c0.2-0.1,0.3-0.2,0.2-0.4c0-0.1,0-0.2-0.1-0.2c-0.2-0.4-0.4-0.9-0.6-1.3c-0.9,0-1.8,0-2.8,0c0,0,0,0,0,0.1
		c-0.2,0.4-0.3,0.7-0.5,1.1c-0.1,0.1-0.1,0.2-0.1,0.4c0,0.2,0,0.4,0.3,0.4c0.1,0,0.3,0.1,0.4,0.1c0,0,0.1,0,0.1,0c0,0,0,0.1,0,0.1
		c0,0,0,0-0.1,0c-0.1,0-0.2,0-0.3,0c-0.6,0-1.1,0-1.7,0c-0.1,0-0.1,0-0.2,0c0-0.1,0-0.1,0-0.1c0,0,0,0,0,0c0,0,0.1,0,0.1,0
		c0.3,0,0.5-0.2,0.7-0.5c0.1-0.2,0.3-0.4,0.4-0.7c0.8-1.8,1.6-3.6,2.4-5.3c0-0.1,0.1-0.2,0.2-0.1c0,0,0.1,0,0.1,0.1
		c0,0,0,0.1,0.1,0.1c0.8,1.8,1.6,3.5,2.4,5.3c0.1,0.2,0.2,0.4,0.3,0.6c0.2,0.3,0.4,0.5,0.8,0.5C55.1,40.8,55.1,40.8,55.2,40.8
		C55.2,40.8,55.2,40.8,55.2,40.8z M49.9,38.4c0.2,0,2.3,0,2.4,0c-0.4-0.9-0.8-1.8-1.2-2.7C50.7,36.6,50.3,37.5,49.9,38.4z"/>
	<path class="st1" d="M43.1,34.2c0.1,0,0.1,0,0.2,0c0.1,0.7,0.1,1.5,0.2,2.3c-0.1,0-0.1,0-0.2,0c0,0,0-0.1,0-0.1
		c-0.1-0.3-0.2-0.6-0.4-0.9c-0.4-0.6-0.9-0.8-1.6-0.9c-0.4-0.1-0.8,0-1.2,0.1c-0.6,0.2-1,0.6-1.3,1.1c-0.2,0.4-0.3,0.8-0.4,1.3
		c-0.1,0.5-0.1,1.1,0,1.6c0.1,0.4,0.2,0.7,0.4,1c0.3,0.5,0.7,0.7,1.3,0.9c0.5,0.2,1,0.2,1.5,0.1c0.5-0.1,0.8-0.3,1.2-0.6
		c0.2-0.2,0.3-0.4,0.5-0.5c0,0,0.1-0.1,0.1-0.1c0.1,0,0.1,0.1,0.2,0.1c0,0,0,0.1-0.1,0.1c-0.3,0.5-0.7,1-1.3,1.2
		c-0.4,0.2-0.7,0.3-1.2,0.3c-0.6,0.1-1.3,0-1.8-0.2c-0.9-0.4-1.6-1-1.9-2c-0.4-1.3-0.2-2.5,0.7-3.5c0.5-0.6,1.2-1,2-1.2
		c0.8-0.2,1.6-0.1,2.3,0.3c0.1,0,0.1,0.1,0.2,0.1c0.2,0.1,0.4,0,0.5-0.2C43,34.4,43,34.3,43.1,34.2z"/>
	<path class="st1" d="M9.3,34.3c0,0.5,0,1,0.1,1.4c-0.1,0-0.1,0-0.2,0c0-0.1-0.1-0.2-0.1-0.3c-0.1-0.2-0.1-0.3-0.3-0.5
		c-0.2-0.2-0.4-0.3-0.7-0.3c-0.2,0-0.3,0-0.5,0c-0.5,0-1,0-1.5,0c0,0-0.1,0-0.1,0c0,0.1,0,2.4,0,2.6c0,0,0,0,0.1,0
		c0.5,0,0.9,0,1.4,0c0.1,0,0.1,0,0.2,0c0.2-0.1,0.4-0.2,0.4-0.4c0-0.1,0.1-0.3,0.1-0.5c0,0,0.1,0,0.2,0c0,0.7,0,1.5,0,2.2
		c-0.1,0-0.1,0-0.2,0c0-0.1,0-0.2,0-0.4C8.2,38,8,37.8,7.7,37.8c-0.1,0-0.2,0-0.3,0c-0.4,0-0.8,0-1.2,0c0,0-0.1,0-0.1,0
		c0,0,0,0.1,0,0.1c0,0.7,0,1.4,0,2.1c0,0.1,0,0.3,0,0.4c0,0.1,0.1,0.3,0.2,0.3c0.2,0.1,0.3,0.1,0.5,0.1c0.1,0,0.2,0,0.3,0
		c0,0.1,0,0.1,0,0.2c-1,0-2,0-3,0c0-0.1,0-0.1,0-0.2c0.1,0,0.2,0,0.2,0c0.2,0,0.3,0,0.4-0.1c0.1-0.1,0.2-0.2,0.3-0.3
		c0-0.1,0-0.3,0-0.4c0-1.5,0-3.1,0-4.6c0-0.1,0-0.2,0-0.3c0-0.2-0.1-0.3-0.3-0.4c-0.1-0.1-0.3-0.1-0.4-0.1c-0.1,0-0.2,0-0.3,0
		c0-0.1,0-0.1,0-0.2C5.8,34.3,7.5,34.3,9.3,34.3z"/>
	<path class="st1" d="M70.5,34.4c0,0.5,0.1,1,0.1,1.5c-0.1,0-0.1,0-0.2,0c0-0.1,0-0.2,0-0.2c-0.1-0.5-0.4-0.8-0.9-0.9
		c-0.5-0.1-0.9,0-1.4,0c0,0.1,0,0.1,0,0.2c0,1.6,0,3.3,0,4.9c0,0.2,0,0.4,0,0.5c0,0.2,0.2,0.3,0.3,0.4c0.1,0,0.3,0,0.4,0.1
		c0.1,0,0.1,0,0.2,0c0,0.1,0,0.1,0,0.1c0,0-2.7,0.1-3,0c0,0,0-0.1,0-0.2c0.1,0,0.3,0,0.4,0c0.4-0.1,0.5-0.2,0.5-0.5
		c0-0.1,0-0.3,0-0.4c0-1.6,0-3.3,0-4.9c0,0,0-0.1,0-0.1c0,0-0.1,0-0.1,0c-0.4,0-0.7,0-1.1,0c-0.6,0-1,0.5-1,0.9c0,0.1,0,0.1,0,0.2
		c0,0-0.1,0-0.1,0c0,0-0.1,0-0.1,0c0-0.1,0-1.3,0.1-1.5C66.6,34.4,68.5,34.4,70.5,34.4z"/>
	<path class="st1" d="M55.6,41c0-0.1,0-0.1,0-0.1c0,0,0,0,0,0c0.2,0,0.3,0,0.5,0c0.3-0.1,0.5-0.2,0.5-0.5c0-0.1,0-0.3,0-0.4
		c0-1.5,0-2.9,0-4.4c0-0.1,0-0.3,0-0.4c0-0.3-0.1-0.5-0.6-0.6c-0.1,0-0.3,0-0.4,0c0-0.1,0-0.1,0-0.2c1.1,0,2.1,0,3.2,0
		c0,0.1,0,0.1,0,0.2c-0.1,0-0.1,0-0.2,0c-0.2,0-0.3,0-0.5,0c-0.1,0-0.2,0.1-0.3,0.1c-0.1,0.1-0.2,0.2-0.2,0.3c0,0.1,0,0.2,0,0.4
		c0,1.5,0,3,0,4.5c0,0.1,0,0.2,0,0.3c0,0.2,0.1,0.3,0.3,0.3c0.1,0,0.1,0,0.2,0c0.6,0,1.1,0,1.7,0c0.7,0,1.2-0.3,1.5-0.9
		c0.1-0.1,0.1-0.3,0.2-0.4c0,0,0-0.1,0.1-0.1c0.1,0,0.1,0,0.2,0c-0.2,0.6-0.4,1.2-0.6,1.8C59.2,41,57.4,41,55.6,41z"/>
	<path class="st1" d="M47.3,34.3c0,0.1,0,0.1,0,0.2c-0.1,0-0.2,0-0.4,0c-0.1,0-0.2,0.1-0.4,0.1c-0.1,0.1-0.2,0.2-0.2,0.3
		c0,0.2,0,0.3,0,0.5c0,1.3,0,2.7,0,4c0,0.2,0,0.5,0,0.7c0,0.3,0.1,0.5,0.4,0.6c0.1,0,0.2,0,0.4,0.1c0.1,0,0.1,0,0.2,0
		c0,0.1,0,0.1,0,0.2c-1,0-2,0-3,0c0,0,0,0,0,0c0,0,0-0.1,0-0.1c0,0,0,0,0,0c0.2,0,0.3,0,0.5,0c0.3,0,0.4-0.2,0.5-0.5
		c0-0.1,0-0.3,0-0.5c0-1.5,0-2.9,0-4.4c0-0.1,0-0.3,0-0.4c0-0.2-0.1-0.4-0.3-0.5c-0.1-0.1-0.3-0.1-0.4-0.1c-0.1,0-0.1,0-0.2,0
		c0-0.1,0-0.1,0-0.2C45.2,34.3,46.3,34.3,47.3,34.3z"/>
	<path class="st1" d="M71.1,34.5c0-0.1,0-0.1,0-0.2c1,0,2,0,3,0c0,0,0,0.1,0,0.2c-0.1,0-0.3,0-0.4,0c-0.1,0-0.1,0-0.2,0
		c-0.2,0.1-0.3,0.2-0.4,0.4c0,0.1,0,0.3,0,0.4c0,1.5,0,3,0,4.5c0,0.1,0,0.3,0,0.4c0,0.2,0.1,0.3,0.2,0.3c0.2,0.1,0.3,0.1,0.5,0.1
		c0.1,0,0.1,0,0.2,0c0,0.1,0,0.1,0,0.2c-1,0-2,0-3,0c0-0.1,0-0.1,0-0.1c0,0,0,0,0.1,0c0.1,0,0.3,0,0.4,0c0.3,0,0.5-0.2,0.5-0.5
		c0-0.1,0-0.3,0-0.4c0-1.5,0-3,0-4.5c0-0.1,0-0.3,0-0.4c0-0.2-0.1-0.3-0.2-0.3c-0.2-0.1-0.3-0.1-0.5-0.1
		C71.3,34.5,71.2,34.5,71.1,34.5z"/>
	<path class="st1" d="M10.1,40.8c0.2,0,0.3,0,0.5,0c0.3-0.1,0.4-0.2,0.5-0.5c0-0.1,0-0.3,0-0.5c0-1.5,0-2.9,0-4.4c0-0.2,0-0.3,0-0.5
		c0-0.2-0.1-0.3-0.3-0.4c-0.1-0.1-0.3-0.1-0.5-0.1c-0.1,0-0.1,0-0.2,0c0-0.1,0-0.1,0-0.2c0,0,2.8-0.1,3.1,0c0,0,0,0.1,0,0.2
		c-0.1,0-0.1,0-0.2,0c-0.2,0-0.3,0-0.4,0.1c-0.2,0.1-0.3,0.2-0.3,0.4c0,0.2,0,0.3,0,0.5c0,1.1,0,2.2,0,3.2c0,0.5,0,1,0,1.5
		c0,0.4,0.2,0.6,0.5,0.6c0.1,0,0.3,0,0.5,0c0,0,0,0.1,0,0.1c0,0,0,0,0,0c0,0-0.1,0-0.1,0c-0.9,0-1.8,0-2.7,0c0,0-0.1,0-0.1,0
		C10.1,40.9,10.1,40.9,10.1,40.8z"/>
</g>
</svg>
