<svg width="93" height="85" viewBox="0 0 93 85" xmlns="http://www.w3.org/2000/svg"><title>41277123-0A26-486E-8848-E5A430CF9D41</title><g fill="#ACACAC" fill-rule="evenodd"><path d="M7.53 77.337c0-4.348 3.141-7.319 7.182-7.319 2.77 0 4.475 1.486 5.5 3.183l-2.051 1.082c-.657-1.167-1.97-2.058-3.449-2.058-2.708 0-4.719 2.142-4.719 5.112 0 2.969 2.011 5.112 4.72 5.112 1.477 0 2.79-.87 3.448-2.058l2.051 1.082c-1.045 1.697-2.73 3.182-5.5 3.182-4.04 0-7.181-2.97-7.181-7.318M23.783 84.4h2.401V70.25h-2.401zm14.979-9.715c0-1.358-.985-2.249-2.34-2.249H33.14v4.498h3.284c1.354 0 2.34-.891 2.34-2.249zm-.205 9.715l-3.037-5.281h-2.38v5.28h-2.401V70.252h6.013c2.708 0 4.473 1.825 4.473 4.434 0 2.524-1.6 3.882-3.243 4.158l3.345 5.557h-2.77zm6.094-7.063c0-4.348 3.14-7.319 7.182-7.319 2.77 0 4.474 1.486 5.5 3.183l-2.052 1.082c-.657-1.167-1.97-2.058-3.448-2.058-2.709 0-4.72 2.142-4.72 5.112 0 2.969 2.011 5.112 4.72 5.112 1.477 0 2.791-.87 3.448-2.058l2.052 1.082c-1.047 1.697-2.73 3.182-5.5 3.182-4.041 0-7.182-2.97-7.182-7.318M60.903 84.4V70.252h2.402v11.963h6.032V84.4zm12.251 0V70.252h9.378v2.184h-6.977v3.67h6.833v2.185h-6.833v3.924h6.977V84.4zM8.578 58.813c0-.702-.495-1.275-1.359-1.275H3.658v2.55h3.561c.844 0 1.359-.51 1.359-1.275zm-.268-5.57c0-.68-.494-1.168-1.215-1.168H3.658v2.36h3.437c.721 0 1.215-.49 1.215-1.191zM.116 63.17V48.993h7.782c2.718 0 4.015 1.828 4.015 3.614 0 1.764-1.05 2.954-2.347 3.251 1.461.235 2.614 1.68 2.614 3.466 0 2.061-1.338 3.846-4.035 3.846H.116zm21.576-10.564l-1.75 5.335h3.5l-1.75-5.335zm3.396 10.564l-.678-2.04h-5.415l-.68 2.04h-4.013l5.167-14.177h4.446l5.188 14.177h-4.015zm16.388-7.078c0-2.317-1.461-4.101-3.726-4.101-2.285 0-3.746 1.784-3.746 4.101 0 2.296 1.461 4.102 3.746 4.102 2.265 0 3.726-1.806 3.726-4.102m-11.075 0c0-4.314 3.15-7.332 7.35-7.332 4.198 0 7.328 3.018 7.328 7.332 0 4.315-3.13 7.333-7.329 7.333-4.2 0-7.349-3.018-7.349-7.333m26.577 2.721c0-.702-.494-1.275-1.358-1.275h-3.562v2.55h3.562c.844 0 1.358-.51 1.358-1.275zm-.267-5.57c0-.68-.495-1.168-1.215-1.168h-3.438v2.36h3.438c.72 0 1.215-.49 1.215-1.191zm-8.194 9.927V48.993h7.781c2.718 0 4.015 1.828 4.015 3.614 0 1.764-1.05 2.954-2.347 3.251 1.462.235 2.615 1.68 2.615 3.466 0 2.061-1.339 3.846-4.035 3.846h-8.03zm21.575-10.564l-1.75 5.335h3.5l-1.75-5.335zM73.49 63.17l-.679-2.04h-5.414l-.68 2.04h-4.014l5.167-14.177h4.446l5.189 14.177H73.49zm15.13-4.357c0-.702-.494-1.275-1.358-1.275h-3.561v2.55h3.561c.844 0 1.359-.51 1.359-1.275zm-.267-5.57c0-.68-.494-1.168-1.215-1.168h-3.437v2.36h3.437c.72 0 1.215-.49 1.215-1.191zM80.16 63.17V48.993h7.782c2.718 0 4.015 1.828 4.015 3.614 0 1.764-1.05 2.954-2.347 3.251 1.461.235 2.614 1.68 2.614 3.466 0 2.061-1.338 3.846-4.035 3.846H80.16zM50.3 13.107c.164-1.656 2.119-2.864 2.176-3.4.066-.61-.437-1.292-1.136-1.275-.61.015-2.499 2.33-3.294 2.097-.795-.23-.455-3.062-.833-3.525-.21-.257-.47-.379-.944-.388-.476.01-.735.131-.945.388-.378.463-.038 3.294-.833 3.525-.795.232-2.684-2.082-3.294-2.097-.7-.017-1.202.664-1.136 1.274.058.537 2.012 1.745 2.175 3.401.163 1.656-3.268 8.96-3.268 21.11 0 1.19 4.543 2.208 7.301 2.208 2.757 0 7.3-1.018 7.3-2.208 0-12.15-3.43-19.454-3.268-21.11"/><path d="M46.269 37.361c-3.812 0-7.395-1.513-10.09-4.26C33.484 30.354 32 26.701 32 22.816s1.484-7.538 4.18-10.285a.511.511 0 0 1 .73 0 .534.534 0 0 1 0 .745c-5.16 5.26-5.16 13.82 0 19.08 2.5 2.55 5.823 3.952 9.359 3.952 3.535 0 6.858-1.403 9.359-3.952 5.16-5.26 5.16-13.82 0-19.08a.534.534 0 0 1 0-.745.51.51 0 0 1 .73 0c2.695 2.747 4.179 6.4 4.179 10.285s-1.484 7.538-4.18 10.285c-2.694 2.747-6.277 4.26-10.088 4.26m.671-31.646s-2.86.374-4.395-1.193C41.01 2.955 41.382.039 41.382.039s2.86-.374 4.396 1.193c1.534 1.568 1.163 4.483 1.163 4.483"/><path d="M51.156.048s.367 2.916-1.17 4.48c-1.537 1.565-4.398 1.186-4.398 1.186s-.367-2.916 1.17-4.481C48.297-.331 51.156.048 51.156.048M40.071 7.814s-1.152 1.684-2.67 1.76c-1.516.074-2.821-1.492-2.821-1.492s1.152-1.685 2.669-1.76c1.516-.074 2.822 1.492 2.822 1.492"/><path d="M39.172 2.929s1.653 1.175 1.726 2.72c.073 1.547-1.462 2.878-1.462 2.878s-1.653-1.175-1.727-2.721c-.072-1.546 1.463-2.877 1.463-2.877M53.2 8.595s-1.653-1.175-1.727-2.721c-.073-1.546 1.463-2.877 1.463-2.877s1.653 1.175 1.726 2.72c.073 1.547-1.462 2.878-1.462 2.878"/><path d="M57.992 7.678s-1.153 1.685-2.67 1.76c-1.516.074-2.822-1.49-2.822-1.49s1.153-1.686 2.67-1.76c1.516-.075 2.822 1.49 2.822 1.49"/></g></svg>