<?xml version="1.0" encoding="utf-8"?>
<!-- Generator: Adobe Illustrator 24.1.0, SVG Export Plug-In . SVG Version: 6.00 Build 0)  -->
<svg version="1.1" id="Layer_1" xmlns="http://www.w3.org/2000/svg" xmlns:xlink="http://www.w3.org/1999/xlink" x="0px" y="0px"
	 viewBox="0 0 180.5 180.5" style="enable-background:new 0 0 180.5 180.5;" xml:space="preserve">
<style type="text/css">
	.st0{fill:#0000FF;}
	.st1{display:none;}
	.st2{display:inline;fill:#00678F;}
	.st3{display:inline;fill:#FFFFFF;}
	.st4{display:inline;fill:#ED1D24;}
	.st5{display:inline;fill:#FFCB05;}
</style>
<rect class="st0" width="180.5" height="180.5"/>
<g class="st1">
	<path class="st2" d="M174.9,89.7c0,19.3-37.9,34.9-84.6,34.9S5.7,109,5.7,89.7s37.9-34.9,84.6-34.9C137,54.9,174.9,70.5,174.9,89.7
		"/>
</g>
<g class="st1">
	<polygon class="st3" points="36.1,107 44.8,72.1 58.8,72.1 58.8,92.4 68,72.1 82.4,72.1 73.7,107 64.5,107 69.7,84.4 58.8,107 
		51.4,107 51.4,84.4 45.7,107 	"/>
	<polygon class="st4" points="85.2,107.4 86.6,102.5 96.6,102.5 95.3,107.4 	"/>
	<polygon class="st3" points="107.8,107 116.5,72.1 126.6,72.1 130.9,90.6 135.7,72.1 144.9,72.1 136.2,107 126.6,107 121.7,88 
		116.9,107 	"/>
	<polygon class="st5" points="85.2,72.1 83.1,80.9 92.2,80.9 87.3,100.1 97.3,100.1 102.3,80.9 111.5,80.9 113.7,72.1 	"/>
</g>
<image style="overflow:visible;" width="500" height="246" xlink:href="../../../../../../../../co/KDDA-banner-1.png"  transform="matrix(0.34 0 0 0.34 5.25 48.43)">
</image>
</svg>
