<svg width="282" height="51" viewBox="0 0 282 51" xmlns="http://www.w3.org/2000/svg"><title>7BCD740A-6E7C-4D30-A962-DD2C3B4D6952</title><g fill="none" fill-rule="evenodd"><path d="M180.656 27.975c0-5.647 4.218-9.504 9.646-9.504 3.72 0 6.009 1.929 7.387 4.133l-2.756 1.405c-.882-1.515-2.647-2.672-4.631-2.672-3.638 0-6.339 2.782-6.339 6.638s2.7 6.64 6.339 6.64a5.4 5.4 0 0 0 4.631-2.674l2.756 1.405c-1.405 2.204-3.666 4.132-7.387 4.132-5.428 0-9.646-3.857-9.646-9.503m21.828 9.172h3.226V18.774h-3.226zm20.12-12.616c0-1.763-1.323-2.92-3.143-2.92h-4.41v5.84h4.41c1.82 0 3.143-1.156 3.143-2.92zm-.276 12.616l-4.08-6.858h-3.197v6.858h-3.224V18.774h8.076c3.638 0 6.008 2.37 6.008 5.757 0 3.278-2.15 5.041-4.355 5.4l4.492 7.216h-3.72zm8.185-9.172c0-5.647 4.218-9.504 9.646-9.504 3.721 0 6.01 1.929 7.387 4.133l-2.755 1.405c-.883-1.515-2.647-2.672-4.632-2.672-3.638 0-6.338 2.782-6.338 6.638s2.7 6.64 6.338 6.64a5.4 5.4 0 0 0 4.632-2.674l2.755 1.405c-1.406 2.204-3.666 4.132-7.387 4.132-5.428 0-9.646-3.857-9.646-9.503m21.829 9.172V18.774h3.225V34.31h8.103v2.837zm16.454 0V18.774h12.596v2.837h-9.37v4.766h9.177v2.837h-9.178v5.096h9.371v2.837z" fill="#15486B"/><path d="M60.85 31.49c0-.912-.663-1.657-1.822-1.657H54.25v3.312h4.778c1.132 0 1.822-.663 1.822-1.656zm-.358-7.233c0-.883-.664-1.518-1.63-1.518H54.25v3.064h4.611c.967 0 1.63-.635 1.63-1.546zm-10.993 12.89v-18.41h10.44c3.645 0 5.385 2.374 5.385 4.693 0 2.29-1.408 3.836-3.149 4.222 1.961.305 3.508 2.181 3.508 4.5 0 2.678-1.795 4.996-5.413 4.996H49.499zM78.443 23.43l-2.347 6.927h4.694l-2.347-6.928zm4.556 13.717l-.91-2.65h-7.264l-.911 2.65h-5.385l6.932-18.41h5.964l6.96 18.41H83zm21.985-9.191c0-3.009-1.96-5.326-4.998-5.326-3.066 0-5.027 2.317-5.027 5.326 0 2.981 1.961 5.327 5.027 5.327 3.037 0 4.998-2.346 4.998-5.327m-14.857 0c0-5.603 4.224-9.522 9.859-9.522 5.633 0 9.83 3.919 9.83 9.522 0 5.604-4.197 9.523-9.83 9.523-5.635 0-9.86-3.92-9.86-9.523m35.654 3.534c0-.912-.663-1.657-1.822-1.657h-4.778v3.312h4.778c1.132 0 1.822-.663 1.822-1.656zm-.358-7.233c0-.883-.663-1.518-1.63-1.518h-4.612v3.064h4.612c.967 0 1.63-.635 1.63-1.546zm-10.993 12.89v-18.41h10.44c3.646 0 5.386 2.374 5.386 4.693 0 2.29-1.409 3.836-3.15 4.222 1.961.305 3.508 2.181 3.508 4.5 0 2.678-1.795 4.996-5.413 4.996h-10.77zm28.944-13.717l-2.347 6.927h4.695l-2.348-6.928zm4.557 13.717l-.91-2.65h-7.264l-.912 2.65h-5.385l6.932-18.41h5.965l6.96 18.41h-5.386zm20.3-5.657c0-.912-.664-1.657-1.823-1.657h-4.778v3.312h4.778c1.132 0 1.823-.663 1.823-1.656zm-.359-7.233c0-.883-.663-1.518-1.63-1.518h-4.612v3.064h4.612c.967 0 1.63-.635 1.63-1.546zm-10.993 12.89v-18.41h10.44c3.646 0 5.386 2.374 5.386 4.693 0 2.29-1.409 3.836-3.15 4.222 1.961.305 3.508 2.181 3.508 4.5 0 2.678-1.795 4.996-5.413 4.996h-10.77z" fill="#F19B3E"/><path d="M25.051 17.591c.223-2.222 2.9-3.844 2.978-4.564.09-.82-.598-1.733-1.556-1.71-.835.02-3.42 3.126-4.509 2.814-1.088-.31-.622-4.11-1.14-4.73-.287-.346-.642-.51-1.292-.521-.651.012-1.006.175-1.293.52-.518.622-.052 4.421-1.14 4.731-1.09.312-3.674-2.794-4.51-2.814-.957-.023-1.644.89-1.554 1.71.079.72 2.754 2.342 2.977 4.564.223 2.223-4.473 12.025-4.473 28.332 0 1.597 6.218 2.963 9.993 2.963 3.774 0 9.994-1.366 9.994-2.963 0-16.307-4.698-26.11-4.475-28.332" fill="#15486B"/><path d="M19.532 50.143a19.408 19.408 0 0 1-13.811-5.718A19.389 19.389 0 0 1 0 30.622a19.389 19.389 0 0 1 5.72-13.804.706.706 0 1 1 1 1c-7.063 7.06-7.063 18.547 0 25.608a17.999 17.999 0 0 0 12.811 5.304c4.84 0 9.388-1.883 12.81-5.304 7.064-7.061 7.064-18.548 0-25.608a.706.706 0 1 1 1-1 19.383 19.383 0 0 1 5.72 13.804 19.38 19.38 0 0 1-5.72 13.803 19.408 19.408 0 0 1-13.81 5.718" fill="#15486B"/><path d="M20.451 7.67s-3.915.502-6.017-1.601c-2.1-2.103-1.591-6.017-1.591-6.017s3.916-.502 6.017 1.601c2.1 2.105 1.591 6.017 1.591 6.017" fill="#F19B3E"/><path d="M26.222.064s.502 3.914-1.602 6.014-6.02 1.59-6.02 1.59-.502-3.913 1.602-6.013c2.106-2.1 6.02-1.59 6.02-1.59" fill="#1F598A"/><path d="M11.048 10.487s-1.578 2.261-3.654 2.362c-2.076.099-3.863-2.001-3.863-2.001s1.578-2.262 3.654-2.363c2.076-.099 3.863 2.002 3.863 2.002" fill="#F19B3E"/><path d="M9.817 3.93s2.263 1.578 2.364 3.652c.099 2.075-2.003 3.862-2.003 3.862S7.916 9.867 7.815 7.792c-.1-2.075 2.002-3.861 2.002-3.861" fill="#1F598A"/><path d="M29.02 11.535s-2.264-1.577-2.364-3.652c-.1-2.075 2.002-3.86 2.002-3.86s2.263 1.576 2.363 3.651c.1 2.075-2.002 3.861-2.002 3.861" fill="#F19B3E"/><path d="M35.579 10.305S34 12.566 31.925 12.667c-2.076.1-3.863-2.001-3.863-2.001s1.577-2.262 3.653-2.362c2.077-.1 3.864 2 3.864 2" fill="#1F598A"/></g></svg>