<svg width="81" height="73" viewBox="0 0 81 73" xmlns="http://www.w3.org/2000/svg"><title>E1295AD9-08B3-480C-93E3-9B5E10FC0F3E</title><g fill="#FFF" fill-rule="evenodd"><path d="M27.575 61.442h-3.18v4.24h3.18c1.312 0 2.266-.84 2.266-2.121 0-1.279-.954-2.119-2.266-2.119zm-5.504-2.06h5.823c2.782 0 4.332 1.918 4.332 4.179 0 2.26-1.572 4.18-4.332 4.18h-3.499v4.98h-2.324V59.382zm14.963 8.72h4.97l-2.485-6.74-2.485 6.74zm5.624 2.06h-6.28l-.974 2.559H32.86l5.206-13.339h2.903l5.206 13.339h-2.543l-.974-2.56zm12.062-8.72h-3.18v4.24h3.18c1.312 0 2.266-.84 2.266-2.121 0-1.279-.954-2.119-2.266-2.119zm-5.505-2.06h5.825c2.781 0 4.332 1.918 4.332 4.179 0 2.26-1.572 4.18-4.332 4.18h-3.5v4.98h-2.324V59.382zM7.646 32.544L.55 51.516h5.288l.96-2.87h7.829l.964 2.87h5.284L13.75 32.544H7.646zm3.054 4.267l2.656 7.71H8.071l2.629-7.71zm13.826-4.267h13.822v4.124h-8.96v3.16h8.763v4.153h-8.764v7.536h-4.861zm24.195 11.321L41.57 32.543h5.485l4.097 7 4.043-7h5.512l-7.123 11.322v7.653h-4.862zm18.941-11.321l-7.096 18.972h5.286l.962-2.87h7.829l.962 2.87h5.286l-7.124-18.972h-6.105zm3.052 4.267l2.658 7.71h-5.285l2.627-7.71z"/><path d="M45.278 22.38s-11.297 2.028-17.695-3.82C21.185 12.71 22.108 1.2 22.108 1.2S33.404-.828 39.803 5.02c6.398 5.85 5.475 17.36 5.475 17.36" opacity=".9"/><path d="M36.116 22.38s11.297 2.028 17.695-3.82c6.398-5.85 5.475-17.36 5.475-17.36S47.989-.828 41.591 5.02c-6.398 5.85-5.475 17.36-5.475 17.36" opacity=".6"/></g></svg>