<svg id="Layer_1" data-name="Layer 1" xmlns="http://www.w3.org/2000/svg" viewBox="0 0 180.5 180.5"><defs><style>.cls-1{fill:#fff;}.cls-2,.cls-5{fill:#9f6c2b;}.cls-2,.cls-3{fill-rule:evenodd;}.cls-3,.cls-4{fill:#2e3192;}</style></defs><rect class="cls-1" width="180.5" height="180.5"/><g id="Layer_2" data-name="Layer 2"><path class="cls-2" d="M13.78,108.75c6-19,9.28-37.78.82-55.88C24.16,61.77,27.88,68.68,25,93.64c-2,17.1-1.31,20.78,4.11,29.25C7.43,124.38,1.28,109,13,74.07c-3,19.35-1.91,28.49.82,34.68Z"/><path class="cls-3" d="M11.33,98a106.08,106.08,0,0,0,7.72-11.45,130.32,130.32,0,0,1-5.27,22.2A31.85,31.85,0,0,1,11.33,98ZM25.42,71.68A37.72,37.72,0,0,0,25.94,53c5.14,11.07,4.15,20.52-.13,30.62a62.06,62.06,0,0,0-.39-12Z"/><path class="cls-2" d="M24.11,128.09c-5.39.39-10.35-1.49-12.72-5.34h4.43c4.48,3.88,9.68,4,15.68,0h4a16.73,16.73,0,0,1-11.36,5.34Z"/><polygon class="cls-2" points="16.96 128.89 30.59 128.89 30.59 130.25 16.96 130.25 16.96 128.89 16.96 128.89"/><path class="cls-4" d="M155.23,78.71h12.15a17.7,17.7,0,0,0-.6-4.44,6.91,6.91,0,0,0-2.14-3.14,4.61,4.61,0,0,0-3-1.15,5.43,5.43,0,0,0-4.26,2.31,11.35,11.35,0,0,0-2.19,6.42Zm0,2.06q0,7.28,2.84,11.42t6.74,4.13a6.43,6.43,0,0,0,4.48-1.76c1.27-1.16,2.33-3.21,3.19-6.09l.88.72a19,19,0,0,1-3.49,9,8.64,8.64,0,0,1-7.24,4q-4.73,0-8.09-4.6t-3.36-12.36c0-5.6,1.15-10,3.45-13.11a10.37,10.37,0,0,1,8.66-4.7,8.81,8.81,0,0,1,7.24,3.63q2.83,3.63,2.83,9.72Z"/><path class="cls-4" d="M140,70.94V92.58q0,4.56.8,5.77a3.32,3.32,0,0,0,2.86,1.56H146v1.32H130.27V99.91h1.17a3.37,3.37,0,0,0,2.1-.71,3.61,3.61,0,0,0,1.3-1.93,19.63,19.63,0,0,0,.36-4.69V70.94h-5.11V68.37h5.11V66.23A23.92,23.92,0,0,1,136.46,58a12.35,12.35,0,0,1,3.86-5.46,9.09,9.09,0,0,1,5.85-2.09,7.87,7.87,0,0,1,5.56,2.42,4.87,4.87,0,0,1,1.66,3.58,3.12,3.12,0,0,1-.74,2,2.1,2.1,0,0,1-1.62,1,2.24,2.24,0,0,1-1.38-.59,8.8,8.8,0,0,1-1.8-2.52,8.59,8.59,0,0,0-1.95-2.6,3.16,3.16,0,0,0-2-.68,3.19,3.19,0,0,0-2.24.87,5.42,5.42,0,0,0-1.32,2.72A64.19,64.19,0,0,0,140,66v2.35h6.75v2.57Z"/><path class="cls-4" d="M120.87,67.42v26.4a14.69,14.69,0,0,0,.36,4.08,3,3,0,0,0,1.06,1.51,4.76,4.76,0,0,0,2.57.5v1.32H112.13V99.91a4.92,4.92,0,0,0,2.56-.46,3.1,3.1,0,0,0,1-1.53,14,14,0,0,0,.39-4.1V81.13a55.46,55.46,0,0,0-.26-6.87,3,3,0,0,0-.63-1.57,1.52,1.52,0,0,0-1.17-.46,4.85,4.85,0,0,0-1.94.54l-.41-1.32,7.9-4Z"/><path class="cls-5" d="M116.56,50.74a5.67,5.67,0,0,1,4.15,1.73,6.15,6.15,0,0,1,0,8.49,5.76,5.76,0,0,1-8.33,0,5.83,5.83,0,0,1-1.75-4.26,5.92,5.92,0,0,1,1.71-4.23,5.75,5.75,0,0,1,4.22-1.73Z"/><path class="cls-4" d="M103,50.25V93.82a15,15,0,0,0,.35,4.06,3.09,3.09,0,0,0,1.11,1.52,5.26,5.26,0,0,0,2.77.51v1.32H94.33V99.91a4.7,4.7,0,0,0,2.47-.46,3.1,3.1,0,0,0,1-1.53,15,15,0,0,0,.37-4.1V64a64,64,0,0,0-.2-6.75,3.27,3.27,0,0,0-.64-1.72A1.52,1.52,0,0,0,96.23,55a4.56,4.56,0,0,0-1.88.58l-.49-1.33,7.81-4Z"/><path class="cls-4" d="M62.26,101.23l-15-40.92V92.8q0,4.49.78,5.61a3.89,3.89,0,0,0,3.4,1.5h1.39v1.32H39.14V99.91h1.4A3.73,3.73,0,0,0,44.08,98c.42-.77.63-2.52.63-5.24V61a13.79,13.79,0,0,0-.57-4.67,3.84,3.84,0,0,0-1.5-1.75,6.79,6.79,0,0,0-3.5-.69V52.6H50.29l14,38,13.9-38h11v1.32H87.9a3.76,3.76,0,0,0-3.58,1.87c-.42.77-.64,2.52-.64,5.24V92.8c0,3,.28,4.86.82,5.61a3.88,3.88,0,0,0,3.4,1.5h1.36v1.32H72.59V99.91H74A3.68,3.68,0,0,0,77.53,98c.42-.77.64-2.52.64-5.24V60.31l-15,40.92Z"/><polygon class="cls-3" points="36.46 107.22 172.58 107.22 172.58 109.25 36.46 109.25 36.46 107.22 36.46 107.22"/><path class="cls-4" d="M39.2,115.91v-3.85h1.17l.68,2.62.69-2.62H42.9v3.85h-.71v-3l-.76,3h-.74l-.76-3v3Zm7.95,0h-.84L46,115H44.43l-.32.88h-.82l1.49-3.85h.83l1.54,3.85Zm-1.43-1.53L45.19,113l-.52,1.42Zm1.84-2.32H49a2.68,2.68,0,0,1,.73.08,1.25,1.25,0,0,1,.58.35,1.66,1.66,0,0,1,.36.62,2.69,2.69,0,0,1,.13.91,2.49,2.49,0,0,1-.12.82,1.59,1.59,0,0,1-.41.68,1.48,1.48,0,0,1-.54.31,2.56,2.56,0,0,1-.69.08H47.56v-3.85Zm.78.65v2.55h.58a1.84,1.84,0,0,0,.47,0,.66.66,0,0,0,.31-.16.8.8,0,0,0,.2-.37A2.59,2.59,0,0,0,50,114a2.41,2.41,0,0,0-.08-.69.89.89,0,0,0-.22-.37.68.68,0,0,0-.36-.18,2.89,2.89,0,0,0-.63,0Zm3.07,3.2v-3.85h.78v3.85Zm1.32-1.25.76-.07a.87.87,0,0,0,.27.55.84.84,0,0,0,.56.18.86.86,0,0,0,.57-.16.48.48,0,0,0,.19-.37.36.36,0,0,0-.08-.23.79.79,0,0,0-.28-.17l-.62-.16a2,2,0,0,1-.87-.39,1,1,0,0,1-.19-1.32,1,1,0,0,1,.48-.39,1.89,1.89,0,0,1,.75-.14,1.63,1.63,0,0,1,1.09.32,1.15,1.15,0,0,1,.38.86l-.78,0a.63.63,0,0,0-.21-.43.75.75,0,0,0-.49-.13.8.8,0,0,0-.52.14.29.29,0,0,0-.13.24.28.28,0,0,0,.12.23,2.06,2.06,0,0,0,.71.26,3.52,3.52,0,0,1,.84.28,1,1,0,0,1,.42.39,1.23,1.23,0,0,1,0,1.23,1.11,1.11,0,0,1-.52.43,2.23,2.23,0,0,1-.84.14,1.67,1.67,0,0,1-1.12-.34,1.44,1.44,0,0,1-.46-1Zm3.62-.65a2.43,2.43,0,0,1,.18-1,1.91,1.91,0,0,1,.36-.53,1.77,1.77,0,0,1,.49-.35,2.16,2.16,0,0,1,.83-.15,1.83,1.83,0,0,1,1.37.53,2.36,2.36,0,0,1,0,2.93,2,2,0,0,1-2.72,0,2,2,0,0,1-.51-1.44Zm.8,0a1.43,1.43,0,0,0,.31,1,1,1,0,0,0,.76.34A1,1,0,0,0,59,115a1.84,1.84,0,0,0,0-2,1,1,0,0,0-.78-.32,1,1,0,0,0-.77.33,1.43,1.43,0,0,0-.3,1Zm3.54,1.93v-3.85h.76L63,114.64v-2.58h.72v3.85H63l-1.56-2.53v2.53Zm5.39,0v-3.82h.78v3.17h1.93v.65Zm3.24,0v-3.85h.78v3.85Zm1.52,0v-3.85h2.64v.65H71.61v.91h1.62v.65H71.61v1.64Zm3.28,0v-3.85H77v.65H74.9v.86h1.92v.65H74.9v1H77v.65Zm5,0v-3.85h.78v3.85Zm1.52,0v-3.85h.76L83,114.64v-2.58h.72v3.85H83l-1.56-2.53v2.53Zm3.68-1.25.75-.07a.93.93,0,0,0,.28.55.84.84,0,0,0,.56.18.81.81,0,0,0,.56-.16.46.46,0,0,0,.19-.37.31.31,0,0,0-.08-.23.66.66,0,0,0-.27-.17l-.62-.16a2.07,2.07,0,0,1-.88-.39,1,1,0,0,1-.35-.77,1,1,0,0,1,.17-.55,1,1,0,0,1,.48-.39,1.89,1.89,0,0,1,.75-.14,1.65,1.65,0,0,1,1.09.32,1.15,1.15,0,0,1,.38.86l-.78,0a.63.63,0,0,0-.21-.43.75.75,0,0,0-.49-.13.8.8,0,0,0-.52.14.27.27,0,0,0-.13.24.28.28,0,0,0,.12.23,2.06,2.06,0,0,0,.71.26,3.52,3.52,0,0,1,.84.28,1,1,0,0,1,.42.39,1.23,1.23,0,0,1,0,1.23,1.16,1.16,0,0,1-.52.43,2.23,2.23,0,0,1-.84.14,1.65,1.65,0,0,1-1.12-.34,1.44,1.44,0,0,1-.46-1Zm3.78-2.6h.78v2.09a4.14,4.14,0,0,0,0,.64.6.6,0,0,0,.24.38.82.82,0,0,0,.5.14.79.79,0,0,0,.5-.13.57.57,0,0,0,.2-.34,4.78,4.78,0,0,0,0-.65v-2.13h.78v2a5.39,5.39,0,0,1-.06,1,1.13,1.13,0,0,1-.24.49,1.16,1.16,0,0,1-.45.31,1.85,1.85,0,0,1-.73.12,2,2,0,0,1-.84-.13,1.14,1.14,0,0,1-.44-.33,1,1,0,0,1-.22-.43,4.6,4.6,0,0,1-.08-1v-2.06ZM92,115.91v-3.85h1.64a2.67,2.67,0,0,1,.89.11.84.84,0,0,1,.45.36,1.14,1.14,0,0,1,.17.61,1,1,0,0,1-.25.72,1.29,1.29,0,0,1-.76.35,2,2,0,0,1,.41.32,4.17,4.17,0,0,1,.44.63l.47.75h-.93l-.55-.84a4.6,4.6,0,0,0-.42-.57.69.69,0,0,0-.23-.16,1.65,1.65,0,0,0-.39,0H92.8v1.61Zm.78-2.22h.58a2.9,2.9,0,0,0,.69,0,.4.4,0,0,0,.22-.16.52.52,0,0,0,.08-.29.5.5,0,0,0-.1-.31.48.48,0,0,0-.3-.15,4.92,4.92,0,0,0-.56,0H92.8v1Zm6.56,2.22h-.83l-.34-.88H96.65l-.32.88h-.82L97,112.06h.82l1.54,3.85Zm-1.42-1.53L97.41,113l-.52,1.42Zm1.84,1.53v-3.85h.75l1.59,2.58v-2.58h.71v3.85h-.77l-1.56-2.53v2.53Zm6.34-1.42.75.23a1.71,1.71,0,0,1-.58.94,1.61,1.61,0,0,1-1,.31,1.65,1.65,0,0,1-1.26-.52,2,2,0,0,1-.49-1.43,2.14,2.14,0,0,1,.49-1.5,1.72,1.72,0,0,1,1.31-.53,1.57,1.57,0,0,1,1.14.42,1.52,1.52,0,0,1,.4.71l-.77.18a.87.87,0,0,0-1.51-.33,1.53,1.53,0,0,0-.26,1,1.67,1.67,0,0,0,.26,1,.87.87,0,0,0,.68.31.8.8,0,0,0,.54-.2,1.17,1.17,0,0,0,.32-.62Zm1.42,1.42v-3.85h2.84v.65h-2.07v.86h1.93v.65h-1.93v1h2.15v.65Zm7.53-1.42.75.23a1.7,1.7,0,0,1-.57.94,1.62,1.62,0,0,1-1,.31,1.65,1.65,0,0,1-1.26-.52,2,2,0,0,1-.49-1.43,2.14,2.14,0,0,1,.5-1.5,1.7,1.7,0,0,1,1.3-.53,1.45,1.45,0,0,1,1.54,1.13l-.77.18a.81.81,0,0,0-.28-.47.86.86,0,0,0-.53-.17.85.85,0,0,0-.69.31,1.47,1.47,0,0,0-.27,1,1.67,1.67,0,0,0,.26,1,.9.9,0,0,0,.69.31.79.79,0,0,0,.53-.2,1.11,1.11,0,0,0,.32-.62Zm1.26-.48a2.62,2.62,0,0,1,.17-1,1.91,1.91,0,0,1,.36-.53,1.68,1.68,0,0,1,.5-.35,2.16,2.16,0,0,1,.83-.15,1.81,1.81,0,0,1,1.36.53,2.36,2.36,0,0,1,0,2.93,1.78,1.78,0,0,1-1.35.53,1.83,1.83,0,0,1-1.37-.53,2,2,0,0,1-.5-1.44Zm.8,0a1.43,1.43,0,0,0,.3,1,1,1,0,0,0,1.53,0,1.84,1.84,0,0,0,0-2,1.09,1.09,0,0,0-1.55,0,1.48,1.48,0,0,0-.29,1Zm3.53,1.93v-3.85h1.16l.69,2.62.68-2.62h1.17v3.85h-.72v-3l-.76,3h-.75l-.75-3v3Zm4.48,0v-3.85h1.25a4.37,4.37,0,0,1,.92.06,1,1,0,0,1,.55.38,1.17,1.17,0,0,1,.22.75,1.32,1.32,0,0,1-.12.59,1.12,1.12,0,0,1-.33.38,1.18,1.18,0,0,1-.4.18,4.17,4.17,0,0,1-.81.06h-.5v1.45Zm.78-3.2v1.1h.42a2,2,0,0,0,.61-.06.54.54,0,0,0,.25-.19.61.61,0,0,0,.08-.3.51.51,0,0,0-.12-.35.53.53,0,0,0-.31-.17,3.26,3.26,0,0,0-.56,0Zm5.87,3.2H131l-.33-.88h-1.55l-.31.88h-.83l1.49-3.85h.83l1.54,3.85Zm-1.43-1.53-.53-1.42-.52,1.42Zm1.84,1.53v-3.85H133l1.58,2.58v-2.58h.72v3.85h-.78l-1.56-2.53v2.53Zm4.89,0v-1.62l-1.41-2.23h.91l.91,1.52.89-1.52h.89l-1.41,2.23v1.62Zm3.63,0v-.7l2-2.5H141v-.65h2.82v.6l-2.11,2.6h2.19v.65Zm7.08,0H147l-.33-.88h-1.54l-.32.88H144l1.49-3.85h.82l1.54,3.85Zm-1.42-1.53-.53-1.42-.52,1.42Zm1.83,1.53v-3.85h1.16l.69,2.62.68-2.62h1.17v3.85h-.72v-3l-.76,3h-.75l-.75-3v3Zm4.48-3.85h1.54a3.89,3.89,0,0,1,.68,0,1.09,1.09,0,0,1,.4.16,1,1,0,0,1,.3.32.84.84,0,0,1,.12.45.86.86,0,0,1-.15.49,1,1,0,0,1-.39.34,1,1,0,0,1,.54.35,1,1,0,0,1,.18.58,1.13,1.13,0,0,1-.12.51,1,1,0,0,1-.33.4,1.08,1.08,0,0,1-.52.18l-.94,0h-1.31v-3.85Zm.78.64v.89H154a5.21,5.21,0,0,0,.56,0,.49.49,0,0,0,.31-.13.41.41,0,0,0,.12-.3.39.39,0,0,0-.1-.29.44.44,0,0,0-.29-.14h-1.11Zm0,1.53v1h.72a2.7,2.7,0,0,0,.53,0,.45.45,0,0,0,.28-.15.44.44,0,0,0,.11-.33.47.47,0,0,0-.08-.29.55.55,0,0,0-.24-.18,3.16,3.16,0,0,0-.69,0Zm3.07,1.68v-3.85h.78v3.85Zm5,0h-.84l-.33-.88h-1.55l-.32.88h-.82l1.49-3.85H160l1.54,3.85Zm-1.43-1.53-.53-1.42-.52,1.42Zm3.15,1.53v-3.82H164v3.17H166v.65Zm3.73,0v-3.2h-1.14v-.65h3v.65h-1.13v3.2Zm2.42-3.85h1.41a2.68,2.68,0,0,1,.73.08,1.2,1.2,0,0,1,.58.35,1.83,1.83,0,0,1,.37.62,3,3,0,0,1,.12.91,2.49,2.49,0,0,1-.12.82,1.59,1.59,0,0,1-.41.68,1.4,1.4,0,0,1-.54.31,2.51,2.51,0,0,1-.69.08H169.4v-3.85Zm.77.65v2.55h.58a1.79,1.79,0,0,0,.47,0,.61.61,0,0,0,.31-.16.8.8,0,0,0,.2-.37,2.24,2.24,0,0,0,.08-.7,2.1,2.1,0,0,0-.08-.69.8.8,0,0,0-.22-.37.69.69,0,0,0-.35-.18,3,3,0,0,0-.64,0Z"/></g></svg>