<svg xmlns="http://www.w3.org/2000/svg" viewBox="0 0 1014.09 276.17"><defs><style>.cls-1{fill:#fff;}.cls-2{fill:#600;}.cls-3{fill:#a8001d;}.cls-4{fill:#ce0028;}.cls-5{fill:#de002b;}</style></defs><g id="Layer_2" data-name="Layer 2"><g id="EDIT_DATES" data-name="EDIT DATES"><rect class="cls-1" y="0.03" width="276.13" height="276.14"/><rect x="3.45" y="3.48" width="269.23" height="269.24"/><path class="cls-1" d="M75,184v3.89c0,4.78-1.14,7.85-3.54,10.33-3,3.07-8.78,5.46-20.54,5.46-13.4,0-18.78-2.87-21.9-6.09-2.69-2.78-4.3-6.72-4.3-11.74,0-4.68,1.42-8.82,4.3-11.79,3.12-3.22,9.35-6,21.9-6,10,0,17.75,1.8,21.76,3.89v6.92c-4.77-2.68-12.64-4.73-21.76-4.73s-14,1.71-16.19,3.95c-1.75,1.8-2.64,4.29-2.64,7.8,0,3.7,1,6.14,2.64,7.84,2.17,2.25,6.19,4.09,16.19,4.09,7.94,0,12.94-1.46,14.82-3.4A5.72,5.72,0,0,0,67.45,190H47.16v-6Z"/><path class="cls-1" d="M116.84,195.6a3.29,3.29,0,0,0,.9-2.39,3.21,3.21,0,0,0-.81-2.38c-1-1.07-3-1.51-14.63-2.15-13.17-.68-17.18-1.8-19.45-4.14a7.8,7.8,0,0,1-1.88-5.7,9.09,9.09,0,0,1,2.31-6.67c2.31-2.39,6.85-4,18.46-4,9.2,0,16.14,1.37,20.53,3.16v6.39c-5-2.19-13.31-3.8-20.53-3.8-9,0-11.61.88-12.71,2a3.16,3.16,0,0,0-.8,2.29,2.9,2.9,0,0,0,.72,2.09c1,1,3.2,1.61,14,2.15,13.92.73,17.79,1.8,20.06,4.14a8.37,8.37,0,0,1,2,5.89,9.13,9.13,0,0,1-2.32,6.73c-2.35,2.44-7,4.34-19.4,4.34-9.15,0-18.13-1.51-23.22-3.8v-6.38c4.91,2.43,15.34,4.42,23.22,4.42C112.55,197.74,115.52,197,116.84,195.6Z"/><path class="cls-1" d="M188.89,202.86h-6.73V174.31l-17.63,28.55h-9.12l-17.64-28.55v28.55h-6.69V168.75h11l18,29.43,18.07-29.43h10.72Z"/><path class="cls-1" d="M225,168.56l22.29,34.3h-8.15l-5.13-8h-28l-5.13,8H193.1l22.31-34.3Zm-15.12,20.22H230.2L220,172.85Z"/><path class="cls-1" d="M239.51,169.78h-2.24v-1.24H243v1.24h-2.24v6.42h-1.24Z"/><path class="cls-1" d="M244.3,168.54h1.31l2.15,3.62,2.15-3.62h1.32v7.66H250v-5.5l-2.23,3.62h0l-2.2-3.6v5.48H244.3Z"/><rect class="cls-2" x="25.74" y="123.25" width="23.77" height="28.04"/><rect class="cls-3" x="58.45" y="109.24" width="35.65" height="42.04"/><rect class="cls-4" x="103.03" y="88.22" width="53.42" height="63.07"/><rect class="cls-5" x="166.47" y="56.7" width="79.06" height="94.59"/><path d="M313.9,3.47h50.84l41.42,67.22L447.58,3.47h50.84V177.09H450.56V77.38l-44.4,68h-1L361,77.88v99.21H313.9Z"/><path d="M517.51,3.47h50.85l30.26,100.45L632.1,3h41.42L707,103.92,737.26,3.47h49.85l-58,174.86H687.16l-35-100-34.72,100H575.55Z"/><path d="M790.33,90.78v-.5C790.33,39.68,829.27,0,881.85,0c35.47,0,58.28,14.88,73.66,36.21l-36.21,28C909.38,51.84,898,43.9,881.35,43.9c-24.3,0-41.42,20.59-41.42,45.88v.5c0,26,17.12,46.38,41.42,46.38,18.11,0,28.77-8.43,39.19-21.08l36.21,25.79c-16.37,22.57-38.44,39.19-76.89,39.19C830.26,180.56,790.33,142.61,790.33,90.78Z"/><path class="cls-5" d="M314,208.05h29c7.39,0,13.21,2,16.9,5.73a14.44,14.44,0,0,1,4.34,10.71v.19c0,7.76-4.43,11.91-9.23,14.41,7.57,2.59,12.84,6.93,12.84,15.7V255c0,11.54-9.52,17.73-23.93,17.73H314Zm26.7,27.25c7.3,0,12.19-2.86,12.19-8.77v-.19c0-5.08-4.06-8.22-11.36-8.22H325.15V235.3ZM344,262.64c7.76,0,12.47-3.05,12.47-8.86v-.19c0-5.45-4.34-8.68-13.3-8.68h-18v17.73Z"/><path class="cls-5" d="M409.21,272.71v-6c-3.33,4-8.41,7-15.8,7-9.24,0-17.37-5.27-17.37-15.06v-.18c0-10.81,8.41-16,19.77-16a41.13,41.13,0,0,1,13.49,2v-.92c0-6.75-4.25-10.44-12-10.44a34.1,34.1,0,0,0-14,3l-3-8.95a41.74,41.74,0,0,1,18.57-4.07c14.41,0,21.43,7.58,21.43,20.6v28.91Zm.27-20.41a31.84,31.84,0,0,0-11.17-1.94c-7,0-11.18,2.86-11.18,7.57v.19c0,4.62,4.16,7.2,9.42,7.2,7.39,0,12.93-4.15,12.93-10.25Z"/><path class="cls-5" d="M433.59,223.94h11.18v11c3.05-7.3,8.68-12.28,17.27-11.91v11.82h-.65c-9.79,0-16.62,6.37-16.62,19.31v18.56H433.59Z"/><path class="cls-5" d="M467.4,248.6v-.18a25.15,25.15,0,0,1,25.31-25.5c9.23,0,15,3.42,19.49,8.41l-6.93,7.48c-3.42-3.6-7-6.09-12.66-6.09-8.12,0-14,7-14,15.51v.19c0,8.68,6,15.7,14.6,15.7,5.26,0,9.14-2.49,12.65-6.09l6.75,6.64c-4.81,5.36-10.44,9.15-20,9.15A24.9,24.9,0,0,1,467.4,248.6Z"/><path class="cls-5" d="M518.75,248.51v-.18c0-14,9.89-25.41,23.84-25.41,15.51,0,23.37,12.2,23.37,26.24,0,1-.1,2-.19,3.14H529.93c1.2,7.94,6.84,12.37,14,12.37,5.45,0,9.33-2,13.21-5.81l6.56,5.81c-4.62,5.55-11,9.15-20,9.15C529.65,273.82,518.75,263.57,518.75,248.51Zm36.12-3.6c-.74-7.21-5-12.84-12.38-12.84-6.83,0-11.63,5.26-12.65,12.84Z"/><path class="cls-5" d="M577.87,205.28h11.18v67.43H577.87Z"/><path class="cls-5" d="M601,248.6v-.18c0-13.95,11.09-25.5,26-25.5s26,11.36,26,25.31v.19c0,13.85-11.09,25.4-26.14,25.4C612,273.82,601,262.46,601,248.6Zm40.83,0v-.18c0-8.59-6.19-15.7-15-15.7-9,0-14.69,7-14.69,15.51v.19c0,8.5,6.19,15.7,14.87,15.7C636.06,264.12,641.79,257,641.79,248.6Z"/><path class="cls-5" d="M664.33,223.94H675.5v7.57c3.15-4.61,7.67-8.59,15.25-8.59,11,0,17.36,7.39,17.36,18.76v31H696.94V245c0-7.57-3.79-11.92-10.44-11.92-6.47,0-11,4.53-11,12.1v27.53H664.33Z"/><path class="cls-5" d="M751.43,272.71v-6c-3.32,4-8.4,7-15.79,7-9.24,0-17.37-5.27-17.37-15.06v-.18c0-10.81,8.41-16,19.77-16a41.13,41.13,0,0,1,13.49,2v-.92c0-6.75-4.25-10.44-12-10.44a34.07,34.07,0,0,0-13.95,3l-3.05-8.95a41.71,41.71,0,0,1,18.57-4.07c14.41,0,21.43,7.58,21.43,20.6v28.91Zm.28-20.41a31.86,31.86,0,0,0-11.18-1.94c-7,0-11.17,2.86-11.17,7.57v.19c0,4.62,4.15,7.2,9.42,7.2,7.39,0,12.93-4.15,12.93-10.25Z"/><path d="M971.85,8.59h-7.59V3.53h20.67V8.59h-7.59V28.48h-5.49Z"/><path d="M989.14,3.53h5.92l6.56,10.55,6.56-10.55h5.91v25h-5.45V12.19l-7,10.65h-.15l-7-10.55V28.48h-5.38Z"/></g></g></svg>