<?xml version="1.0" encoding="utf-8"?>
<!-- Generator: Adobe Illustrator 24.1.0, SVG Export Plug-In . SVG Version: 6.00 Build 0)  -->
<svg version="1.1" id="Layer_1" xmlns="http://www.w3.org/2000/svg" xmlns:xlink="http://www.w3.org/1999/xlink" x="0px" y="0px"
	 viewBox="0 0 180.5 180.5" style="enable-background:new 0 0 180.5 180.5;" xml:space="preserve">
<style type="text/css">
	.st0{fill:#FFFFFF;}
	.st1{fill:#D3AF7A;}
	.st2{fill:#4D5CA7;}
	.st3{fill:#4F5EA7;}
	.st4{fill:#FCFDFD;}
	.st5{fill:#BDBF03;}
	.st6{fill:#04538B;}
	.st7{fill:#CE0D14;}
</style>
<rect class="st0" width="180.5" height="180.5"/>
<g id="Layer_2">
	<g>
		<path class="st6" d="M67.7,76.6c2.4-3.9,6.9-3.6,8.7,0c0.3-0.3,0.5-0.7,0.8-1c1.8-2.2,5-2.2,6.9-1c1,0.7,1.5,1.7,1.6,2.9
			c0.1,0.5,0.1,1,0.1,1.5c0,4.2,0,8.4,0,12.6c0,0.3-0.1,0.4-0.4,0.4c-0.6,0-1.2,0-1.8,0c-0.4,0-0.4-0.1-0.4-0.4c0-4.2,0-8.3,0-12.5
			c0-0.5,0-1.1-0.2-1.6c-0.2-0.7-0.7-1.2-1.4-1.4c-2.4-0.6-4.6,1.1-4.7,3.2c0,0.9,0,1.9,0,2.8c0,3.1,0,6.2,0,9.3
			c0,0.4-0.1,0.5-0.5,0.5c-0.6,0-1.1,0-1.7,0c-0.4,0-0.4-0.1-0.4-0.4c0-4,0-8.1,0-12.1c0-0.6,0-1.2-0.2-1.8
			c-0.3-0.8-0.8-1.3-1.7-1.5c-2.2-0.5-4.5,1-4.5,3.5c0,4,0,7.9,0,11.9c0,0.4-0.1,0.5-0.5,0.5c-0.6,0-1.1,0-1.7,0
			c-0.3,0-0.4-0.1-0.4-0.4c0-4.5,0-9.1,0-13.6c0-1.1,0-2.2,0-3.4c0-0.3,0.1-0.4,0.3-0.4c0.6,0,1.2,0,1.8,0c0.3,0,0.4,0.1,0.4,0.4
			C67.7,75.2,67.7,75.9,67.7,76.6z"/>
		<path class="st6" d="M6.2,79.3c0-4.1,0-8.2,0-12.2c0-0.4,0.1-0.5,0.5-0.5c2.4,0.1,4.7-0.1,7.1,0.1c1.6,0.1,3.1,0.5,4.3,1.8
			c0.9,1,1.4,2.3,1.6,3.6c0.2,1.5,0.2,3-0.3,4.5c-0.7,2.4-2.5,3.8-5,4.1c-1.7,0.2-3.3,0.2-5,0.2c-0.4,0-0.5,0.1-0.5,0.5
			c0,3.4,0,6.8,0,10.1c0,0.4-0.1,0.5-0.5,0.5c-0.5,0-1.1,0-1.6,0c-0.4,0-0.5-0.1-0.5-0.5C6.2,87.4,6.2,83.3,6.2,79.3z M8.8,73.7
			c0,1.4,0,2.9,0,4.3c0,0.1-0.1,0.3,0.2,0.3c1.7,0,3.4,0.1,5-0.2c1.6-0.3,2.4-1,2.8-2.6c0.2-0.9,0.2-1.7,0.1-2.6
			c-0.2-2.2-1.2-3.4-3.4-3.7c-1.4-0.2-2.9-0.1-4.3-0.1c-0.4,0-0.4,0.1-0.4,0.4C8.8,70.9,8.8,72.3,8.8,73.7z"/>
		<path class="st6" d="M25.6,76.4c0.3-0.4,0.6-0.7,0.9-1c1.6-1.6,3.6-1.9,5.7-1.2c1.5,0.5,2.2,1.8,2.4,3.3c0.1,0.5,0.1,0.9,0.1,1.4
			c0,4.2,0,8.4,0,12.5c0,0.4-0.1,0.5-0.5,0.5c-0.6,0-1.1,0-1.7,0c-0.3,0-0.4-0.1-0.4-0.4c0-4,0-8.1,0-12.1c0-0.6,0-1.1-0.2-1.7
			c-0.3-0.8-0.8-1.4-1.7-1.6c-2.2-0.5-4.4,1.1-4.5,3.4c-0.1,2.8,0,5.6,0,8.4c0,1.2,0,2.4,0,3.6c0,0.3-0.1,0.4-0.4,0.4
			c-0.6,0-1.3,0-1.9,0c-0.2,0-0.3-0.1-0.3-0.3c0-0.7,0-1.4,0-2.1c0-7.5,0-15,0-22.5c0-0.4,0.1-0.5,0.5-0.5c0.6,0,1.2,0,1.7,0
			c0.3,0,0.4,0.1,0.4,0.4c0,2.9,0,5.9,0,8.8C25.6,76,25.6,76.2,25.6,76.4z"/>
		<path class="st6" d="M47.4,89.6c-0.3,0.5-0.7,1-1.1,1.4c-1.6,1.6-4.4,1.9-6.1,0.5c-0.6-0.5-1-1.1-1.2-1.8
			c-0.5-1.7-0.5-3.4,0.2-5.1c0.7-1.9,2.1-2.9,4.1-3.2c1.2-0.2,2.4-0.3,3.5-0.4c0.2,0,0.3,0,0.3-0.2c0.1-1,0.1-2,0-2.9
			c-0.2-1.3-0.7-1.8-2-2c-0.5-0.1-1.1-0.1-1.6,0c-1.2,0.2-1.7,0.8-1.8,2c0,0.3-0.1,0.5,0,0.8c0,0.3-0.1,0.4-0.4,0.4
			c-0.6,0-1.1,0-1.7,0c-0.2,0-0.3-0.1-0.3-0.3c0-0.9,0.1-1.7,0.4-2.5c0.5-1.2,1.3-1.9,2.5-2.3c1.3-0.4,2.7-0.5,4.1-0.2
			c2.2,0.5,3.4,2,3.4,4.3c0,3.2,0,6.4,0,9.7c0,1.4,0,2.7,0.2,4.1c0,0.3-0.1,0.3-0.3,0.3c-0.6,0-1.2,0-1.8,0c-0.2,0-0.3-0.1-0.3-0.3
			C47.5,91.1,47.5,90.3,47.4,89.6z M47.1,85.1c0-0.5,0-1.1,0-1.6c0-0.3-0.1-0.4-0.4-0.4c-1.3,0-2.6,0.3-3.8,0.9
			c-0.6,0.3-1.1,0.8-1.4,1.4c-0.4,1.1-0.4,2.2-0.1,3.3c0.2,0.8,0.8,1.2,1.5,1.4c1.8,0.4,3.4-0.7,3.8-2.4C47.1,86.9,47,86,47.1,85.1z
			"/>
		<path class="st6" d="M140.3,83.1c-1.3,0-2.7,0-4,0c-0.3,0-0.4,0.1-0.4,0.4c0.1,1.3,0,2.7,0.3,4c0,0.2,0.1,0.4,0.1,0.5
			c0.5,1.5,1.5,2.3,3,2.2c1.5-0.1,2.5-1,2.8-2.6c0.1-0.5,0.1-1,0.1-1.5c0-0.2,0.1-0.3,0.3-0.3c0.6,0,1.2,0,1.9,0
			c0.1,0,0.3,0,0.3,0.2c0,1.8-0.3,3.5-1.6,4.8c-1.2,1.3-2.7,1.6-4.4,1.5c-2.5-0.2-3.9-1.7-4.6-4c-0.7-2.1-0.8-4.2-0.7-6.4
			c0.1-1.8,0.3-3.5,1-5.1c0.6-1.4,1.4-2.6,2.8-3.2c1.8-0.7,3.5-0.6,5.2,0.4c1.2,0.7,1.8,2,2.1,3.3c0.4,1.8,0.4,3.6,0.4,5.4
			c0,0.3-0.1,0.3-0.3,0.3C143,83.1,141.6,83.1,140.3,83.1C140.3,83.1,140.3,83.1,140.3,83.1z M138.9,80.9c0.9,0,1.8,0,2.8,0
			c0.2,0,0.3,0,0.3-0.2c0-1,0-2-0.3-2.9c-0.2-1-0.7-1.8-1.7-2.1c-1.6-0.6-3.1,0.2-3.7,1.9c-0.3,1-0.4,2-0.4,3c0,0.3,0,0.5,0.4,0.4
			C137.2,80.9,138,80.9,138.9,80.9z"/>
		<path class="st6" d="M156.8,78.6c-0.4,0-0.8,0.1-1.1,0c-0.3-0.2-0.1-0.7-0.2-1c-0.2-1.2-0.8-1.8-2-2c-0.7-0.1-1.4-0.1-2,0.1
			c-0.9,0.3-1.4,0.9-1.6,1.8c-0.3,1.7,0.2,2.7,1.8,3.4c1.2,0.5,2.4,1,3.6,1.5c0.4,0.2,0.7,0.3,1.1,0.5c2,1.1,2.7,2.7,2.4,4.9
			c-0.4,2.7-2.3,4.4-5,4.6c-0.9,0.1-1.8,0.1-2.8-0.1c-2.4-0.6-3.7-2.2-3.9-4.8c0-0.8,0-0.8,0.8-0.8c0.4,0,0.9,0,1.3,0
			c0.2,0,0.3,0.1,0.3,0.3c0,0.4,0,0.9,0.1,1.3c0.2,1,0.8,1.6,1.8,1.9c0.9,0.2,1.8,0.2,2.7-0.1c1.2-0.4,1.8-1.2,1.9-2.4
			c0.1-1.5-0.4-2.4-1.8-3c-1.1-0.5-2.3-0.9-3.4-1.3c-1-0.4-1.9-0.8-2.6-1.6c-1-1.1-1.2-2.5-1-3.9c0.3-2.7,2.3-4.5,5.1-4.5
			c0.8,0,1.6,0,2.3,0.2c2.1,0.5,3.3,2,3.5,4.1c0.1,1,0.1,1-0.9,1C157,78.7,156.9,78.7,156.8,78.6C156.8,78.6,156.8,78.6,156.8,78.6z
			"/>
		<path class="st6" d="M170.7,78.6c-0.4,0-0.8,0.1-1.1,0c-0.3-0.2-0.1-0.7-0.2-1c-0.2-1.2-0.8-1.8-2-2c-0.5-0.1-1.1-0.1-1.6,0
			c-1.2,0.2-1.9,0.9-2.1,2.2c-0.2,1.5,0.3,2.5,1.7,3.1c1.2,0.5,2.4,1,3.6,1.5c0.5,0.2,0.9,0.4,1.4,0.7c1.8,1,2.5,2.5,2.3,4.6
			c-0.4,3.1-2.7,4.5-5.1,4.8c-1,0.1-2,0.1-3-0.2c-2.1-0.6-3.4-2.3-3.5-4.6c0-0.9,0-0.9,0.9-0.9c0.4,0,0.8,0,1.3,0
			c0.2,0,0.3,0.1,0.3,0.3c0,0.4,0,0.9,0.1,1.3c0.2,1,0.8,1.6,1.8,1.8c1,0.2,1.9,0.2,2.9-0.1c1.1-0.4,1.6-1.2,1.7-2.4
			c0.1-1.5-0.4-2.3-1.7-3c-1.1-0.5-2.2-0.8-3.3-1.2c-0.5-0.2-1-0.4-1.4-0.6c-1.4-0.7-2.3-1.9-2.5-3.5c-0.2-1.9,0.2-3.5,1.7-4.8
			c0.8-0.7,1.8-1.1,2.9-1.2c1.2-0.1,2.4,0,3.6,0.4c1.8,0.7,2.6,2.2,2.7,4.1c0.1,0.8,0,0.8-0.8,0.8C171,78.7,170.8,78.7,170.7,78.6
			C170.7,78.6,170.7,78.6,170.7,78.6z"/>
		<path class="st6" d="M108.2,83.1c0,1.4,0,2.8,0.3,4.1c0.1,0.6,0.3,1.1,0.6,1.6c0.7,1.2,1.8,1.5,3.2,1.3c1.2-0.2,1.8-0.9,2.2-2
			c0.2-0.7,0.3-1.4,0.3-2.2c0-0.3,0.1-0.4,0.4-0.4c0.6,0,1.2,0,1.8,0c0.2,0,0.3,0,0.3,0.3c-0.1,1.1-0.2,2.2-0.6,3.2
			c-1,2.5-2.9,3.5-5.3,3.3c-1.8-0.1-3.3-0.7-4.4-2.2c-0.6-0.9-1-1.8-1.1-2.9c-0.5-3.2-0.6-6.4,0.2-9.5c0.3-1.4,1-2.6,2.2-3.5
			c3.3-2.5,8-0.7,8.8,3.3c0.1,0.5,0.2,1,0.2,1.5c0,0.2-0.1,0.3-0.3,0.3c-0.6,0-1.2,0-1.8,0c-0.2,0-0.3-0.1-0.3-0.3
			c0-0.6-0.1-1.3-0.3-1.9c-0.3-1-1-1.6-2-1.8c-1.1-0.2-2.1,0-2.9,0.9c-0.7,0.8-1,1.8-1.1,2.8C108.2,80.5,108.2,81.8,108.2,83.1z"/>
		<path class="st6" d="M119.4,82.9c0-1.7,0.1-3.6,0.7-5.5c0.5-1.6,1.3-2.9,2.9-3.6c1.9-0.9,5-0.8,6.6,1.1c1.1,1.3,1.4,2.8,1.5,4.4
			c0,0.2-0.1,0.2-0.2,0.2c-0.6,0-1.3,0-1.9,0c-0.2,0-0.3-0.1-0.3-0.3c0-0.6-0.1-1.1-0.2-1.7c-0.3-1.2-1.1-2-2.3-2.1
			c-1.3-0.1-2.3,0.3-3,1.4c-0.6,1-0.8,2.1-0.9,3.3c-0.2,2.1-0.2,4.1,0.1,6.2c0.1,1,0.4,1.9,1,2.7c0.8,1,1.8,1.3,3,1.1
			c1.1-0.2,1.7-0.8,2.1-1.8c0.3-0.8,0.4-1.6,0.4-2.4c0-0.3,0.1-0.4,0.4-0.4c0.6,0,1.2,0,1.8,0c0.1,0,0.3,0,0.3,0.2
			c-0.1,1.7-0.4,3.4-1.5,4.9c-1.2,1.5-2.8,1.9-4.6,1.8c-0.6,0-1.2-0.1-1.7-0.3c-2-0.7-3-2.2-3.5-4.1
			C119.4,86.4,119.4,84.7,119.4,82.9z"/>
		<path class="st7" d="M103.6,91.9c-0.9,0-1.7,0-2.5,0c-0.3,0-0.3-0.2-0.3-0.3c-0.4-1.6-0.9-3.2-1.3-4.9c-0.1-0.3-0.2-0.5-0.6-0.5
			c-2.4,0-4.8,0-7.2,0c-0.3,0-0.4-0.1-0.4-0.4c0-0.7,0-1.5,0-2.2c0-0.3,0.1-0.4,0.4-0.4c2.1,0,4.1,0,6.2,0c0.3,0,0.4-0.1,0.3-0.4
			c-0.9-3-1.7-6.1-2.6-9.2c-0.6-2.1-1.2-4.3-1.8-6.4c-0.1-0.3,0-0.4,0.2-0.5c0.6-0.3,1.1-0.5,1.7-0.8c0.3-0.1,0.3-0.1,0.4,0.2
			c0.7,2.4,1.4,4.9,2.1,7.3c1.2,4.1,2.4,8.1,3.6,12.2c0.6,2,1.2,3.9,1.7,5.9C103.6,91.6,103.6,91.7,103.6,91.9z"/>
		<path class="st6" d="M57.1,77c0.3-0.5,0.6-1,0.9-1.4c1.1-1.4,2.6-1.8,4.3-1.7c0.2,0,0.2,0.1,0.2,0.2c0,0.9,0,1.8,0,2.7
			c0,0.3-0.2,0.2-0.3,0.2c-0.7-0.1-1.4-0.1-2.1,0.1c-1.5,0.5-2.3,1.7-2.7,3.2c-0.1,0.5-0.2,1-0.2,1.6c0,3.2,0,6.4,0,9.5
			c0,0.4-0.1,0.5-0.5,0.5c-0.6,0-1.2,0-1.8,0c-0.2,0-0.3-0.1-0.3-0.3c0-0.3,0-0.7,0-1c0-5.5,0-11,0-16.4c0-0.4,0.1-0.5,0.5-0.5
			c0.6,0,1.1,0,1.7,0c0.3,0,0.3,0.1,0.3,0.4C57.1,75.1,57.1,76,57.1,77z"/>
		<path class="st6" d="M152.3,106.3c0.1-1.2-0.1-2.3-0.2-3.5c-0.1-1.5,0-2.9-0.1-4.4c0-0.2,0.1-0.2,0.2-0.2c0.3,0,0.7,0,1,0
			c0.2,0,0.3,0.1,0.3,0.3c0,0.7,0,1.3,0,2c0,2.9,0,5.9,0,8.8c0,0.3-0.1,0.4-0.4,0.4c-1,0-1,0-1.3-1c-0.7-2.4-1.4-4.8-2.2-7.1
			c0-0.1-0.1-0.3-0.2-0.4c0.1,1.1,0.1,2.2,0.2,3.4c0.1,1.6,0,3.3,0.1,4.9c0,0.2-0.1,0.3-0.3,0.3c-0.4,0-0.9,0.1-1.2-0.1
			c-0.3-0.2-0.1-0.7-0.1-1.1c0-3.3,0-6.6,0-9.8c0-0.3,0.1-0.5,0.4-0.4c1,0,1,0,1.4,1c0.7,2.3,1.4,4.6,2.1,6.9
			C152.2,106.2,152.2,106.3,152.3,106.3z"/>
		<path class="st6" d="M69.1,101.3c0.1,2.2,0.3,4.3,0.2,6.5c0,0.5,0,1.1,0,1.6c0,0.3-0.1,0.3-0.3,0.3c-0.3,0-0.6,0-0.9,0
			c-0.2,0-0.3-0.1-0.3-0.3c0-0.6,0-1.3,0-1.9c0-2.9,0-5.9,0-8.8c0-0.3,0-0.5,0.4-0.5c1,0,1,0,1.3,1c0.7,2.4,1.5,4.8,2.2,7.3
			c0,0.1,0.1,0.2,0.2,0.2c-0.1-0.9-0.1-1.8-0.2-2.8c-0.2-1.8-0.1-3.6-0.1-5.5c0-0.2,0-0.2,0.2-0.2c0,0,0.1,0,0.1,0
			c0.4,0,0.9-0.2,1.2,0.1c0.2,0.2,0.1,0.7,0.1,1.1c0,3.3,0,6.6,0,9.9c0,0.3-0.1,0.4-0.4,0.4c-1,0-1,0-1.3-1
			c-0.7-2.4-1.5-4.8-2.2-7.2C69.2,101.5,69.1,101.4,69.1,101.3z"/>
		<path class="st6" d="M44.1,104c0,1.1,0,2.3-0.2,3.4c-0.1,0.4-0.2,0.7-0.4,1.1c-0.5,0.9-1.2,1.4-2.3,1.4c-1.1,0-1.8-0.5-2.3-1.4
			c-0.4-0.8-0.6-1.7-0.6-2.5c-0.1-1.6-0.1-3.3,0.1-4.9c0.1-0.7,0.3-1.3,0.7-1.9c1-1.5,3.3-1.4,4.3,0.2c0.5,0.9,0.7,1.9,0.7,2.9
			C44.1,102.8,44.1,103.4,44.1,104z M42.5,104c0-0.5,0-1.1,0-1.6c0-0.8-0.1-1.5-0.4-2.2c-0.2-0.4-0.5-0.6-0.9-0.6
			c-0.4,0-0.7,0.3-0.9,0.6c-0.2,0.3-0.2,0.6-0.3,1c-0.3,1.8-0.2,3.6-0.1,5.4c0,0.5,0.2,1,0.4,1.4c0.4,0.7,1.2,0.7,1.6,0
			c0.1-0.2,0.2-0.5,0.3-0.7C42.5,106.2,42.5,105.1,42.5,104z"/>
		<path class="st6" d="M133.3,104c0-1.3,0-2.5,0.4-3.8c0.5-1.6,1.7-2.4,3.3-2c0.9,0.2,1.4,0.8,1.8,1.6c0.3,0.7,0.4,1.5,0.5,2.2
			c0.1,1.7,0.2,3.5-0.2,5.2c-0.1,0.4-0.2,0.8-0.4,1.2c-0.5,1-1.2,1.4-2.3,1.4c-1.1,0-1.8-0.5-2.3-1.5c-0.4-0.7-0.5-1.6-0.6-2.4
			C133.3,105.3,133.2,104.7,133.3,104z M134.9,104c0,0.6,0,1.2,0,1.8c0,0.7,0.1,1.4,0.4,2c0.2,0.4,0.5,0.6,0.9,0.6
			c0.4,0,0.7-0.3,0.9-0.6c0.2-0.3,0.3-0.7,0.3-1c0.2-1.7,0.2-3.5,0.1-5.2c0-0.6-0.1-1.1-0.5-1.6c-0.4-0.6-1.2-0.6-1.6,0
			c-0.1,0.2-0.2,0.4-0.3,0.7C134.9,101.7,134.9,102.9,134.9,104z"/>
		<path class="st6" d="M82.4,104c0-1.8,0-3.6,0-5.3c0-0.3,0.1-0.4,0.4-0.4c0.7,0,1.3,0,2,0c1.2,0,2.1,0.6,2.5,1.7
			c0.4,0.9,0.5,1.8,0.6,2.7c0.1,1.4,0.1,2.9-0.2,4.3c-0.4,1.8-1.3,2.6-3.1,2.6c-0.6,0-1.2,0-1.8,0c-0.3,0-0.4-0.1-0.4-0.4
			C82.4,107.6,82.4,105.8,82.4,104z M84,104c0,1.3,0,2.7,0,4c0,0.4,0.1,0.4,0.5,0.4c1-0.1,1.6-0.7,1.8-1.7c0.3-1.5,0.2-3,0.1-4.4
			c0-0.5-0.1-1-0.3-1.4c-0.3-0.8-0.8-1.2-1.7-1.3c-0.3,0-0.4,0-0.4,0.4C84,101.3,84,102.6,84,104z"/>
		<path class="st6" d="M58.4,102.9c0,1.4,0,2.8,0,4.2c0,1.9-0.9,2.8-2.7,2.8c-1.5,0-2.4-0.8-2.5-2.3c-0.1-0.6-0.1-1.2-0.1-1.8
			c0-2.4,0-4.7,0-7.1c0-0.3,0.1-0.4,0.4-0.4c0.4,0,0.8-0.1,1.1,0.1c0.2,0.2,0.1,0.7,0.1,1.1c0,2.4,0,4.8,0,7.2c0,0.4,0,0.8,0.1,1.2
			c0.2,0.5,0.5,0.7,1.1,0.7c0.5,0,0.9-0.3,0.9-0.8c0-0.3,0.1-0.6,0.1-0.9c0-2.7,0-5.4,0-8c0-0.3,0.1-0.4,0.4-0.4
			c0.4,0,0.9-0.2,1.1,0.1c0.2,0.2,0.1,0.7,0.1,1.1C58.5,100.6,58.5,101.7,58.4,102.9C58.4,102.9,58.4,102.9,58.4,102.9z"/>
		<path class="st6" d="M101.5,109.7c-0.7,0-0.7,0-0.8-0.7c-0.1-0.4-0.2-0.8-0.2-1.2c0-0.2-0.1-0.3-0.4-0.3c-0.6,0-1.1,0-1.7,0
			c-0.2,0-0.3,0.1-0.3,0.3c-0.1,0.5-0.2,1.1-0.3,1.6c0,0.2-0.1,0.4-0.4,0.3c-0.3,0-0.5,0-0.8,0c-0.3,0-0.4-0.1-0.3-0.4
			c0.3-1.5,0.7-3.1,1-4.6c0.4-2,0.9-4.1,1.3-6.1c0.1-0.3,0.2-0.4,0.5-0.4c0.8,0,0.8,0,0.9,0.8c0.7,3.4,1.5,6.9,2.2,10.3
			c0.1,0.3,0,0.4-0.3,0.4C101.8,109.7,101.7,109.7,101.5,109.7z M99.2,100.6c-0.3,1.9-0.6,3.7-0.9,5.4c0,0.2,0,0.3,0.2,0.3
			c0.4,0,0.8,0,1.2,0c0.3,0,0.3-0.1,0.3-0.3c-0.3-1.3-0.4-2.6-0.6-3.9C99.4,101.6,99.4,101.1,99.2,100.6z"/>
		<path class="st6" d="M25.7,104c0-1.8,0-3.6,0-5.3c0-0.3,0.1-0.4,0.4-0.4c1.1,0,2.3,0,3.4,0c0.2,0,0.3,0.1,0.3,0.3c0,1,0,1-1,1
			c-0.4,0-0.9,0-1.3,0c-0.3,0-0.3,0.1-0.3,0.3c0,1,0,1.9,0,2.9c0,0.3,0.1,0.4,0.4,0.4c0.6,0,1.1,0,1.7,0c0.2,0,0.3,0.1,0.3,0.3
			c0,1.1,0.1,1.1-1,1.1c-0.3,0-0.7,0-1,0c-0.3,0-0.4,0.1-0.4,0.4c0,1.5,0,3,0,4.5c0,0.3-0.1,0.4-0.4,0.4c-0.4,0-0.9,0.2-1.1-0.1
			c-0.2-0.2-0.1-0.7-0.1-1.1C25.7,107,25.7,105.5,25.7,104z"/>
		<path class="st6" d="M111.1,104.6c0-1.6,0-3.1,0-4.7c0-0.3-0.1-0.4-0.4-0.4c-0.4,0-0.8,0-1.1,0c-0.2,0-0.3-0.1-0.3-0.3
			c-0.1-1.1-0.1-1.1,1-1.1c1.2,0,2.5,0,3.7,0c0.3,0,0.4,0.1,0.3,0.3c0,1,0,1-1,1c-0.7,0-0.7,0-0.7,0.7c0,3,0,6,0,9
			c0,0.3-0.1,0.5-0.4,0.4c-0.2,0-0.5,0-0.8,0c-0.3,0-0.4-0.1-0.4-0.4C111.1,107.8,111.1,106.2,111.1,104.6z"/>
		<path class="st6" d="M122.7,104c0-1.8,0-3.6,0-5.3c0-0.3,0.1-0.4,0.4-0.4c0.4,0,0.9-0.1,1.1,0.1c0.2,0.2,0.1,0.7,0.1,1.1
			c0,3.3,0,6.6,0,9.9c0,0.3-0.1,0.5-0.4,0.4c-0.2,0-0.5,0-0.8,0c-0.3,0-0.4-0.1-0.4-0.4C122.7,107.5,122.7,105.8,122.7,104z"/>
	</g>
</g>
</svg>
