<?xml version="1.0" encoding="utf-8"?>
<!-- Generator: Adobe Illustrator 24.1.0, SVG Export Plug-In . SVG Version: 6.00 Build 0)  -->
<svg version="1.1" id="Layer_1" xmlns="http://www.w3.org/2000/svg" xmlns:xlink="http://www.w3.org/1999/xlink" x="0px" y="0px"
	 viewBox="0 0 180.5 180.5" style="enable-background:new 0 0 180.5 180.5;" xml:space="preserve">
<style type="text/css">
	.st0{fill:#FFFFFF;}
	.st1{fill:#D3AF7A;}
	.st2{fill:#4D5CA7;}
	.st3{fill:#4F5EA7;}
	.st4{fill:#FCFDFD;}
	.st5{fill:#BDBF03;}
</style>
<rect class="st0" width="180.5" height="180.5"/>
<g id="Layer_2">
	<g>
		<path class="st1" d="M95.4,30.2c1.1,0.7,2.4,0.6,3.6,0.9c13.2,3.3,22.2,11.2,27.1,23.8c0,0.1,0,0.3,0,0.5c-0.7-0.4-1-1-1.4-1.5
			c-4.6-5.4-10.3-7.2-17.2-5.5c-4.1,1-8.1,2.3-12.2,3.3c-3.9,1-7.7,1.2-11.5-0.5c-3.8-1.7-6.1-4.6-6.5-8.7c-0.4-4.1,1.5-7.3,4.8-9.6
			c1.7-1.2,3.7-1.9,5.8-2.4c0.3-0.1,0.6,0,0.8-0.3C91,30.2,93.2,30.2,95.4,30.2z"/>
		<path class="st2" d="M89.4,150.2c-1.2-0.6-1.9-1.5-2.6-2.6c-3.6-6-7.2-11.9-10.8-17.9c-0.4-0.6-0.7-1.2-1.4-1.7c0,0.5,0,1,0,1.6
			c0,6.3,0,12.6,0,18.8c0,1.1-0.3,1.5-1.4,1.4c-2.9-0.1-2.9,0-2.9-2.8c0-7.8,0-15.7,0-23.5c0-2.3,1.6-3.6,3.7-3.2
			c1.1,0.2,1.6,1.1,2.2,1.9c3.9,6.4,7.7,12.8,11.6,19.2c0.2,0.3,0.4,0.6,0.9,1.4c0-0.9,0-1.5,0-2c0-6.3,0-12.6,0-18.8
			c0-1.1,0.1-1.6,1.4-1.5c2.9,0.2,2.9,0.1,2.9,2.9c0,7.5-0.1,15,0,22.4c0,2.1-0.6,3.5-2.4,4.3C90.2,150.2,89.8,150.2,89.4,150.2z"/>
		<path class="st3" d="M113.2,150.2c-0.5-0.5-1.2-0.4-1.8-0.6c-7.6-1.9-12.4-9.2-11.1-17.1c1.2-7.6,8-12.8,16.1-12.2
			c7.4,0.5,13.3,6.9,13.4,14.5c0.1,7.5-5.1,13.8-12.5,15c-0.3,0-0.6,0-0.8,0.3C115.4,150.2,114.3,150.2,113.2,150.2z M114.9,146.1
			c5.9,0,10.6-4.7,10.6-10.8c0-6.1-4.6-10.9-10.6-11c-5.8,0-10.5,4.8-10.5,10.9C104.4,141.3,109,146,114.9,146.1z"/>
		<path class="st3" d="M14.9,141.2c0.4,0,0.7,0.1,1.1,0c1.9-0.3,3.1,0.1,3.9,2.3c1.3,3.6,7,4,9.3,1c1.9-2.4,1.1-5.6-1.8-6.9
			c-1.7-0.8-3.6-1.3-5.4-1.9c-4.6-1.6-6.4-4.2-5.9-8.3c0.4-3.8,3.5-6.7,7.7-7.2c4.6-0.6,9.1,2.6,9.9,6.9c0.2,0.8,0,1.2-0.8,1.1
			c-0.4,0-0.9-0.1-1.4,0c-1.2,0.2-1.9-0.2-2.4-1.5c-1.2-3.1-5.9-3.7-8.1-1.2c-1.7,2.1-1,4.9,1.7,6c1.9,0.8,4,1.4,5.9,2.2
			c4,1.6,5.8,4,5.7,7.6c-0.1,3.9-2.4,7.1-6.2,8.4c-0.4,0.2-1,0.1-1.3,0.6c-1.6,0-3.2,0-4.8,0c-0.2-0.6-0.8-0.5-1.3-0.7
			c-2.5-1-4.3-2.7-5.4-5.1c-0.2-0.4-0.1-0.9-0.6-1.1C14.9,142.6,14.9,141.9,14.9,141.2z"/>
		<path class="st2" d="M165.7,149.9c-0.2,0-0.5-0.1-0.7-0.1c-3.5-0.1-3.5-0.1-3.5-3.5c0-8.1,0-16.2,0-24.3c0-1.3,0.4-1.7,1.6-1.5
			c0.9,0.1,1.8,0.1,2.7,0.1C165.7,130.4,165.7,140.2,165.7,149.9z"/>
		<path class="st4" d="M14.9,143.3c0.5,0.2,0.5,0.7,0.6,1.1c1,2.5,2.9,4.1,5.4,5.1c0.4,0.2,1,0.1,1.3,0.7c-2.2,0-4.3,0-6.5,0
			c-0.7,0-0.8-0.1-0.8-0.8C14.9,147.4,14.9,145.4,14.9,143.3z"/>
		<path class="st2" d="M67.6,97.2c1.6-0.2,2.8,0.4,4.1,0.6c12,1.4,20.4-3,26.1-13.7c2.2-4,3.8-8.3,5.7-12.4c1.4-3.1,3-6,5.2-8.6
			c4.7-5.4,10.8-6.6,17.5-5.7c1,0.1,0.8,0.9,0.9,1.5c2.5,11.5,0.5,22.2-6.7,31.6C108.1,106.8,85.3,110,68.7,98
			C68.4,97.8,68.1,97.5,67.6,97.2z"/>
		<path class="st5" d="M53.7,63.4c2.5,3.3,5.4,5.9,8.8,7.9c3.1,1.8,6.6,2.9,10,4.1c1.2,0.4,2.4,0.8,3.5,1.4
			c4.6,2.3,6.7,6.9,5.2,11.5c-1.4,4.5-6.3,7.4-11.2,6.6c-3.9-0.6-7-2.6-9.5-5.7c-5.4-6.8-7.4-14.7-7.1-23.2c0-0.8,0.1-1.5,0.2-2.3
			C53.5,63.7,53.5,63.7,53.7,63.4z"/>
		<path class="st3" d="M51,141.6c-1.5,0-3,0-4.5,0c-0.8,0-1.3,0.2-1.5,1c-0.7,2-1.5,3.9-2.1,5.9c-0.3,1-0.8,1.4-1.9,1.4
			c-3.1-0.1-3.1,0-2-2.9c3-8,6.1-16,9.1-24c0.6-1.5,1.3-2.6,3.1-2.6c1.8,0,2.5,1.2,3,2.7c3.2,8.5,6.4,17.1,9.7,25.6
			c0.4,1.1,0.3,1.3-0.9,1.3c-3.1,0-3.1,0-4.2-3c-0.5-1.5-1.1-2.9-1.6-4.4c-0.2-0.8-0.6-1-1.4-1C54.1,141.6,52.6,141.6,51,141.6z
			 M51.1,126c-1.4,4-2.7,7.5-4,11.1c-0.2,0.6,0,0.7,0.5,0.7c2.4,0,4.7,0,7.1,0c0.5,0,0.7-0.2,0.5-0.7C53.8,133.5,52.5,130,51.1,126z
			"/>
		<path class="st3" d="M153.3,120.7c0.7,1.1,0.2,2.2,0.3,3.4c-3.5,0-7.1,0-10.6,0c-0.5,0-1.1-0.3-1.4,0.4c-0.4,0.4-0.3,0.9-0.3,1.4
			c0,2.3,0,4.5,0,6.8c0,1,0.2,1.4,1.3,1.4c3.3-0.1,6.5,0,9.8-0.1c1.1,0,1.3,0.3,1.3,1.3c0,2.6,0,2.6-2.6,2.6c-2.9,0-5.7,0-8.6,0
			c-1,0-1.3,0.3-1.2,1.3c0.1,3.1,0,6.2,0,9.3c0,1-0.2,1.4-1.3,1.4c-3,0-3,0-3-3c0-7.7,0-15.4,0-23c0-2.1,0.8-3,2.7-3.2
			c0.3,0.4,0.7,0.3,1.1,0.3c3.8,0,7.6,0,11.4,0C152.6,121,153,121.1,153.3,120.7z"/>
		<path class="st2" d="M141.5,124.4c0.3-0.7,0.9-0.4,1.4-0.4c3.5,0,7.1,0,10.6,0c0,0.1,0,0.2-0.1,0.3c-0.1,0-0.1,0.1-0.2,0.1
			C149.4,124.6,145.5,124.6,141.5,124.4z"/>
		<path class="st2" d="M153.3,120.7c-0.3,0.4-0.7,0.3-1.1,0.3c-3.8,0-7.6,0-11.4,0c-0.4,0-0.8,0.1-1.1-0.3
			C144.2,120.7,148.8,120.7,153.3,120.7z"/>
		<path class="st3" d="M153.3,124.4c0.1-0.1,0.1-0.1,0.2-0.1C153.5,124.4,153.5,124.5,153.3,124.4z"/>
		<path class="st4" d="M114.9,146.1c-5.9,0-10.5-4.8-10.5-10.9c0-6.1,4.7-10.9,10.5-10.9c6,0,10.6,4.8,10.6,11
			C125.5,141.4,120.8,146.1,114.9,146.1z"/>
		<path class="st4" d="M51.1,126c1.5,4,2.7,7.5,4,11c0.2,0.5,0,0.7-0.5,0.7c-2.4,0-4.7,0-7.1,0c-0.5,0-0.7-0.1-0.5-0.7
			C48.3,133.5,49.6,130,51.1,126z"/>
	</g>
</g>
</svg>
