<?xml version="1.0" encoding="utf-8"?>
<!-- Generator: Adobe Illustrator 24.1.0, SVG Export Plug-In . SVG Version: 6.00 Build 0)  -->
<svg version="1.1" id="Layer_1" xmlns="http://www.w3.org/2000/svg" xmlns:xlink="http://www.w3.org/1999/xlink" x="0px" y="0px"
	 viewBox="0 0 180.5 180.5" style="enable-background:new 0 0 180.5 180.5;" xml:space="preserve">
<style type="text/css">
	.st0{fill:#0EA9CA;}
	.st1{fill:#D3AF7A;}
	.st2{fill:#4D5CA7;}
	.st3{fill:#4F5EA7;}
	.st4{fill:#FCFDFD;}
	.st5{fill:#BDBF03;}
	.st6{fill:#04538B;}
	.st7{fill:#CE0D14;}
	.st8{fill:#A0B13E;}
	.st9{fill:#06528E;}
	.st10{fill:#9D2126;}
	.st11{fill:#08538F;}
	.st12{fill:#F6FAFA;}
	.st13{fill:#F0E926;}
</style>
<rect class="st0" width="180.5" height="180.5"/>
<g id="Layer_2">
	<g>
		<path class="st12" d="M142.4,95.4c7.1-6.5,12.7-4.5,14.6,1.6c0.8-0.9,1.4-1.6,2.1-2.3c2.3-2.6,5.2-3.7,8.7-3.2
			c3.7,0.5,6.3,3.6,6.2,8.3c-0.1,3.6-0.6,7.3-1,10.9c-0.3,3-0.8,6-1,9.1c-0.2,1.6-0.8,2.3-2.5,2.1c-1.6-0.1-3.1-0.1-4.7,0
			c-1.7,0.1-2.1-0.6-1.9-2.1c0.7-5.5,1.4-11,2-16.6c0.2-1.6,0.9-3.6-1.1-4.4c-2.1-0.8-3.3,0.9-4.3,2.5c-1.1,1.8-1.9,3.7-2.1,5.8
			c-0.4,4.3-1,8.6-1.4,13c-0.1,1.3-0.6,1.7-1.9,1.8c-7.3,0.3-7.3,0.4-6.5-6.7c0.5-4.4,1.1-8.8,1.5-13.2c0.1-1.1,0.4-2.6-1.1-3.2
			c-1.5-0.6-2.7,0.3-3.6,1.4c-1.7,2.1-2.6,4.5-2.9,7.1c-0.5,4.1-1,8.1-1.4,12.2c-0.2,1.6-0.7,2.4-2.5,2.4c-6.9,0-6.8,0.1-5.9-6.8
			c0.9-6.9,1.6-13.8,2.5-20.7c0.1-1.1-0.3-2.9,1.9-2.7c2.1,0.3,4.9-1,6,2.2C142.2,94.3,142.2,94.7,142.4,95.4z"/>
		<path class="st12" d="M22.8,79.7c4.3,0,8.7,0.1,13,0c1.9-0.1,2.3,0.5,2.1,2.4c-0.6,5.3-0.5,5.3-5.9,5.3c-5.6,0-5.5,0-6.2,5.6
			c-1,8.9-2.3,17.8-3.3,26.7c-0.2,1.9-0.9,2.6-2.8,2.3c-0.4-0.1-0.9,0-1.3,0c-5.7,0-5.7,0-5.1-5.8c1-8.8,2.1-17.6,3.3-26.4
			c0.3-2.1-0.3-2.6-2.3-2.4c-2,0.1-4,0-6,0c-0.5,0-1.4,0.1-1.5-0.1c-1.3-2.1,0.2-4.2,0.1-6.3c0-1.3,1-1.2,1.9-1.2
			C13.6,79.7,18.2,79.7,22.8,79.7C22.8,79.7,22.8,79.7,22.8,79.7z"/>
		<path class="st12" d="M129,104.3c-0.1,9.3-5.9,16.5-14.1,17.9c-7.7,1.3-13.8-3.9-14-11.6c-0.2-6.9,2.1-12.6,7.9-16.6
			c6.2-4.2,14.3-3.1,18.1,2.5C128.6,98.7,129.1,101.4,129,104.3z M120,104.4c-0.1-1-0.1-2.1-0.3-3.1c-0.6-3.1-3.3-4.2-5.9-2.4
			c-1.3,0.9-2,2.1-2.6,3.5c-1.1,2.7-1.5,5.5-1.2,8.4c0.2,2,0.4,4,2.7,4.5c2.4,0.6,4-0.8,5.2-2.7C119.4,110.2,120,107.4,120,104.4z"
			/>
		<path class="st12" d="M28.9,109.2c0.1-8.2,4.7-14.9,12-17.1c3.4-1,6.9-1,10.1,0.7c2.5,1.4,4.2,3.4,4.2,6.4c0.1,3-1.1,5.4-3.8,6.9
			c-3.4,2-7.2,2.8-11.2,3.3c-2.6,0.3-3,0.9-2.1,3.3c0.9,2.1,2.7,2.9,4.8,2.8c1.8,0,3.3-0.7,4.9-1.7c2.8-1.8,4.6-1.2,6.2,1.7
			c0.4,0.8,0.1,1-0.3,1.5c-3.9,4.6-12.4,6.6-18,4.2C31.3,119.3,28.8,115,28.9,109.2z M38.4,103.9c2.6-0.1,4.8-0.8,6.9-1.7
			c1.3-0.6,2-1.7,1.5-3.2c-0.5-1.4-1.7-1.6-3-1.3C40.6,98.4,39.5,100.9,38.4,103.9z"/>
		<path class="st12" d="M61.5,121.8c-4.7,0-4.6,0.1-4-4.7c1.5-11.9,3-23.8,4.3-35.7c0.3-2.3,1-3,3.4-3c6.1,0.1,6.1,0,5.3,6.1
			c-1.4,11.4-2.9,22.8-4.1,34.2c-0.3,2.8-1.3,3.6-3.8,3.2C62.3,121.8,61.9,121.8,61.5,121.8z"/>
		<path class="st12" d="M83.1,105.8c-0.6,4.7-1.3,9.5-1.8,14.2c-0.2,1.4-0.6,2-2.1,1.9c-1-0.1-2.1,0-3.1,0c-4.2,0-4.1,0-3.6-4
			c1.5-12,3.1-23.9,4.4-35.9c0.3-2.8,1.2-3.6,4-3.5c5.5,0.2,5.5,0.1,4.8,5.5c-0.8,7-1.7,14-2.5,20.9
			C83.2,105.2,83.1,105.5,83.1,105.8z"/>
		<path class="st13" d="M96.3,88c4.4-5.6,8.4-10.7,12.5-15.6c0.9-1,0.8-1.4,0.2-2.5c-1.6-3.3-3-6.8-4.6-10.2c-0.6-1.2,0-1.6,1.1-1.6
			c2.2,0,4.3,0.1,6.5,0c1.2,0,1.9,0.6,2.3,1.7c1.3,3.4,2.5,6.8,3.9,10.2c0.4,1,0.2,1.6-0.3,2.4c-3.5,4.6-6.9,9.3-10.4,14
			c-0.8,1-1.7,1.6-3.1,1.6C101.9,88,99.4,88,96.3,88z"/>
		<path class="st13" d="M111.1,88.1c4.5-5.7,8.6-10.8,12.7-15.9c0.6-0.7,0.9-1.1,0.4-1.9c-2.2-3.2-3.1-7-4.8-10.4
			c-0.6-1.2-0.3-1.8,1.1-1.7c2.2,0,4.4,0,6.5,0c1.1,0,1.9,0.5,2.3,1.7c1.2,3.4,2.4,6.7,3.7,10c0.5,1.2,0.3,1.9-0.4,2.8
			c-3.3,4.4-6.7,8.9-10,13.3c-1.1,1.4-2.4,2.1-4.2,2C116.3,88,114,88.1,111.1,88.1z"/>
		<path class="st13" d="M83.1,105.8c0-0.3,0.1-0.6,0.1-0.9c2.6-3.4,5.3-6.8,7.8-10.4c1.4-2.1,3.1-3.1,5.6-2.8c1.4,0.1,2.8,0,4.2,0
			c1.6,0,1.9,0.6,0.9,1.8c-2.8,3.4-5.5,6.9-8.3,10.3c-0.8,0.9-0.9,1.4-0.3,2.6c2.1,4.4,4,9,5.9,13.6c0.5,1.2,0.4,2.1-1.2,1.9
			c-0.1,0-0.2,0-0.3,0c-9.3-0.2-6.9,1.4-10.3-6.8c-1.2-2.9-2.3-5.8-3.3-8.7C83.7,105.9,83.4,105.9,83.1,105.8z"/>
	</g>
</g>
</svg>
