<?xml version="1.0" encoding="utf-8"?>
<!-- Generator: Adobe Illustrator 24.1.0, SVG Export Plug-In . SVG Version: 6.00 Build 0)  -->
<svg version="1.1"
	 id="svg3318" xmlns:cc="http://creativecommons.org/ns#" xmlns:dc="http://purl.org/dc/elements/1.1/" xmlns:inkscape="http://www.inkscape.org/namespaces/inkscape" xmlns:rdf="http://www.w3.org/1999/02/22-rdf-syntax-ns#" xmlns:sodipodi="http://sodipodi.sourceforge.net/DTD/sodipodi-0.dtd" xmlns:svg="http://www.w3.org/2000/svg"
	 xmlns="http://www.w3.org/2000/svg" xmlns:xlink="http://www.w3.org/1999/xlink" x="0px" y="0px" viewBox="0 0 100 75.3"
	 style="enable-background:new 0 0 100 75.3;" xml:space="preserve">
<style type="text/css">
	.st0{fill:#FAFAFA;}
	.st1{fill:#033D03;}
	.st2{fill:#060606;}
</style>
<defs>
	
		<inkscape:perspective  id="perspective3326" inkscape:persp3d-origin="372.04724 : 350.78739 : 1" inkscape:vp_x="0 : 526.18109 : 1" inkscape:vp_y="0 : 1000 : 0" inkscape:vp_z="744.09448 : 526.18109 : 1" sodipodi:type="inkscape:persp3d">
		</inkscape:perspective>
	
		<inkscape:perspective  id="perspective3372" inkscape:persp3d-origin="372.04724 : 350.78739 : 1" inkscape:vp_x="0 : 526.18109 : 1" inkscape:vp_y="0 : 1000 : 0" inkscape:vp_z="744.09448 : 526.18109 : 1" sodipodi:type="inkscape:persp3d">
		</inkscape:perspective>
</defs>
<sodipodi:namedview  bordercolor="#666666" borderopacity="1.0" fit-margin-bottom="0.2" fit-margin-left="0.2" fit-margin-right="0.2" fit-margin-top="0.2" gridtolerance="10000" guidetolerance="10" id="base" inkscape:current-layer="layer1" inkscape:cx="62.862455" inkscape:cy="25.267774" inkscape:document-units="px" inkscape:pageopacity="0.0" inkscape:pageshadow="2" inkscape:window-height="1028" inkscape:window-maximized="1" inkscape:window-width="1920" inkscape:window-x="-8" inkscape:window-y="-8" inkscape:zoom="4.235" objecttolerance="10" pagecolor="#ffffff" showgrid="false">
	<inkscape:grid  empspacing="5" enabled="true" id="grid3378" snapvisiblegridlinesonly="true" type="xygrid" visible="true">
		</inkscape:grid>
</sodipodi:namedview>
<rect class="st0" width="100" height="75.3"/>
<g>
	<path class="st1" d="M27.9,30.4c0.9-1.3,2-1.7,3.4-1.4c1.1,0.2,1.7,1.1,1.8,2.4c0,1,0,2.1,0,3.1c0,0.4,0.1,0.5,0.5,0.5
		s0.5,0.1,0.4,0.4c0,0.4,0.2,0.9-0.1,1.1c-0.2,0.2-0.7,0.1-1.1,0.1c-0.3,0-0.6,0-0.9,0c-0.4-0.1-0.6-0.3-0.7-0.7c0-0.2,0-0.3,0-0.5
		c0-1.1,0-2.2,0-3.3c0-1.3-0.8-1.8-2-1.3C28.4,31.2,28,32,28,32.9c0,1.1,0,2.2,0,3.3c0,0.3-0.1,0.3-0.3,0.3c-0.4,0-0.8,0-1.2,0
		c-0.3,0-0.3,0-0.3-0.3c0-1.7,0-3.3,0-5c0-0.5,0-0.6-0.6-0.6c-0.3,0-0.4-0.1-0.3-0.3c0-0.3,0-0.7,0-1c0-0.2,0-0.2,0.2-0.2
		c0.5,0,1,0,1.5,0c0.7,0,1,0.3,1,1C27.9,30.1,27.9,30.2,27.9,30.4z"/>
	<path class="st1" d="M46,35.2c-0.7,1.1-1.5,1.5-2.7,1.5c-1.5,0-2.4-0.8-2.4-2.3c-0.1-1,0-2.1,0-3.2c0-0.5-0.1-0.6-0.6-0.6
		c-0.3,0-0.4,0-0.3-0.3c0-0.3,0-0.7,0-1c0-0.2,0-0.2,0.2-0.2c0.5,0,1.1,0,1.6,0c0.6,0,0.9,0.3,0.9,0.9c0,1.1,0,2.3,0,3.4
		c0,0.2,0,0.4,0,0.6c0.1,0.7,0.5,1.1,1.3,1c1-0.1,1.7-0.8,1.8-1.9c0-0.2,0.1-0.5,0.1-0.7c0-1,0-2,0-3c0-0.2,0-0.3,0.2-0.3
		c0.5,0,0.9,0,1.4,0c0.2,0,0.3,0.1,0.3,0.3c0,1.7,0,3.4,0,5.1c0,0.4,0,0.5,0.5,0.5c0.3,0,0.5,0.1,0.4,0.4c0,0.4,0.2,0.9-0.1,1.1
		c-0.2,0.2-0.7,0-1.1,0.1c-0.3,0-0.5,0-0.8,0c-0.6-0.1-0.8-0.3-0.8-0.9C46,35.5,46,35.4,46,35.2z"/>
	<path class="st1" d="M21.7,33.1c-0.8,0-1.5,0-2.3,0c-0.3,0-0.3,0.1-0.3,0.3c0.3,1.2,1.4,1.9,2.7,1.6c0.5-0.1,0.9-0.3,1.3-0.6
		c0.1-0.1,0.2-0.1,0.3,0.1c0.2,0.3,0.4,0.6,0.6,0.9c0.1,0.2,0.1,0.2-0.1,0.3c-1.5,1.1-3.1,1.3-4.8,0.5c-1.8-0.9-2.6-3.2-1.7-5.2
		c0.7-1.8,2.8-2.7,4.7-2c1.3,0.5,1.9,1.5,2.1,2.9c0,0.3,0,0.6,0,0.8c0,0.3-0.1,0.4-0.4,0.3C23.2,33.1,22.5,33.1,21.7,33.1z
		 M20.8,31.8c0.5,0,0.9,0,1.4,0c0.1,0,0.2,0,0.2-0.2c-0.1-0.6-0.5-1.2-1.1-1.3c-0.9-0.2-1.8,0.4-2,1.2c-0.1,0.2,0,0.2,0.2,0.2
		C19.9,31.8,20.4,31.8,20.8,31.8z"/>
	<path class="st1" d="M61.5,34.3c0.2,0.4,0.5,0.8,0.7,1.1c0.1,0.1,0,0.2-0.1,0.3c-1.6,1.3-4.1,1.3-5.6,0s-1.7-3.7-0.6-5.3
		c1-1.5,3.2-2,4.7-1.1c1.1,0.6,1.5,1.6,1.6,2.8c0.1,1.1,0.1,1.1-1,1.1c-1.3,0-2.5,0-3.8,0c-0.4,0-0.4,0.1-0.3,0.4
		c0.3,1.2,1.5,1.8,2.7,1.5c0.3-0.1,0.5-0.2,0.8-0.3C61,34.6,61.2,34.4,61.5,34.3z M58.8,31.8c0.5,0,0.9,0,1.4,0c0.1,0,0.2,0,0.2-0.2
		c-0.1-0.6-0.4-1-0.9-1.2c-0.9-0.3-2,0.3-2.2,1.2c0,0.2,0,0.2,0.2,0.2C57.9,31.8,58.3,31.8,58.8,31.8z"/>
	<path class="st2" d="M64.7,30.4c0.8-1.2,2-1.6,3.3-1.3c1.3,0.3,2,1.3,2.3,2.6c0.2,1,0.2,2.1-0.3,3.1c-0.7,1.5-2.3,2.2-3.8,1.8
		c-0.7-0.2-1.2-0.6-1.6-1.2c0,0.4,0,0.6,0,0.9c0,0.2,0,0.3-0.3,0.3c-0.7,0-0.7,0-0.7-0.7c0-2.7,0-5.4,0-8.1c0-0.5,0-0.6-0.5-0.6
		c-0.1,0-0.3,0.1-0.4-0.1c-0.1-0.2,0-0.5,0-0.8c0,0,0.1-0.1,0.2-0.1c0.3,0,0.7,0,1,0c0.5,0,0.7,0.3,0.7,0.8c0,1,0,2.1,0,3.1
		C64.7,30.2,64.7,30.2,64.7,30.4z M64.7,32.8c0,0.6,0.1,1.1,0.3,1.6c0.4,0.8,1,1.3,1.9,1.3s1.6-0.4,2-1.3c0.5-1.1,0.5-2.3,0-3.4
		c-0.4-0.8-1-1.2-1.9-1.2s-1.6,0.4-2,1.2C64.8,31.7,64.7,32.3,64.7,32.8z"/>
	<path class="st1" d="M35.6,32.5c0-0.5,0-1.1,0-1.6c0-0.2,0-0.3-0.3-0.3c-0.7,0-0.7,0-0.7-0.7c0-0.3-0.1-0.6,0.1-0.7
		c0.1-0.2,0.5,0,0.7,0s0.3-0.1,0.2-0.3c0-0.5,0-1,0-1.5c0-0.2,0.1-0.3,0.3-0.3c0.4,0,0.9,0,1.3,0c0.2,0,0.3,0.1,0.3,0.3
		c0,0.5,0,1,0,1.5c0,0.3,0.1,0.3,0.3,0.3c0.4,0,0.8,0,1.1,0c0.2,0,0.3,0.1,0.2,0.3c0,0.3,0,0.6,0,1c0,0.2-0.1,0.3-0.3,0.3
		c-0.4,0-0.8,0-1.2,0c-0.2,0-0.2,0.1-0.2,0.2c0,0.9,0,1.9,0,2.8s0.5,1.4,1.4,1.3c0.3,0,0.4,0.1,0.4,0.4c0,0.3,0,0.7,0,1
		c0,0.2-0.1,0.3-0.2,0.3c-0.8,0-1.6,0-2.4-0.5c-0.7-0.4-1-1.1-1.1-1.9C35.5,33.6,35.6,33,35.6,32.5L35.6,32.5z"/>
	<path class="st2" d="M87.5,30.8c0.7-1.2,1.7-1.8,3-1.8c1.5,0,2.3,0.8,2.4,2.2c0.1,1.3,0,2.5,0,3.8c0,0.6,0,0.6,0.6,0.6
		c0.3,0,0.4,0.1,0.3,0.3c0,0.1,0,0.2,0,0.3s-0.1,0.2-0.2,0.2c-0.4,0-0.7,0-1.1,0c-0.5,0-0.7-0.3-0.7-0.8c0-1.2,0-2.3,0-3.5
		c0-0.2,0-0.4,0-0.7c-0.1-1.4-0.9-1.7-2.2-1.5c-1.2,0.3-2.1,1.4-2.2,2.6c0,1.2,0,2.4,0,3.5c0,0.3-0.1,0.3-0.3,0.3
		c-0.7,0-0.7,0-0.7-0.7c0-1.7,0-3.5,0-5.2c0-0.5,0-0.6-0.5-0.6c-0.1,0-0.3,0.1-0.4-0.1s0-0.5,0-0.8c0-0.1,0.1,0,0.2,0
		c0.4,0,0.7,0,1.1,0s0.6,0.2,0.7,0.7c0,0.1,0,0.3,0,0.4C87.5,30.4,87.5,30.6,87.5,30.8z"/>
	<path class="st2" d="M77.6,34.9c-0.1,0.2-0.1,0.2-0.2,0.3c-0.7,1.2-2.1,1.8-3.5,1.4c-0.9-0.2-1.5-0.9-1.6-1.9
		c-0.1-0.6-0.1-1.2-0.1-1.7c0-0.8,0-1.6,0-2.5c0-0.4-0.1-0.5-0.5-0.5c-0.2,0-0.4,0.1-0.4-0.1c-0.1-0.2,0-0.5,0-0.7
		c0-0.1,0.1-0.1,0.2-0.1c0.4,0,0.7,0,1.1,0s0.6,0.2,0.6,0.7c0,0.3,0,0.5,0,0.8c0,1.1,0,2.2,0,3.3c0,1.7,1.2,2,2.4,1.6
		c1.1-0.4,1.7-1.3,1.9-2.4c0.1-1,0-2,0.1-3c0-0.1,0-0.2,0-0.3c0-0.7,0-0.7,0.7-0.7c0.2,0,0.3,0.1,0.3,0.3c0,1.2,0,2.4,0,3.6
		c0,0.7,0,1.4,0,2.1c0,0.4,0.1,0.4,0.5,0.5c0.2,0,0.4-0.1,0.4,0.1c0.1,0.2,0,0.5,0,0.7c0,0.1-0.1,0.1-0.2,0.1c-0.4,0-0.7,0-1.1,0
		s-0.6-0.3-0.7-0.7c0-0.1,0-0.3,0-0.4C77.6,35.3,77.6,35.1,77.6,34.9z"/>
	<path class="st1" d="M52,30.7c0.1-0.1,0.1-0.2,0.2-0.4c0.5-0.9,1.2-1.4,2.2-1.4c0.2,0,0.3,0.1,0.3,0.3c0,0.4,0,0.9,0,1.4
		c0,0.1,0,0.2-0.2,0.2c-1.5,0-2.4,0.8-2.4,2.3c-0.1,1,0,2,0,3c0,0.2-0.1,0.3-0.3,0.3c-0.4,0-0.8,0-1.2,0c-0.3,0-0.4,0-0.3-0.3
		c0-1.7,0-3.4,0-5c0-0.5-0.1-0.5-0.5-0.5c-0.3,0-0.4-0.1-0.4-0.4s0-0.6,0-0.9c0-0.2,0-0.3,0.2-0.2c0.5,0,1.1,0,1.6,0
		c0.6,0,0.8,0.3,0.8,0.9C52,30.2,52,30.4,52,30.7z"/>
	<path class="st1" d="M11,27c1.7,0,3.4,0,5.2,0c0.3,0,0.4,0,0.4,0.3c0,3.4,0,6.8,0,10.2c0,0.2-0.1,0.3-0.3,0.3c-3.5,0-7,0-10.5,0
		c-0.2,0-0.3-0.1-0.3-0.3c0-3.4,0-6.8,0-10.2C5.5,27,5.6,27,5.9,27C7.6,27,9.3,27,11,27z M11,37.5c1.6,0,3.2,0,4.8,0
		c0.3,0,0.4,0,0.4-0.4c0-3.1,0-6.3,0-9.4c0-0.3-0.1-0.4-0.4-0.4c-3.2,0-6.5,0-9.7,0c-0.3,0-0.3,0-0.3,0.3c0,3.2,0,6.3,0,9.5
		c0,0.3,0.1,0.3,0.3,0.3C7.8,37.5,9.4,37.5,11,37.5z"/>
	<path class="st2" d="M82.1,31c0.2-0.4,0.3-0.7,0.6-1c0.5-0.6,1.1-0.9,1.8-0.9c0.2,0,0.3,0.1,0.3,0.3c0,0.2,0.1,0.5,0,0.6
		c-0.1,0.2-0.4,0-0.6,0.1c-0.7,0.1-1.2,0.5-1.5,1c-0.4,0.6-0.6,1.3-0.6,2c0,1,0,2,0,3c0,0.2,0,0.3-0.3,0.3c-0.7,0-0.7,0-0.7-0.7
		c0-1.7,0-3.5,0-5.2c0-0.5,0-0.6-0.5-0.6c-0.1,0-0.3,0.1-0.4-0.1s0-0.5,0-0.8c0-0.1,0.1-0.1,0.2-0.1c0.4,0,0.7,0,1.1,0
		s0.6,0.3,0.7,0.7C82.1,30.2,82.1,30.6,82.1,31z"/>
	<path class="st2" d="M53.3,41c0,0.7,0,1.3,0,2c0,0.1,0,0.3-0.2,0.3s-0.2-0.1-0.2-0.3c0-0.8,0-1.6,0-2.4c0-0.1-0.1-0.3,0.1-0.3
		c0.2,0,0.4-0.1,0.5,0.2c0.2,0.7,0.5,1.5,0.8,2.3c0.3-0.8,0.5-1.5,0.8-2.2c0-0.1,0-0.3,0.2-0.3c0.3-0.1,0.4,0,0.4,0.4
		c0,0.8,0,1.5,0,2.3c0,0.1,0.1,0.3-0.2,0.3s-0.2-0.2-0.2-0.3c0-0.6,0-1.3-0.1-1.9c-0.2,0.6-0.4,1.2-0.6,1.8c0,0.1-0.1,0.2-0.1,0.3
		s-0.1,0.2-0.3,0.2c-0.1,0-0.2-0.1-0.2-0.2c-0.2-0.6-0.4-1.2-0.6-1.9C53.4,41.1,53.4,41,53.3,41C53.4,41,53.3,41,53.3,41z"/>
	<path class="st2" d="M76.6,41c-0.2,0.7-0.5,1.3-0.7,2c0,0.1-0.1,0.3-0.3,0.3c-0.2,0-0.2-0.1-0.3-0.3c-0.2-0.6-0.4-1.3-0.7-1.9h-0.1
		c0,0.5,0,1,0,1.6c0,0.2,0,0.3,0,0.5s-0.1,0.1-0.2,0.1s-0.2,0-0.2-0.2c0-0.9,0-1.8,0-2.6c0-0.1,0-0.2,0.2-0.2s0.4-0.1,0.5,0.2
		c0.2,0.6,0.4,1.2,0.6,1.8c0,0.1,0.1,0.3,0.2,0.5c0.3-0.8,0.5-1.5,0.8-2.2c0.1-0.2,0.1-0.3,0.4-0.3c0.2,0,0.3,0.1,0.3,0.3
		c0,0.8,0,1.6,0,2.4c0,0.1,0,0.3-0.2,0.3s-0.2-0.1-0.2-0.3C76.6,42.3,76.6,41.6,76.6,41L76.6,41z"/>
	<path class="st2" d="M32.8,42.7c0.2-0.8,0.4-1.5,0.6-2.2c0-0.2,0.1-0.3,0.3-0.3s0.3,0.1,0.3,0.3c0.2,0.7,0.4,1.4,0.6,2.1
		c0.2-0.7,0.3-1.4,0.5-2c0-0.1,0-0.1,0-0.2c0-0.2,0.2-0.2,0.3-0.2c0.2,0,0.1,0.2,0.1,0.2c-0.2,0.8-0.5,1.6-0.7,2.5
		c0,0.1-0.1,0.2-0.2,0.2c-0.2,0-0.2-0.1-0.3-0.2c-0.2-0.7-0.4-1.5-0.6-2.3c-0.2,0.8-0.4,1.5-0.6,2.2c0,0.2,0,0.4-0.3,0.4
		s-0.2-0.2-0.3-0.4c-0.2-0.8-0.4-1.5-0.6-2.3c0-0.1-0.2-0.3,0-0.3c0.2,0,0.3,0,0.3,0.2c0.1,0.6,0.3,1.2,0.4,1.9
		C32.8,42.4,32.8,42.5,32.8,42.7z"/>
	<path class="st2" d="M68.7,42.5c0-0.7,0-1.4,0-2c0-0.1,0-0.3,0.2-0.3s0.2,0.1,0.2,0.3c0,0.8,0,1.6,0,2.4c0,0.1,0.1,0.3-0.1,0.3
		s-0.3,0-0.4-0.2c-0.4-0.6-0.8-1.2-1.2-1.8c-0.1-0.1-0.1-0.2-0.2-0.3c0,0.6,0,1.3,0,1.9c0,0.1,0.1,0.3-0.2,0.3
		c-0.3,0-0.2-0.2-0.2-0.3c0-0.8,0-1.6,0-2.4c0-0.1-0.1-0.3,0.1-0.3s0.3,0,0.4,0.1c0.4,0.6,0.9,1.3,1.3,1.9
		C68.5,42.4,68.6,42.4,68.7,42.5z"/>
	<path class="st2" d="M56.4,41.7c0-0.4,0-0.8,0-1.2c0-0.2,0-0.2,0.2-0.2c0.6,0,1.1,0,1.7,0c0.1,0,0.2,0,0.2,0.2s-0.1,0.2-0.2,0.2
		c-0.4,0-0.9,0-1.3,0c-0.2,0-0.2,0.1-0.2,0.2c0,0.7,0,0.7,0.6,0.7c0.3,0,0.5,0,0.8,0c0.1,0,0.2,0,0.2,0.2S58.3,42,58.2,42
		c-0.4,0-0.8,0-1.1,0c-0.2,0-0.3,0.1-0.3,0.3c0,0.7,0,0.7,0.7,0.7c0.3,0,0.6,0,0.9,0c0.1,0,0.2,0,0.2,0.2s-0.1,0.2-0.2,0.2
		c-0.6,0-1.2,0-1.8,0c-0.2,0-0.2-0.1-0.2-0.2C56.4,42.6,56.4,42.2,56.4,41.7z"/>
	<path class="st2" d="M28.2,42.5c0-0.6,0-1.3,0-1.9c0-0.1,0-0.3,0.2-0.3s0.2,0.1,0.2,0.3c0,0.8,0,1.6,0,2.4c0,0.1,0.1,0.3-0.1,0.3
		s-0.3,0-0.4-0.2c-0.4-0.6-0.8-1.2-1.2-1.7c-0.1-0.1-0.1-0.2-0.3-0.3c0,0.2,0,0.5,0,0.7c0,0.4,0,0.8,0,1.2c0,0.1,0,0.2-0.2,0.3
		c-0.2,0-0.2-0.1-0.2-0.3c0-0.8,0-1.6,0-2.4c0-0.1-0.1-0.3,0.1-0.3s0.3,0,0.4,0.2c0.4,0.6,0.8,1.2,1.2,1.8
		C28.1,42.3,28.1,42.4,28.2,42.5z"/>
	<path class="st2" d="M47.5,41.9c0.5,0.4,0.7,0.9,1,1.3c-0.5,0.1-0.5,0.1-0.7-0.3c-0.1-0.2-0.3-0.4-0.4-0.6c-0.2-0.4-0.6-0.4-1-0.4
		c-0.2,0-0.1,0.1-0.1,0.2c0,0.3,0,0.6,0,0.9c0,0.1,0,0.2-0.2,0.2s-0.2-0.1-0.2-0.2c0-0.8,0-1.7,0-2.5c0-0.2,0.1-0.2,0.2-0.2
		c0.4,0,0.8,0,1.2,0c0.6,0,0.8,0.3,0.9,0.7C48.3,41.4,48.1,41.7,47.5,41.9z M46.9,41.6c0.2,0,0.3,0,0.5,0c0.3,0,0.5-0.2,0.5-0.5
		s-0.2-0.4-0.5-0.5c-0.2,0-0.5,0-0.7,0c-0.3,0-0.4,0.1-0.4,0.4C46.3,41.6,46.3,41.6,46.9,41.6z"/>
	<path class="st2" d="M60.8,41.9c0.5,0.4,0.7,0.9,1,1.3c-0.3,0.1-0.5,0-0.7-0.3c-0.1-0.2-0.3-0.4-0.4-0.7c-0.1-0.1-0.2-0.2-0.3-0.3
		c-0.2-0.1-0.5-0.1-0.7,0s0,0.3-0.1,0.5c0,0.2,0,0.4,0,0.6c0,0.2-0.1,0.2-0.2,0.2c-0.2,0-0.2-0.1-0.2-0.2c0-0.8,0-1.7,0-2.5
		c0-0.1,0-0.2,0.2-0.2c0.5,0,0.9,0,1.4,0s0.7,0.3,0.8,0.7c0,0.4-0.2,0.7-0.6,0.8C61,41.9,60.9,41.9,60.8,41.9z M60.2,41.6
		c0.1,0,0.3,0,0.4,0c0.3,0,0.5-0.2,0.5-0.5s-0.2-0.4-0.5-0.4c-0.2,0-0.4,0-0.7,0s-0.4,0.1-0.4,0.4C59.7,41.6,59.6,41.6,60.2,41.6z"
		/>
	<path class="st2" d="M82.1,41.9c0.5,0.4,0.7,0.9,1,1.3c-0.4,0.1-0.4,0.1-0.7-0.2c-0.1-0.2-0.3-0.5-0.5-0.7
		c-0.1-0.1-0.2-0.2-0.2-0.2C81.5,42,81.2,42,81,42c-0.2,0.1-0.1,0.3-0.1,0.5s0,0.4,0,0.6c0,0.2,0,0.2-0.2,0.2s-0.2-0.1-0.2-0.2
		c0-0.8,0-1.7,0-2.5c0-0.1,0-0.2,0.2-0.2c0.5,0,0.9,0,1.4,0s0.7,0.3,0.8,0.7c0,0.4-0.2,0.7-0.6,0.8C82.2,41.9,82.2,41.9,82.1,41.9z
		 M81.6,40.6L81.6,40.6c-0.2,0-0.3,0-0.5,0c-0.1,0-0.2,0-0.2,0.1c0,0.2,0,0.5,0,0.7c0,0.1,0,0.1,0.1,0.1c0.4,0,0.7,0,1.1,0
		c0.2-0.1,0.3-0.2,0.3-0.5c0-0.2-0.1-0.4-0.4-0.4C81.9,40.6,81.7,40.6,81.6,40.6z"/>
	<path class="st2" d="M15.4,41.9c0.5,0.4,0.7,0.8,1,1.3c-0.4,0.1-0.4,0.1-0.7-0.3c-0.1-0.2-0.3-0.4-0.4-0.6c-0.2-0.4-0.6-0.4-1-0.4
		c-0.1,0-0.1,0.1-0.1,0.2c0,0.3,0,0.6,0,0.9c0,0.2,0,0.2-0.2,0.2s-0.2-0.1-0.2-0.2c0-0.8,0-1.7,0-2.5c0-0.2,0-0.2,0.2-0.2
		c0.4,0,0.8,0,1.2,0c0.6,0,0.9,0.3,0.9,0.7C16.2,41.4,16,41.7,15.4,41.9z M14.8,41.6c0.2,0,0.3,0,0.5,0c0.3,0,0.5-0.2,0.5-0.5
		s-0.2-0.4-0.5-0.4c-0.2,0-0.4,0-0.7,0s-0.4,0.1-0.4,0.4C14.2,41.6,14.2,41.6,14.8,41.6z"/>
	<path class="st2" d="M71.8,41.7c0.6,0,0.6,0,0.6,0.6s0,0.6-0.5,0.8c-0.7,0.3-1.4,0.1-1.8-0.3c-0.4-0.5-0.5-1.4-0.1-2
		c0.3-0.5,0.8-0.6,1.3-0.6c0.4,0,0.8,0.2,1,0.6c0,0.1,0.2,0.2,0,0.3c-0.1,0.1-0.2,0-0.3-0.1c-0.3-0.5-1.1-0.6-1.5-0.1
		c-0.4,0.4-0.4,1.2-0.1,1.7c0.3,0.4,1,0.5,1.5,0.2c0.3-0.1,0.2-0.4,0.2-0.6c0-0.2-0.2-0.1-0.3-0.1c-0.1,0-0.2,0-0.3,0
		c-0.1,0-0.2-0.1-0.2-0.2c0-0.1,0.1-0.2,0.2-0.2C71.5,41.7,71.6,41.7,71.8,41.7z"/>
	<path class="st2" d="M64.3,41.7c0.6,0,0.6,0,0.6,0.6c0,0.5,0,0.6-0.5,0.8c-0.7,0.3-1.5,0.1-1.9-0.3c-0.4-0.5-0.5-1.4-0.1-2
		c0.3-0.5,0.8-0.6,1.4-0.6c0.4,0,0.8,0.2,1,0.6c0,0.1,0.1,0.2,0,0.3c-0.1,0-0.2,0.1-0.3-0.1c-0.2-0.6-1.2-0.6-1.6-0.2
		c-0.4,0.4-0.4,1.3,0,1.7c0.3,0.4,1,0.4,1.5,0.2c0.3-0.1,0.2-0.4,0.2-0.5c0-0.2-0.2-0.1-0.3-0.1c-0.1,0-0.2,0-0.3,0
		c-0.1,0-0.2,0-0.2-0.2c0-0.1,0-0.2,0.2-0.2C63.9,41.7,64.1,41.7,64.3,41.7z"/>
	<path class="st2" d="M50.1,41.7c0-0.4,0-0.8,0-1.2c0-0.2,0-0.3,0.2-0.3c0.6,0,1.1,0,1.7,0c0.1,0,0.2,0,0.2,0.2s-0.1,0.2-0.2,0.2
		c-0.4,0-0.9,0-1.3,0c-0.2,0-0.2,0-0.2,0.2c0,0.7,0,0.7,0.6,0.7c0.3,0,0.5,0,0.8,0c0.1,0,0.2,0,0.2,0.2s-0.1,0.2-0.2,0.2
		c-0.4,0-0.8,0-1.2,0c-0.2,0-0.2,0-0.2,0.2c0,0.8,0,0.8,0.8,0.8c0.3,0,0.6,0,0.9,0c0.1,0,0.2,0,0.2,0.2c0,0.1,0,0.2-0.2,0.2
		c-0.6,0-1.2,0-1.8,0c-0.2,0-0.2-0.1-0.2-0.2C50.2,42.6,50.1,42.2,50.1,41.7z"/>
	<path class="st2" d="M86.4,41.7c0-0.4,0-0.8,0-1.2c0-0.2,0-0.2,0.2-0.2c0.6,0,1.1,0,1.7,0c0.1,0,0.2,0,0.2,0.2s-0.1,0.2-0.2,0.2
		c-0.4,0-0.9,0-1.3,0c-0.2,0-0.2,0-0.2,0.2c0,0.7,0,0.7,0.6,0.7c0.2,0,0.4,0,0.7,0c0.1,0,0.3-0.1,0.3,0.2S88.2,42,88.1,42
		c-0.4,0-0.7,0-1.1,0c-0.2,0-0.2,0-0.2,0.2c0,0.8-0.1,0.8,0.7,0.8c0.3,0,0.6,0,0.9,0c0.1,0,0.2,0,0.2,0.2c0,0.1,0,0.2-0.2,0.2
		c-0.6,0-1.2,0-1.8,0c-0.2,0-0.2-0.1-0.2-0.2C86.4,42.6,86.4,42.2,86.4,41.7z"/>
	<path class="st2" d="M29.3,41.7c0-0.4,0-0.8,0-1.2c0-0.2,0.1-0.2,0.2-0.2c0.6,0,1.1,0,1.7,0c0.1,0,0.2,0,0.2,0.2s-0.1,0.2-0.2,0.2
		c-0.4,0-0.8,0-1.2,0c-0.2,0-0.3,0-0.3,0.2c0,0.7,0,0.7,0.6,0.7c0.3,0,0.5,0,0.8,0c0.1,0,0.2,0,0.2,0.2S31.2,42,31.1,42
		c-0.4,0-0.8,0-1.2,0c-0.2,0-0.2,0-0.2,0.2c0,0.8-0.1,0.8,0.7,0.8c0.3,0,0.6,0,0.9,0c0.1,0,0.2,0.1,0.2,0.2c0,0.1-0.1,0.2-0.2,0.2
		c-0.6,0-1.2,0-1.8,0c-0.2,0-0.2-0.1-0.2-0.2C29.3,42.6,29.3,42.1,29.3,41.7z"/>
	<path class="st2" d="M43.9,43.3c-0.8,0-1.4-0.6-1.4-1.5s0.6-1.5,1.4-1.5c0.8,0,1.4,0.6,1.4,1.5C45.3,42.7,44.8,43.3,43.9,43.3z
		 M42.9,41.8c0,0.2,0,0.3,0.1,0.5c0.2,0.4,0.4,0.6,0.9,0.6c0.4,0,0.8-0.2,0.9-0.6c0.2-0.4,0.2-0.9,0-1.3c-0.1-0.3-0.4-0.5-0.7-0.5
		C43.4,40.5,42.9,41,42.9,41.8z"/>
	<path class="st2" d="M92.8,43.3c-0.6,0-1.1-0.3-1.2-0.7c0-0.1-0.1-0.2,0.1-0.3c0.1,0,0.2-0.1,0.3,0.1c0.2,0.5,0.9,0.7,1.3,0.4
		c0.3-0.2,0.3-0.6-0.1-0.7c-0.3-0.1-0.6-0.2-0.9-0.3c-0.2-0.1-0.5-0.2-0.6-0.4s-0.1-0.5,0-0.7c0.3-0.4,0.7-0.5,1.1-0.4
		c0.4,0,0.7,0.2,0.9,0.6c0,0.1,0.2,0.2,0,0.3c-0.1,0-0.2,0.1-0.3-0.1c-0.2-0.4-0.8-0.5-1.1-0.3c-0.3,0.2-0.2,0.5,0.1,0.6
		c0.2,0.1,0.5,0.1,0.7,0.2c0.7,0.2,0.9,0.5,0.8,0.9C93.9,43,93.4,43.3,92.8,43.3z"/>
	<path class="st2" d="M37.1,43.3c-0.6,0-1.1-0.3-1.2-0.8c0-0.1-0.1-0.2,0.1-0.2c0.1,0,0.2-0.1,0.3,0.1c0.2,0.5,0.7,0.7,1.2,0.5
		c0.2-0.1,0.3-0.2,0.3-0.4s-0.1-0.3-0.3-0.4C37.2,42,37,42,36.7,41.9C36.2,41.6,36,41.4,36,41s0.4-0.7,0.9-0.7
		c0.6-0.1,1,0.2,1.2,0.6c0,0.1,0.2,0.2-0.1,0.3c-0.1,0-0.2,0-0.3-0.1c-0.2-0.4-0.8-0.5-1.2-0.3c-0.3,0.2-0.2,0.5,0.1,0.6
		c0.2,0.1,0.5,0.1,0.7,0.2c0.7,0.2,0.9,0.5,0.9,0.9C38.2,43,37.8,43.3,37.1,43.3z"/>
	<path class="st2" d="M7,43.3c-0.6,0-1.1-0.3-1.2-0.8c0-0.1-0.1-0.2,0.1-0.2c0.1,0,0.2-0.1,0.3,0.1c0.2,0.5,0.8,0.7,1.3,0.5
		c0.2-0.1,0.3-0.2,0.3-0.4s-0.1-0.3-0.3-0.4c-0.3-0.1-0.6-0.2-0.9-0.2c-0.5-0.2-0.7-0.4-0.7-0.8c0-0.4,0.4-0.7,0.8-0.7
		c0.6-0.1,1.1,0.1,1.2,0.6c0,0.1,0.2,0.2,0,0.3c-0.1,0-0.2,0.1-0.3-0.1c-0.2-0.4-0.8-0.5-1.1-0.3c-0.3,0.2-0.2,0.5,0.1,0.7
		c0.2,0.1,0.5,0.1,0.7,0.2c0.7,0.2,0.9,0.5,0.9,1C8,43,7.6,43.3,7,43.3z"/>
	<path class="st2" d="M84,41.7c0.4-0.4,0.7-0.7,1.1-1.1c0.2-0.2,0.4-0.4,0.7-0.3c-0.3,0.3-0.6,0.7-0.9,1c-0.2,0.2-0.2,0.2,0,0.4
		c0.4,0.5,0.7,1,1.1,1.5c-0.3,0.1-0.5,0.1-0.7-0.2s-0.5-0.7-0.7-1c-0.1-0.2-0.2-0.2-0.3-0.1C83.9,42.2,84,42.6,84,43
		c0,0.2,0,0.3-0.2,0.3c-0.1,0-0.2,0-0.2-0.2c0-0.9,0-1.7,0-2.6c0-0.2,0-0.2,0.2-0.2s0.2,0,0.2,0.2C83.9,40.9,83.9,41.2,84,41.7
		C84,41.6,84,41.7,84,41.7z"/>
	<path class="st2" d="M19.3,41.4c0-0.3,0-0.6,0-0.9c0-0.2,0-0.2,0.2-0.2s0.2,0.1,0.2,0.2c0,0.6,0,1.2,0,1.7s0.3,0.7,0.8,0.7
		s0.7-0.2,0.7-0.7c0-0.6,0-1.1,0-1.7c0-0.1,0-0.2,0.2-0.2s0.2,0.1,0.2,0.2c0,0.6,0,1.1,0,1.7c0,0.4-0.1,0.8-0.6,1s-0.9,0.2-1.4-0.1
		c-0.2-0.2-0.3-0.4-0.3-0.7C19.3,42,19.3,41.7,19.3,41.4L19.3,41.4z"/>
	<path class="st2" d="M22.3,41.7c0-0.4,0-0.8,0-1.2c0-0.1,0-0.2,0.2-0.2c0.5,0,0.9,0,1.4,0c0.4,0.1,0.7,0.4,0.7,0.8
		c0,0.4-0.2,0.8-0.7,0.8c-0.3,0-0.6,0-1,0c-0.2,0-0.2,0-0.2,0.2c0,0.3,0,0.5,0,0.8c0,0.2-0.1,0.2-0.2,0.2s-0.2,0-0.2-0.2
		C22.3,42.6,22.3,42.2,22.3,41.7z M23.3,41.7c0.1,0,0.3,0,0.4,0c0.3,0,0.5-0.2,0.5-0.5s-0.2-0.5-0.5-0.5s-0.5,0-0.8,0
		c-0.2,0-0.2,0.1-0.2,0.2c0,0.1,0,0.2,0,0.3C22.7,41.7,22.7,41.7,23.3,41.7z"/>
	<path class="st2" d="M10.7,43.2c0.4-0.9,0.7-1.9,1.1-2.8c0-0.1,0.1-0.1,0.2-0.1c0.1,0,0.2,0,0.3,0.1c0.4,0.9,0.7,1.8,1.1,2.7
		c0,0.1,0.1,0.2,0,0.2s-0.3,0.1-0.4-0.1c0-0.1-0.1-0.1-0.1-0.2c-0.1-0.2-0.1-0.5-0.3-0.6c-0.4-0.1-0.7-0.1-1.1,0
		c-0.2,0-0.2,0.4-0.3,0.6C11.1,43.2,11,43.3,10.7,43.2z M12,40.7c-0.2,0.5-0.3,0.9-0.5,1.3c0.3,0,0.6,0,0.9,0
		C12.3,41.6,12.2,41.2,12,40.7z"/>
	<path class="st2" d="M77.4,43.2c0.4-0.9,0.7-1.8,1.1-2.8c0.1-0.1,0.2-0.1,0.3-0.1c0.2,0,0.2,0,0.3,0.2c0.3,0.8,0.7,1.7,1,2.5
		c0,0.1,0.2,0.2,0,0.2c-0.1,0-0.3,0.1-0.4-0.1c-0.1-0.2-0.2-0.3-0.2-0.5c-0.1-0.2-0.2-0.3-0.4-0.3c-0.1,0-0.1,0-0.2,0
		c-0.7,0-0.7,0-1,0.7C77.8,43.2,77.8,43.2,77.4,43.2z M79.2,42c-0.2-0.4-0.3-0.8-0.4-1.2c0,0,0,0-0.1,0c0,0.2-0.1,0.3-0.1,0.4
		c-0.1,0.3-0.4,0.6-0.2,0.8C78.5,42.1,78.9,42,79.2,42z"/>
	<path class="st2" d="M40.1,41.7c0-0.4,0-0.8,0-1.2c0-0.2,0.1-0.2,0.2-0.2c0.5,0,1,0,1.6,0c0.1,0,0.2,0,0.2,0.2s-0.1,0.2-0.2,0.2
		c-0.4,0-0.7,0-1.1,0c-0.2,0-0.3,0-0.3,0.3c0,0.6,0,0.6,0.6,0.6c0.2,0,0.4,0,0.6,0c0.1,0,0.2,0,0.2,0.2c0,0.1,0,0.2-0.2,0.2
		c-0.3,0-0.6,0-1,0c-0.2,0-0.2,0.1-0.2,0.2c0,0.3,0,0.6,0,0.9c0,0.2-0.1,0.2-0.2,0.2c-0.2,0-0.2-0.1-0.2-0.2
		C40.1,42.6,40.1,42.2,40.1,41.7z"/>
	<path class="st2" d="M9.7,40.3c0.3,0,0.6,0,0.9,0c0.1,0,0.2,0,0.2,0.2s-0.1,0.2-0.2,0.2l0,0c-0.7,0-0.7,0-0.7,0.7c0,0.5,0,1,0,1.5
		c0,0.1,0.1,0.3-0.2,0.3S9.5,43,9.5,42.9c0-0.7,0-1.3,0-2c0-0.2-0.1-0.3-0.3-0.3s-0.3,0-0.5,0c-0.1,0-0.2,0-0.2-0.2
		c0-0.1,0.1-0.2,0.2-0.2C9,40.3,9.3,40.3,9.7,40.3z"/>
	<path class="st2" d="M89.9,41.9c0-0.4,0-0.7,0-1.1c0-0.2,0-0.2-0.2-0.2s-0.4,0-0.6,0c-0.1,0-0.2,0-0.2-0.2c0-0.1,0.1-0.2,0.2-0.2
		c0.7,0,1.3,0,2,0c0.1,0,0.2,0,0.2,0.2c0,0.1-0.1,0.2-0.2,0.2l0,0c-0.2,0-0.6-0.1-0.7,0c-0.2,0.2,0,0.5,0,0.7c0,0.5,0,1,0,1.5
		c0,0.1,0.1,0.3-0.2,0.3c-0.3,0-0.2-0.2-0.2-0.3C89.9,42.6,89.9,42.2,89.9,41.9z"/>
	<path class="st2" d="M17.5,41.9c0-0.3,0-0.7,0-1c0-0.2-0.1-0.3-0.3-0.3c-0.2,0-0.3,0-0.5,0c-0.1,0-0.2,0-0.2-0.2
		c0-0.1,0.1-0.2,0.2-0.2c0.7,0,1.3,0,2,0c0.1,0,0.2,0,0.2,0.2c0,0.1-0.1,0.2-0.2,0.2l0,0c-0.2,0-0.6-0.1-0.7,0
		c-0.2,0.2,0,0.5-0.1,0.8c0,0.5,0,1,0,1.6c0,0.2,0,0.2-0.2,0.2s-0.2-0.1-0.2-0.2C17.5,42.6,17.5,42.3,17.5,41.9z"/>
	<path class="st2" d="M65.6,41.7c0-0.4,0-0.8,0-1.2c0-0.1,0-0.3,0.2-0.3s0.2,0.1,0.2,0.2c0,0.8,0,1.7,0,2.5c0,0.1,0,0.2-0.2,0.2
		s-0.2-0.1-0.2-0.2C65.6,42.6,65.6,42.2,65.6,41.7z"/>
	<path class="st1" d="M11.1,34.5c0.4-1.8,1.1-3.5,1.6-5.1c0.3-0.8,0.5-0.9,1.3-0.9c0.5,0,0.9,0,1.4,0c0.2,0,0.3,0,0.3,0.2
		c0,0.4,0,0.8,0,1.2c0,0.2-0.1,0.2-0.3,0.2c-1.2,0-0.9-0.1-1.3,1c-0.6,1.7-1.2,3.4-1.8,5.1c-0.1,0.2-0.2,0.3-0.4,0.3
		c-0.5,0-1.1,0-1.6,0c-0.2,0-0.3-0.1-0.4-0.3c-0.6-1.8-1.3-3.7-1.9-5.5c-0.2-0.6-0.2-0.6-0.9-0.6c-0.6,0-0.6,0-0.6-0.6
		c0-0.2,0-0.3,0-0.5c0-0.6,0-0.6,0.6-0.6c0.4,0,0.9,0,1.3,0c0.6,0,0.9,0.2,1,0.7c0.5,1.7,1.2,3.4,1.7,5.2C11,34.3,11,34.4,11.1,34.5
		z"/>
</g>
</svg>
